<svg width="144" height="97" viewBox="0 0 144 97" fill="none" xmlns="http://www.w3.org/2000/svg">
<g clip-path="url(#clip0_190_3781)">
<g style="mix-blend-mode:multiply" opacity="0.5">
<path d="M33.2505 94.8594H143.097C143.592 94.8594 143.994 95.3858 143.994 96.0349V96.1109C143.994 96.7593 143.592 97.2863 143.097 97.2863H33.2505C32.7552 97.2863 32.3535 96.76 32.3535 96.1109V96.0342C32.3535 95.3858 32.7552 94.8594 33.2505 94.8594Z" fill="#C1C1C1"/>
</g>
<path d="M109.437 40.4108C109.437 40.4108 111.794 39.7625 111.966 39.7052C112.156 39.6417 112.455 39.5271 112.511 40.1785C112.565 40.8293 112.594 41.0333 112.594 41.0333C112.594 41.0333 109.843 41.0567 109.546 41.024C109.249 40.9907 109.009 40.7615 109.438 40.4108H109.437Z" fill="#0F1B29"/>
<path d="M110.977 27.005C110.813 25.5574 110.2 24.5325 108.616 24.8019C107.031 25.0724 106.441 25.9839 106.722 26.8319C107.361 28.7657 107.493 28.7343 108.333 31.0509C108.746 32.1904 109.532 34.3855 110.224 36.3237L111.735 36.055C111.595 33.7218 111.118 28.2388 110.978 27.005H110.977Z" fill="url(#paint0_linear_190_3781)"/>
<path d="M111.771 36.9489C111.771 36.7726 111.757 36.4608 111.733 36.0547L110.223 36.3234C110.938 38.3263 111.554 40.0531 111.554 40.0531C111.554 40.0531 111.762 40.1868 111.948 40.1159C112.228 40.0093 112.22 39.8325 112.22 39.8325C112.22 39.8325 111.775 38.1377 111.772 36.9483L111.771 36.9489Z" fill="#F4AA74"/>
<path d="M99.5505 9.23006C99.5229 8.98293 99.3764 8.22615 99.1783 8.25573C98.708 8.32537 99.0208 8.70622 98.7546 9.24854C98.583 9.59859 99.3819 10.2463 99.3819 10.2463C99.3819 10.2463 99.6081 9.74526 99.5499 9.22944L99.5505 9.23006Z" fill="#E59661"/>
<path d="M106.182 13.2022C104.702 11.9407 100.102 10.5769 99.4942 9.89281C99.0994 9.44847 99.4403 8.92279 98.4378 8.3854C97.9522 8.12471 96.7148 9.09658 96.9092 9.61302C97.3543 10.7944 98.1079 10.9294 98.97 10.6373C99.4912 10.7371 103.346 13.5461 104.489 14.2456C105.005 14.5617 105.812 14.9795 106.138 14.6677C106.658 14.1722 106.731 13.6706 106.181 13.2022H106.182Z" fill="#E59661"/>
<path d="M106.46 11.8285C106.46 11.8285 105.321 13.5017 105.07 14.0557C104.891 14.4526 105.443 14.6424 105.78 14.7644C106.117 14.8865 107.261 14.1118 107.983 13.1861C108.536 12.4768 106.619 11.7582 106.46 11.8285Z" fill="#0033FF"/>
<path d="M110.735 6.71767C109.188 7.91386 105.549 12.5119 105.549 12.5119C105.549 12.5119 105.66 13.0468 106.421 13.7697C107.564 14.8556 108.252 14.8778 108.252 14.8778C108.252 14.8778 110.948 12.5137 112.385 11.1339C113.089 10.4591 113.093 8.98741 112.827 7.70063C112.572 6.46685 111.476 6.14454 110.735 6.71706V6.71767Z" fill="#0033FF"/>
<path d="M110.53 16.7854C110.53 16.7854 107.318 24.3625 106.735 25.9068C106.152 27.4518 108.796 29.1318 110.427 27.5634C112.058 25.9956 114.275 23.7875 115.162 21.8123C116.048 19.8365 116.261 18.1017 115.405 16.2566C114.55 14.4115 111.393 14.743 110.53 16.7854Z" fill="url(#paint1_linear_190_3781)"/>
<path d="M124.256 38.1447C124.256 38.1447 125.332 35.939 125.402 35.772C125.48 35.5871 125.593 35.2858 126.115 35.6746C126.637 36.0641 126.809 36.1775 126.809 36.1775C126.809 36.1775 125.007 38.2661 124.786 38.4682C124.564 38.6697 124.234 38.6993 124.257 38.1447H124.256Z" fill="#0F1B29"/>
<path d="M114.816 16.494C114.816 16.494 113.344 25.5798 113.116 27.1956C112.888 28.8115 115.762 29.7452 116.983 27.8433C118.204 25.9415 120.068 24.0945 120.557 19.483C120.834 16.8669 115.206 14.334 114.816 16.494Z" fill="#1A1A2E"/>
<path d="M111.61 6.34698C109.221 7.13951 109.623 9.4413 109.786 11.3856C110.149 15.723 108.9 20.2403 108.9 20.2403C108.9 20.2403 113.313 22.5168 118.313 21.1967C120.585 20.5971 120.824 19.7627 120.824 19.7627C120.824 19.7627 119.949 12.2453 116.855 7.33857C116.163 6.24098 115.254 5.60499 113.225 5.92607C112.646 6.01851 112.2 6.15101 111.61 6.34698Z" fill="#0033FF"/>
<path d="M109.74 4.11455C107.836 3.01265 108.321 0.0224903 110.513 0.216001C111.168 0.27393 110.973 1.25627 111.552 1.07509C113.251 0.544475 113.983 1.80907 114.026 3.28628C114.051 4.20145 113.3 5.07409 112.624 5.60717C112.352 5.3582 112.267 4.40235 111.298 4.11579C110.33 3.8286 109.739 4.11455 109.739 4.11455H109.74Z" fill="#1A1A2E"/>
<path d="M110.735 6.85211C110.776 7.63601 110.66 9.41889 112.347 8.89259C114.33 8.27508 114.254 5.9961 114.085 5.77917C113.7 5.28554 112.972 5.79396 112.474 5.95728C111.975 6.12059 110.701 6.18715 110.735 6.85211Z" fill="#1A1A2E"/>
<path d="M113.551 5.87256C113.452 5.8892 113.352 5.9083 113.248 5.93049C112.676 6.05806 112.237 6.21767 111.66 6.44939C111.478 6.52211 111.314 6.60346 111.166 6.6922C111.217 7.19508 111.07 8.66182 112.35 8.30315C113.664 7.93461 113.689 6.3323 113.55 5.87256H113.551Z" fill="#F4AA74"/>
<path d="M113.351 5.99114C112.725 4.80297 112.326 4.13862 111.712 3.08664C111.705 3.04474 110.114 3.63882 109.543 2.84814C109.543 2.84814 109.618 3.99996 109.927 4.90958C110.219 5.76805 110.552 6.20191 111.31 5.62693C111.382 6.05955 111.653 6.53778 111.659 6.92234C111.67 7.69884 112.191 7.85414 112.539 7.79621C112.887 7.73705 114.017 7.25266 113.352 5.99114H113.351Z" fill="#F4AA74"/>
<path d="M112.652 3.26172C112.811 3.45091 112.723 3.8028 112.456 4.0487C112.189 4.29398 111.843 4.33958 111.685 4.15162C111.526 3.96242 111.613 3.61114 111.881 3.36463C112.149 3.11874 112.494 3.07314 112.653 3.26172H112.652Z" fill="#F4AA74"/>
<path d="M117.267 26.1292C116.291 25.0526 115.197 24.5824 114.069 25.7342C112.942 26.8866 112.996 27.9725 113.717 28.4945C115.362 29.6858 115.451 29.5828 117.481 30.9664C118.373 31.574 119.999 32.6901 121.54 33.7507L122.695 32.4608C121.042 30.4666 118.023 26.9618 117.268 26.1299L117.267 26.1292Z" fill="#1A1A2E"/>
<path d="M125.75 35.7957C125.75 35.7957 124.402 34.684 123.707 33.7213C123.55 33.5026 123.181 33.0465 122.696 32.4604L121.541 33.7503C123.508 35.1037 125.339 36.3664 125.339 36.3664C125.339 36.3664 125.586 36.3528 125.695 36.1858C125.86 35.9344 125.75 35.7963 125.75 35.7963V35.7957Z" fill="#F4AA74"/>
<path d="M121.715 34.0112L121.174 33.6821L122.63 32.0742L122.967 32.6135L121.715 34.0112Z" fill="#0033FF"/>
<path d="M110.243 36.7005L110.006 36.1101L111.855 35.7632L111.802 36.3973L110.243 36.7005Z" fill="#0033FF"/>
<path d="M122.716 91.8035C124.375 92.3002 124.122 93.8742 124.122 93.8742C124.122 93.8742 125.4 93.049 126.616 93.8914C127.545 94.5342 127.356 95.8463 125.844 95.9584H115.281C116.684 93.6086 119.598 90.8699 122.716 91.8029V91.8035Z" fill="#0033FF"/>
<g style="mix-blend-mode:color-burn">
<path d="M122.716 91.8035C124.375 92.3002 124.122 93.8742 124.122 93.8742C124.122 93.8742 125.4 93.049 126.616 93.8914C127.545 94.5342 127.356 95.8463 125.844 95.9584H115.281C116.684 93.6086 119.598 90.8699 122.716 91.8029V91.8035Z" fill="#0033FF"/>
</g>
<g style="mix-blend-mode:color-burn">
<path d="M121.345 91.6191C118.764 91.6752 116.474 93.9585 115.279 95.9602H118.626C120.664 95.2804 121.702 93.3897 121.345 91.6191Z" fill="#0033FF"/>
</g>
<path d="M109.175 83.5284C114.313 84.9532 111.327 91.6724 111.327 91.6724C111.327 91.6724 114.281 86.7533 118.49 88.893C121.274 90.308 121.225 94.3495 117.804 95.9599H100.812C100.027 88.2527 103.901 82.066 109.175 83.5284Z" fill="#0033FF"/>
<g style="mix-blend-mode:color-burn">
<path d="M109.175 83.5284C114.313 84.9532 111.327 91.6724 111.327 91.6724C111.327 91.6724 114.281 86.7533 118.49 88.893C121.274 90.308 121.225 94.3495 117.804 95.9599H100.812C100.027 88.2527 103.901 82.066 109.175 83.5284Z" fill="#0033FF"/>
</g>
<g style="mix-blend-mode:color-burn">
<path d="M112.14 86.9129C111.952 85.4542 111.185 84.0861 109.175 83.5284C103.901 82.066 100.027 88.2527 100.812 95.9599H107.128C109.692 93.1188 111.286 89.8612 112.14 86.9129Z" fill="#0033FF"/>
</g>
<path d="M106.64 95.9599C108.927 92.3486 109.927 88.4303 110.139 85.0913C110.417 81.0134 109.544 77.7823 108.928 75.9575C107.194 76.7907 104.31 78.186 101.236 79.7421C98.1478 81.332 94.8687 83.0829 91.9998 85.4142C89.0107 87.8461 87.1584 91.1968 85.4631 94.5974C85.2429 95.0515 85.0259 95.507 84.8125 95.9599H106.64Z" fill="#0033FF"/>
<g style="mix-blend-mode:color-burn">
<path d="M106.983 86.2027C106.959 86.0671 106.831 85.9827 106.697 86.0123C105.515 86.276 104.339 86.4923 103.171 86.6624C104.101 85.3941 104.975 84.0809 105.788 82.7251C105.857 82.6104 105.819 82.4619 105.704 82.3929C105.588 82.3239 105.441 82.3602 105.373 82.4736C104.568 83.8165 103.702 85.1174 102.781 86.3734C102.593 85.208 102.365 84.063 102.099 82.9414C102.069 82.815 101.941 82.73 101.813 82.7509C101.686 82.7713 101.607 82.8896 101.637 83.0159C101.935 84.2867 102.184 85.587 102.379 86.9133C101.205 88.4687 99.9437 89.9533 98.6015 91.3584C98.5285 89.1041 98.298 86.9071 97.9234 84.7859C97.9013 84.6608 97.7811 84.5653 97.6548 84.572C97.5291 84.5782 97.4457 84.6836 97.4672 84.8081C97.8608 87.0735 98.0889 89.4252 98.1349 91.841C96.7743 93.2282 95.3347 94.5366 93.8214 95.7586C94.0746 93.1469 94.1047 90.5875 93.9287 88.1101C93.9195 87.9843 93.811 87.8759 93.6865 87.8666C93.562 87.8574 93.4688 87.9505 93.4774 88.0756C93.6516 90.6282 93.605 93.2683 93.3192 95.9614H94.3407C95.789 94.7782 97.1716 93.5173 98.4801 92.183C100.895 92.183 103.371 91.9988 105.884 91.6179C106.022 91.5969 106.127 91.4657 106.117 91.3252C106.107 91.1847 105.986 91.0898 105.848 91.1107C103.511 91.4737 101.206 91.6654 98.9504 91.6956C100.305 90.2763 101.579 88.7781 102.764 87.2072C104.093 87.0322 105.434 86.7974 106.782 86.5022C106.916 86.4732 107.006 86.3383 106.981 86.2027H106.983ZM89.2332 93.7095C89.1094 93.6824 88.9984 93.7625 88.9849 93.8895C88.9101 94.5766 88.8181 95.2675 88.709 95.9608H89.1805C89.2804 95.3008 89.3651 94.6432 89.4343 93.9887C89.4478 93.8611 89.3577 93.7373 89.2332 93.7095Z" fill="#0033FF"/>
</g>
<g style="mix-blend-mode:color-burn">
<path d="M101.236 79.7417C98.1478 81.3317 94.8687 83.0825 91.9998 85.4139C89.0107 87.8457 87.1584 91.1964 85.4631 94.597C85.2429 95.0512 85.0259 95.5066 84.8125 95.9596H96.4905C97.661 94.7739 98.7193 93.4205 99.6059 91.8891C102.171 87.5197 103.138 82.8613 103.184 78.7637C102.55 79.0798 101.897 79.4071 101.236 79.7417H101.236Z" fill="#0033FF"/>
</g>
<path d="M95.7304 95.9594C96.8886 94.492 97.8844 92.8336 98.6336 90.9811C101.033 85.1493 100.921 79.2232 99.8182 74.64C98.725 70.0025 96.6415 66.7073 95.3275 64.8887C93.6831 66.4195 90.9515 68.9746 88.0636 71.7755C85.1708 74.619 82.121 77.7084 79.7285 81.3019C77.2354 85.0489 76.3255 89.4232 75.6075 93.8C75.4971 94.5228 75.3923 95.2457 75.293 95.9594H95.7304Z" fill="#0033FF"/>
<g style="mix-blend-mode:color-burn">
<path d="M97.4822 82.9786C97.4228 82.8258 97.256 82.7617 97.1094 82.8332C94.6317 84.0491 92.1295 85.0635 89.629 85.8813C90.6499 83.8297 91.5531 81.719 92.333 79.5577C93.7531 78.9007 95.1658 78.1735 96.5656 77.3761C96.7048 77.2972 96.7581 77.116 96.6845 76.973C96.611 76.8307 96.4393 76.7808 96.3013 76.8596C95.0756 77.564 93.8401 78.2136 92.5979 78.8089C93.1982 77.0735 93.7194 75.3066 94.159 73.5145C94.1964 73.3629 94.1026 73.2107 93.9511 73.1737C93.7997 73.1367 93.6476 73.2286 93.6108 73.3783C93.1755 75.1532 92.6598 76.9028 92.0651 78.6216C91.455 77.389 90.8075 76.1935 90.1251 75.0367C90.0484 74.9061 89.8762 74.8561 89.7419 74.9239C89.6076 74.9911 89.5604 75.1495 89.637 75.2801C90.4059 76.5916 91.1294 77.9535 91.8039 79.3623C91.0313 81.5027 90.1373 83.5937 89.1263 85.6255C88.2697 83.1401 87.2574 80.7736 86.1108 78.5421C86.0428 78.4108 85.876 78.3461 85.738 78.3966C85.6001 78.4472 85.5437 78.5932 85.6099 78.7245C86.8276 81.1107 87.8902 83.6504 88.7725 86.3244C87.7344 88.3421 86.5811 90.2994 85.3162 92.1858C84.7 89.1895 83.8532 86.3287 82.8047 83.6307C82.7514 83.4938 82.5926 83.4107 82.4509 83.4439C82.3093 83.4772 82.2376 83.6128 82.2903 83.7496C83.3909 86.606 84.264 89.6455 84.8753 92.8347C84.1402 93.9003 83.3682 94.9418 82.5625 95.9586H83.2842C83.9967 95.0447 84.6822 94.111 85.3395 93.1583C88.537 92.5975 91.7769 91.7433 95.0137 90.5822C95.1682 90.5268 95.2608 90.3511 95.2197 90.1915C95.1786 90.0319 95.0198 89.9487 94.8659 90.0048C91.8302 91.1061 88.7903 91.9362 85.7846 92.5038C87.0612 90.5995 88.2262 88.6231 89.274 86.5863C91.9633 85.7469 94.6581 84.682 97.3253 83.3848C97.4718 83.3133 97.5436 83.1309 97.4835 82.978L97.4822 82.9786ZM79.4993 91.5005C79.3521 91.5134 79.2564 91.641 79.284 91.7871C79.5471 93.1496 79.7586 94.5418 79.9156 95.9592H80.4699C80.3074 94.5258 80.0897 93.1188 79.8187 91.7415C79.7899 91.5948 79.6464 91.4882 79.4993 91.5005Z" fill="black"/>
</g>
<g style="mix-blend-mode:color-burn">
<path d="M23.4699 91.6182C26.05 91.6742 28.3408 93.9575 29.5352 95.9592H26.188C24.1505 95.2794 23.1125 93.3887 23.4699 91.6182Z" fill="#0033FF"/>
</g>
<g style="mix-blend-mode:color-burn">
<path d="M38.0313 86.5003C39.3796 86.7961 40.7205 87.0302 42.0492 87.2053C43.2344 88.7762 44.5079 90.2743 45.863 91.6936C43.6084 91.6634 41.3024 91.4717 38.9651 91.1088C38.8271 91.0872 38.707 91.1827 38.6965 91.3232C38.6861 91.4637 38.791 91.595 38.9289 91.6159C41.4422 91.9968 43.9181 92.1805 46.3333 92.1811C47.6417 93.5159 49.0244 94.7768 50.4726 95.9595H51.4941C51.209 93.2663 51.1618 90.6262 51.3359 88.0736C51.3445 87.9485 51.2513 87.8554 51.1269 87.8647C51.0024 87.8739 50.8932 87.9824 50.8847 88.1081C50.7087 90.5855 50.7387 93.1455 50.992 95.7567C49.4793 94.5346 48.039 93.2269 46.6791 91.839C46.7257 89.4232 46.9532 87.0715 47.3468 84.8061C47.3683 84.6816 47.2849 84.5762 47.1592 84.5701C47.0335 84.5639 46.9127 84.6594 46.8906 84.7839C46.516 86.9051 46.2854 89.1015 46.2125 91.3565C44.8703 89.9508 43.6091 88.4668 42.4349 86.9113C42.6305 85.5851 42.8788 84.2847 43.1768 83.014C43.2062 82.8876 43.1277 82.7699 43.0002 82.749C42.8733 82.728 42.7451 82.8131 42.7151 82.9394C42.449 84.061 42.2209 85.2061 42.0333 86.3715C41.1111 85.1155 40.2459 83.8145 39.4409 82.4717C39.3728 82.3583 39.2251 82.3219 39.1098 82.3909C38.9951 82.46 38.9565 82.6085 39.0258 82.7231C39.8388 84.0789 40.7126 85.3922 41.6433 86.6605C40.4753 86.4904 39.2986 86.2741 38.1171 86.0103C37.9841 85.9807 37.8559 86.0652 37.832 86.2007C37.8081 86.3363 37.8976 86.4707 38.0313 86.5003ZM55.3796 93.9868C55.4489 94.6412 55.5335 95.2988 55.6335 95.9588H56.105C55.9965 95.2655 55.9039 94.5747 55.8291 93.8875C55.8156 93.7606 55.7046 93.6805 55.5807 93.7076C55.4569 93.7347 55.3662 93.8592 55.3796 93.9868Z" fill="#0033FF"/>
</g>
<g style="mix-blend-mode:color-burn">
<path d="M43.5749 79.7417C46.664 81.3317 49.9425 83.0825 52.8114 85.4139C55.8005 87.8457 57.6528 91.1964 59.3481 94.597C59.5682 95.0512 59.7853 95.5066 59.9987 95.9596H48.3207C47.1502 94.7739 46.0919 93.4205 45.2053 91.8891C42.6399 87.5197 41.6736 82.8613 41.627 78.7637C42.2616 79.0798 42.914 79.4071 43.5755 79.7417H43.5749Z" fill="#0033FF"/>
</g>
<path d="M49.0826 95.9594C47.9244 94.492 46.9287 92.8336 46.1794 90.9811C43.7801 85.1493 43.8917 79.2232 44.9948 74.64C46.088 70.0025 48.1715 66.7073 49.4849 64.8887C51.1293 66.4195 53.8609 68.9746 56.7494 71.7755C59.6423 74.619 62.6914 77.7084 65.0845 81.3019C67.5776 85.0489 68.4875 89.4232 69.2055 93.8C69.3159 94.5228 69.4207 95.2457 69.52 95.9594H49.0826Z" fill="#0033FF"/>
<g style="mix-blend-mode:color-burn">
<path d="M47.4897 83.3848C50.1576 84.682 52.8517 85.7469 55.541 86.5863C56.5888 88.6237 57.7538 90.5995 59.0304 92.5038C56.0248 91.9356 52.9848 91.1061 49.9491 90.0048C49.7952 89.9487 49.6364 90.0319 49.5953 90.1915C49.5542 90.3511 49.6468 90.5268 49.8013 90.5822C53.0375 91.7433 56.2774 92.5981 59.4749 93.1583C60.1322 94.111 60.8177 95.0447 61.5302 95.9586H62.2519C61.4462 94.9418 60.6742 93.9003 59.9391 92.8347C60.5504 89.6455 61.4235 86.606 62.5241 83.7496C62.5768 83.6134 62.5051 83.4772 62.3635 83.4439C62.2218 83.4107 62.063 83.4938 62.0097 83.6307C60.9618 86.3287 60.1144 89.1895 59.4982 92.1858C58.2339 90.2994 57.08 88.3421 56.0419 86.3244C56.9242 83.6504 57.9868 81.1107 59.2045 78.7245C59.2714 78.5932 59.2143 78.4472 59.0764 78.3966C58.9384 78.3461 58.7717 78.4102 58.7036 78.5421C57.5564 80.7742 56.5447 83.1407 55.6881 85.6255C54.6771 83.5937 53.7825 81.5027 53.0105 79.3623C53.685 77.9535 54.4085 76.5916 55.1774 75.2801C55.2534 75.1501 55.2068 74.9911 55.0719 74.9239C54.9376 74.8568 54.7654 74.9067 54.6887 75.0367C54.0063 76.1935 53.3588 77.389 52.7487 78.6216C52.154 76.9028 51.6377 75.1532 51.203 73.3783C51.1662 73.2286 51.0141 73.1367 50.8627 73.1737C50.7112 73.2101 50.6174 73.3629 50.6548 73.5145C51.0938 75.3066 51.6156 77.0729 52.2159 78.8089C50.9737 78.2136 49.7382 77.564 48.5125 76.8596C48.3745 76.7801 48.2022 76.8301 48.1293 76.973C48.0557 77.1154 48.1096 77.2966 48.2482 77.3761C49.648 78.1735 51.0607 78.9007 52.4808 79.5577C53.2607 81.7184 54.1639 83.8297 55.1847 85.8813C52.6843 85.0641 50.1821 84.0497 47.7043 82.8332C47.5584 82.7611 47.391 82.8258 47.3316 82.9786C47.2721 83.1315 47.3432 83.3139 47.4904 83.3854L47.4897 83.3848ZM64.9939 91.7408C64.7235 93.1182 64.5058 94.5252 64.3427 95.9586H64.897C65.054 94.5412 65.2649 93.149 65.5285 91.7864C65.5567 91.6404 65.4611 91.5128 65.3133 91.4999C65.1662 91.4869 65.0227 91.5942 64.9939 91.7408Z" fill="#0033FF"/>
</g>
<path d="M36.6627 91.8035C35.0023 92.3002 35.2561 93.8742 35.2561 93.8742C35.2561 93.8742 33.9783 93.049 32.7618 93.8914C31.8335 94.5342 32.0224 95.8463 33.5344 95.9584H44.0971C42.6948 93.6086 39.7805 90.8699 36.6627 91.8029V91.8035Z" fill="#0033FF"/>
<g style="mix-blend-mode:color-burn">
<path d="M36.6627 91.8035C35.0023 92.3002 35.2561 93.8742 35.2561 93.8742C35.2561 93.8742 33.9783 93.049 32.7618 93.8914C31.8335 94.5342 32.0224 95.8463 33.5344 95.9584H44.0971C42.6948 93.6086 39.7805 90.8699 36.6627 91.8029V91.8035Z" fill="#0033FF"/>
</g>
<path d="M50.1948 83.5274C45.0566 84.9522 48.0432 91.6715 48.0432 91.6715C48.0432 91.6715 45.0891 86.7524 40.8805 88.8921C38.0968 90.307 38.1458 94.3486 41.5666 95.9589H58.5581C59.3435 88.2518 55.4697 82.065 50.1954 83.5274H50.1948Z" fill="#0033FF"/>
<g style="mix-blend-mode:color-burn">
<path d="M50.1948 83.5274C45.0566 84.9522 48.0432 91.6715 48.0432 91.6715C48.0432 91.6715 45.0891 86.7524 40.8805 88.8921C38.0968 90.307 38.1458 94.3486 41.5666 95.9589H58.5581C59.3435 88.2518 55.4697 82.065 50.1954 83.5274H50.1948Z" fill="#0033FF"/>
</g>
<g style="mix-blend-mode:color-burn">
<path d="M47.2344 86.912C47.4226 85.4532 48.189 84.0851 50.1996 83.5274C55.4738 82.065 59.3471 88.2518 58.5623 95.9589H52.2469C49.6827 93.1179 48.0885 89.8602 47.2344 86.912Z" fill="#0033FF"/>
</g>
<path d="M78.8486 12.4634C79.013 12.4634 79.1681 12.3993 79.2846 12.2822C79.9216 11.6475 80.7659 11.2987 81.6618 11.2987C83.5239 11.2987 85.0384 12.8209 85.0384 14.6925C85.0384 16.5641 83.5239 18.0863 81.6618 18.0863C80.7659 18.0863 79.9216 17.7375 79.2852 17.1034C79.1681 16.9857 79.0136 16.9209 78.8486 16.9209C78.509 16.9209 78.2324 17.1989 78.2324 17.5403V28.3627H88.8975C89.4984 28.3627 89.9871 28.8539 89.9871 29.4578C89.9871 29.7506 89.8736 30.0254 89.6676 30.2325C89.1262 30.7816 88.8276 31.5106 88.8276 32.2853C88.8276 33.8944 90.1299 35.2027 91.7302 35.2027C93.3306 35.2027 94.6335 33.8938 94.6335 32.2853C94.6335 31.5112 94.3349 30.7816 93.7929 30.2319C93.5875 30.026 93.4746 29.7506 93.4746 29.4578C93.4746 28.8539 93.9633 28.3627 94.5648 28.3627H105.568C105.438 13.2184 93.2846 0.968678 78.2324 0.785645V11.8435C78.2324 12.1849 78.509 12.4628 78.8486 12.4628V12.4634Z" fill="#CCCCCC"/>
<g style="mix-blend-mode:color-burn">
<path d="M88.2702 4.09319C91.4139 5.43913 94.2362 7.36129 96.6593 9.80544C99.0825 12.2502 100.985 15.0943 102.313 18.2595C103.657 21.4617 104.352 24.8598 104.384 28.3627H105.568C105.438 13.2178 93.2846 0.968678 78.2324 0.785645V1.97567C81.7145 2.01943 85.0905 2.73122 88.2702 4.09257V4.09319Z" fill="#CCCCCC"/>
</g>
<g style="mix-blend-mode:color-burn">
<path d="M78.8486 12.4637C79.013 12.4637 79.1681 12.3996 79.2846 12.2825C79.9216 11.6478 80.7659 11.2989 81.6618 11.2989C83.5239 11.2989 85.0384 12.8211 85.0384 14.6928C85.0384 16.5644 83.5239 18.0866 81.6618 18.0866C80.7659 18.0866 79.9216 17.7378 79.2852 17.1036C79.1681 16.9859 79.0136 16.9212 78.8486 16.9212C78.509 16.9212 78.2324 17.1992 78.2324 17.5406V28.363H88.8975C89.4984 28.363 89.9871 28.8541 89.9871 29.4581C89.9871 29.7508 89.8736 30.0257 89.6676 30.2328C89.1262 30.7819 88.8276 31.5109 88.8276 32.2856C88.8276 33.8947 90.1299 35.203 91.7302 35.203C93.3306 35.203 94.6335 33.894 94.6335 32.2856C94.6335 31.5115 94.3349 30.7819 93.7929 30.2321C93.5875 30.0263 93.4746 29.7508 93.4746 29.4581C93.4746 28.8541 93.9633 28.363 94.5648 28.363H104.384C104.353 24.8601 103.657 21.4619 102.313 18.2598C100.985 15.0946 99.0825 12.2499 96.6593 9.80572C94.2362 7.36157 91.4139 5.43941 88.2702 4.09347C85.0905 2.7315 81.7145 2.02032 78.2324 1.97656V11.8444C78.2324 12.1858 78.509 12.4637 78.8486 12.4637Z" fill="#CCCCCC"/>
</g>
<path d="M101.171 23.4064C100.65 23.4064 100.173 23.0582 100.03 22.5289C99.9696 22.3076 99.9059 22.0845 99.839 21.8658C99.6484 21.2372 100 20.5722 100.626 20.3799C101.251 20.1883 101.913 20.542 102.104 21.1706C102.178 21.4128 102.248 21.6593 102.314 21.9033C102.486 22.5375 102.114 23.1914 101.483 23.3639C101.379 23.3923 101.274 23.4058 101.171 23.4058V23.4064ZM99.5864 19.1683C99.148 19.1683 98.7262 18.9224 98.5214 18.499C97.6998 16.8043 96.6697 15.2131 95.4606 13.7698C95.0393 13.2669 95.1031 12.5162 95.6034 12.0929C96.1037 11.6695 96.8506 11.7336 97.2718 12.2365C98.6066 13.8301 99.7434 15.5859 100.65 17.4563C100.937 18.0473 100.693 18.7597 100.105 19.0475C99.9378 19.1295 99.7606 19.1683 99.587 19.1683H99.5864ZM93.7106 11.4815C93.4347 11.4815 93.1582 11.3854 92.9338 11.1888C91.125 9.60559 89.0869 8.32312 86.8771 7.37714C85.9709 6.9895 85.034 6.65794 84.0916 6.39233C83.4619 6.21484 83.0946 5.55851 83.2706 4.9256C83.4472 4.29268 84.1008 3.92353 84.7299 4.1004C85.771 4.39313 86.8054 4.7592 87.8054 5.1869C90.2439 6.23087 92.4929 7.64645 94.4887 9.39297C94.9817 9.82436 95.0338 10.5762 94.604 11.0717C94.3698 11.3422 94.0411 11.4803 93.7106 11.4803V11.4815Z" fill="#CCCCCC"/>
<g style="mix-blend-mode:color-burn">
<path d="M88.9772 32.7887C88.9423 32.7887 88.9079 32.79 88.873 32.7912C89.1121 34.1593 90.3022 35.2027 91.7315 35.2027C93.1607 35.2027 94.3521 34.1581 94.59 32.7887H88.9772ZM79.2852 17.1033C79.1681 16.9856 79.0136 16.9209 78.8486 16.9209C78.509 16.9209 78.2324 17.1988 78.2324 17.5403V24.3452C79.6611 23.5705 80.6341 22.0514 80.6341 20.3086C80.6341 19.1734 80.2209 18.1331 79.5384 17.332C79.4507 17.2605 79.3661 17.184 79.2846 17.1033H79.2852Z" fill="#CCCCCC"/>
</g>
<path d="M99.9811 33.9778H88.9782C88.3773 33.9778 87.8887 34.469 87.8887 35.073C87.8887 35.3657 88.0021 35.6405 88.2069 35.847C88.7489 36.3967 89.0475 37.1264 89.0475 37.9004C89.0475 39.5095 87.7452 40.8179 86.1443 40.8179C84.5433 40.8179 83.2416 39.5089 83.2416 37.9004C83.2416 37.1264 83.5402 36.3967 84.0816 35.8476C84.2877 35.6405 84.4011 35.3657 84.4011 35.073C84.4011 34.469 83.9124 33.9778 83.3109 33.9778H72.6458V23.1554C72.6458 22.814 72.9224 22.5361 73.262 22.5361C73.4264 22.5361 73.5815 22.6008 73.6986 22.7185C74.3351 23.352 75.1787 23.7015 76.0752 23.7015C77.9367 23.7015 79.4518 22.1793 79.4518 20.3076C79.4518 18.436 77.9373 16.9138 76.0752 16.9138C75.1794 16.9138 74.3351 17.2626 73.698 17.8974C73.5815 18.0145 73.427 18.0786 73.262 18.0786C72.9224 18.0786 72.6458 17.8006 72.6458 17.4592V6.40139C72.5667 6.40016 72.4883 6.39954 72.4092 6.39893C72.3301 6.39893 72.251 6.40016 72.1725 6.40139C57.0394 6.58566 44.8359 18.9654 44.8359 34.2219C44.8359 52.0649 59.958 59.8644 59.958 66.9522V72.3009H84.8609V66.9522C84.8609 59.8953 99.8505 52.1327 99.9811 34.4542C99.9811 34.3766 99.983 34.2995 99.983 34.2219C99.983 34.1442 99.9824 34.0598 99.9811 33.9784V33.9778Z" fill="#0033FF"/>
<g style="mix-blend-mode:color-burn">
<path d="M72.1764 6.40237C57.0433 6.58663 44.8398 18.9664 44.8398 34.2229C44.8398 52.0658 59.9619 59.8654 59.9619 66.9532V72.3018H61.1459V66.9532C61.1459 63.7966 58.811 60.8552 55.8544 57.1322C51.4747 51.616 46.0238 44.7513 46.0238 34.2229C46.0238 30.6337 46.721 27.1523 48.0957 23.8762C49.4237 20.711 51.3257 17.8663 53.7495 15.4215C56.1726 12.9774 58.995 11.0559 62.1386 9.7093C65.3183 8.34795 68.6943 7.63615 72.1764 7.59239C72.2555 7.59116 72.334 7.59054 72.4131 7.58993C72.4922 7.58993 72.5706 7.59116 72.6497 7.59239V6.40237C72.5706 6.40113 72.4922 6.40052 72.4131 6.3999C72.334 6.3999 72.2549 6.40113 72.1764 6.40237Z" fill="url(#paint2_linear_190_3781)"/>
<path d="M99.9864 33.9785H98.8025C98.8031 34.0599 98.8037 34.1406 98.8037 34.2219C98.8037 34.3033 98.8025 34.3766 98.8018 34.4543C98.7221 44.8508 93.3203 51.6557 88.9731 57.1313C86.0165 60.8549 83.6816 63.7957 83.6816 66.9523V72.3009H84.8656V66.9523C84.8656 59.8953 99.8552 52.1327 99.9858 34.4543C99.9858 34.3766 99.9877 34.2996 99.9877 34.2219C99.9877 34.1443 99.9871 34.0599 99.9858 33.9785H99.9864Z" fill="url(#paint3_linear_190_3781)"/>
</g>
<path d="M72.4073 92.728H64.4922L64.727 94.1294C64.8969 95.1574 65.8816 95.961 66.919 95.961H77.895C78.9324 95.961 79.9171 95.158 80.087 94.1294L80.3218 92.728H72.4067H72.4073Z" fill="url(#paint4_linear_190_3781)"/>
<path d="M59.3527 72.3013H85.4685C86.1386 72.3013 86.6825 72.8479 86.6825 73.5215V73.8494C86.6825 74.5229 86.1386 75.0696 85.4685 75.0696H59.3527C58.6825 75.0696 58.1387 74.5229 58.1387 73.8494V73.5215C58.1387 72.8479 58.6825 72.3013 59.3527 72.3013Z" fill="url(#paint5_linear_190_3781)"/>
<path d="M59.4961 75.0703L61.8218 91.0207C61.9616 91.9723 62.8997 92.7278 63.912 92.7278H80.9011C81.9103 92.7278 82.8539 91.9723 82.9919 91.0207L85.3182 75.0703H59.4961Z" fill="#0033FF"/>
<g style="mix-blend-mode:color-burn">
<path d="M83.6927 86.215L85.3182 75.0703H59.4961L61.1209 86.215H83.6927Z" fill="#0033FF"/>
</g>
<path style="mix-blend-mode:color-burn" d="M60.4828 81.8247L71.3306 92.7278H73.8671L60.0468 78.837L60.4821 81.8247H60.4828ZM65.2212 75.0703L82.2863 92.2218C82.6597 91.9149 82.9258 91.4916 82.9938 91.0207L83.0748 90.4648L67.7578 75.0703H65.2212ZM61.4663 88.5717L65.6013 92.7278H68.1379L61.0303 85.584L61.4656 88.5717H61.4663ZM59.498 75.0703L59.4993 75.0777L77.0604 92.7284H79.597L62.0291 75.0709H59.498V75.0703ZM70.9504 75.0703L83.4825 87.6663L83.8069 85.4428L73.487 75.0703H70.9504ZM84.9461 75.0703H82.4095L84.9485 77.6217L85.2729 75.3982L84.9467 75.0703H84.9461ZM76.6797 75.0703L84.2152 82.6443L84.5396 80.4208L79.2162 75.0709H76.679L76.6797 75.0703Z" fill="url(#paint6_linear_190_3781)"/>
<path style="mix-blend-mode:color-burn" d="M53.7452 15.4215C51.322 17.8662 49.4194 20.7103 48.0914 23.8761C46.7167 27.1529 46.0195 30.6336 46.0195 34.2228C46.0195 44.7512 51.4704 51.6159 55.8501 57.1322C58.8061 60.8557 61.1416 63.7966 61.1416 66.9531V72.3018H67.251V66.9531C67.251 63.7966 66.1816 60.8551 64.8284 57.1322C62.8234 51.6159 60.3279 44.7512 60.3279 34.2228C60.3279 30.6336 60.6468 27.1522 61.2765 23.8761C61.8847 20.7109 62.7554 17.8662 63.8646 15.4215C64.9737 12.9773 66.2656 11.0558 67.7053 9.70921C69.194 8.31705 70.7766 7.6034 72.4094 7.58984C68.8433 7.60402 65.3864 8.31705 62.1349 9.70921C58.9913 11.0552 56.1683 12.9773 53.7458 15.4215H53.7452Z" fill="url(#paint7_linear_190_3781)"/>
<path style="mix-blend-mode:color-burn" d="M69.1642 94.1306L69.0648 92.7292H68.8196C68.3916 92.7292 67.9955 91.9736 67.936 91.0221L67.7012 87.2049L67.6012 85.5859L67.3695 81.826L67.1855 78.8383L66.9538 75.0784V75.071H66.8912C66.6092 75.071 66.378 74.5219 66.378 73.8508V73.523C66.378 72.8518 66.6086 72.3027 66.8912 72.3027H59.3507C58.683 72.3027 58.1367 72.8518 58.1367 73.523V73.8508C58.1367 74.5219 58.683 75.071 59.3507 75.071H59.4979L59.4991 75.0784L60.0473 78.8383L60.4826 81.826L61.0308 85.5859L61.2668 87.2049L61.8236 91.0221C61.9634 91.9736 62.9015 92.7292 63.9138 92.7292H64.4938L64.7287 94.1306C64.8985 95.1585 65.8832 95.9621 66.9207 95.9621H70.0894C69.651 95.9621 69.2347 95.1591 69.1629 94.1306H69.1642Z" fill="url(#paint8_linear_190_3781)"/>
<path d="M78.6717 44.7725C76.0481 44.7725 73.9143 46.9177 73.9143 49.5541V53.1988H70.8976V49.5541C70.8976 46.9171 68.7633 44.7725 66.1402 44.7725C63.5172 44.7725 61.3828 46.9177 61.3828 49.5541C61.3828 52.1906 63.5172 54.3358 66.1402 54.3358H69.767V72.3014H70.8982V54.3358H73.9149V72.3014H75.0462V54.3358H78.6729C81.296 54.3358 83.4303 52.1906 83.4303 49.5541C83.4303 46.9177 81.296 44.7725 78.6729 44.7725H78.6717ZM68.2182 53.1994H66.1396C64.1401 53.1994 62.5135 51.5644 62.5135 49.5548C62.5135 47.5451 64.1401 45.9095 66.1396 45.9095C68.1391 45.9095 69.7664 47.5445 69.7664 49.5548V53.1994H68.2182ZM78.6717 53.1994H75.045V49.5548C75.045 47.5451 76.6716 45.9095 78.6717 45.9095C80.6718 45.9095 82.2979 47.5445 82.2979 49.5548C82.2979 51.565 80.6712 53.1994 78.6717 53.1994Z" fill="url(#paint9_linear_190_3781)"/>
<path d="M72.4111 6.3999C72.332 6.3999 72.2529 6.40113 72.1744 6.40237V17.4602C72.1744 18.0641 72.6631 18.5559 73.264 18.5559C73.5553 18.5559 73.8287 18.4419 74.0335 18.2361C74.5804 17.6913 75.3064 17.3912 76.0765 17.3912C77.6768 17.3912 78.9791 18.7001 78.9791 20.3086C78.9791 21.9171 77.6768 23.226 76.0765 23.226C75.3064 23.226 74.5804 22.9259 74.0341 22.3818C73.8281 22.1747 73.5546 22.0607 73.2634 22.0607C72.6625 22.0607 72.1738 22.5518 72.1738 23.1564V34.2167H72.6472V23.1564C72.6472 22.815 72.9237 22.5371 73.2634 22.5371C73.4277 22.5371 73.5828 22.6018 73.7 22.7195C74.3364 23.353 75.1801 23.7024 76.0765 23.7024C77.938 23.7024 79.4531 22.1802 79.4531 20.3086C79.4531 18.437 77.9386 16.9148 76.0765 16.9148C75.1807 16.9148 74.3364 17.2636 73.6993 17.8984C73.5828 18.0154 73.4283 18.0795 73.2634 18.0795C72.9237 18.0795 72.6472 17.8016 72.6472 17.4602V6.40237C72.5681 6.40113 72.4896 6.40052 72.4105 6.3999H72.4111Z" fill="url(#paint10_linear_190_3781)"/>
<path d="M60.8918 33.3595C60.8918 33.1943 60.9562 33.0384 61.0733 32.9207C61.7036 32.281 62.0513 31.433 62.0513 30.532C62.0513 28.6604 60.5368 27.1382 58.6747 27.1382C56.8125 27.1382 55.2981 28.6604 55.2981 30.532C55.2981 31.4324 55.6451 32.281 56.2766 32.9213C56.3931 33.0384 56.4569 33.1937 56.4569 33.3595C56.4569 33.7009 56.1804 33.9788 55.8407 33.9788H44.8378C44.8372 34.0602 44.8359 34.1409 44.8359 34.2223C44.8359 34.3036 44.8372 34.3776 44.8378 34.4546H55.8407C56.4416 34.4546 56.9309 33.9634 56.9309 33.3595C56.9309 33.0667 56.8174 32.7919 56.6127 32.5854C56.0706 32.0357 55.772 31.306 55.772 30.532C55.772 28.9229 57.0744 27.6146 58.6747 27.6146C60.275 27.6146 61.5773 28.9235 61.5773 30.532C61.5773 31.306 61.2787 32.0357 60.7373 32.5848C60.5313 32.7919 60.4178 33.0667 60.4178 33.3595C60.4178 33.9634 60.9065 34.4546 61.508 34.4546H72.5122V33.9788H61.508C61.1683 33.9788 60.8918 33.7009 60.8918 33.3595Z" fill="#0033FF"/>
<path d="M87.8905 35.0741C87.8905 35.3669 88.0039 35.6417 88.2087 35.8482C88.7507 36.3979 89.0493 37.1276 89.0493 37.9016C89.0493 39.5107 87.747 40.819 86.1461 40.819C84.5452 40.819 83.2435 39.5101 83.2435 37.9016C83.2435 37.1276 83.5421 36.3979 84.0835 35.8488C84.2895 35.6417 84.4029 35.3669 84.4029 35.0741C84.4029 34.4702 83.9142 33.979 83.3127 33.979H72.3086V34.4548H83.3127C83.6524 34.4548 83.929 34.7327 83.929 35.0741C83.929 35.2393 83.8652 35.3952 83.7475 35.5129C83.1172 36.1526 82.7695 37.0012 82.7695 37.9016C82.7695 39.7732 84.284 41.2954 86.1461 41.2954C88.0082 41.2954 89.5227 39.7732 89.5227 37.9016C89.5227 37.0012 89.1757 36.1526 88.5441 35.5123C88.4276 35.3952 88.3639 35.2399 88.3639 35.0741C88.3639 34.7327 88.6404 34.4548 88.9801 34.4548H99.983C99.983 34.3771 99.9848 34.3001 99.9848 34.2224C99.9848 34.1448 99.9842 34.0604 99.983 33.979H88.9801C88.3792 33.979 87.8905 34.4702 87.8905 35.0741Z" fill="url(#paint11_linear_190_3781)"/>
<path d="M72.6472 34.1558H72.1738V51.2611H72.6472V34.1558Z" fill="#0033FF"/>
<path d="M88.9802 34.4552H99.9831C99.9831 34.3775 99.9849 34.3005 99.9849 34.2229C99.9849 34.1452 99.9843 34.0608 99.9831 33.9794H88.9802C88.3793 33.9794 87.8906 34.4706 87.8906 35.0745C87.8906 35.3673 88.0041 35.6421 88.2088 35.8486C88.7509 36.3983 89.0495 37.128 89.0495 37.902C89.0495 39.5111 87.7471 40.8195 86.1462 40.8195C84.5453 40.8195 83.2436 39.5105 83.2436 37.902C83.2436 37.128 83.5422 36.3983 84.0836 35.8492C84.2896 35.6421 84.403 35.3673 84.403 35.0745C84.403 34.4706 83.9144 33.9794 83.3129 33.9794H72.6478V23.157C72.6478 22.8156 72.9243 22.5377 73.264 22.5377C73.4283 22.5377 73.5835 22.6024 73.7006 22.7201C74.337 23.3536 75.1807 23.703 76.0771 23.703C77.9386 23.703 79.4537 22.1808 79.4537 20.3092C79.4537 18.4376 77.9393 16.9154 76.0771 16.9154C75.1813 16.9154 74.337 17.2642 73.7 17.899C73.5835 18.0161 73.4289 18.0802 73.264 18.0802C72.9243 18.0802 72.6478 17.8022 72.6478 17.4608V6.40237C72.5687 6.40113 72.4902 6.40052 72.4111 6.3999C72.332 6.3999 72.2529 6.40113 72.1744 6.40237V17.4602C72.1744 18.0641 72.6631 18.5559 73.264 18.5559C73.5552 18.5559 73.8287 18.4419 74.0335 18.2361C74.5804 17.6913 75.3064 17.3912 76.0765 17.3912C77.6768 17.3912 78.9791 18.7001 78.9791 20.3086C78.9791 21.9171 77.6768 23.226 76.0765 23.226C75.3064 23.226 74.5804 22.9259 74.0341 22.3818C73.8281 22.1747 73.5546 22.0607 73.2634 22.0607C72.6625 22.0607 72.1738 22.5518 72.1738 23.1564V34.4546H83.3123C83.6519 34.4546 83.9285 34.7325 83.9285 35.0739C83.9285 35.2391 83.8647 35.395 83.747 35.5127C83.1167 36.1524 82.769 37.001 82.769 37.9014C82.769 39.773 84.2835 41.2952 86.1456 41.2952C88.0077 41.2952 89.5222 39.773 89.5222 37.9014C89.5222 37.001 89.1752 36.1524 88.5436 35.5121C88.4271 35.395 88.3634 35.2397 88.3634 35.0739C88.3634 34.7325 88.6399 34.4546 88.9796 34.4546L88.9802 34.4552Z" fill="#0033FF"/>
<path d="M86.8203 96.0845H88.2759L90.5691 87.999H104.954L102.66 96.0845H104.116L119.725 41.0493H102.43L86.8203 96.0845ZM115.04 52.435H100.655L103.486 42.4557H117.87L115.04 52.435ZM111.811 63.8207H97.4265L100.257 53.8419H114.641L111.811 63.8207ZM108.582 75.2063H94.1971L97.0274 65.2276H111.412L108.582 75.2063ZM90.9676 86.592L93.7979 76.6127H108.182L105.352 86.592H90.9676Z" fill="black"/>
<path d="M120.358 41.0493H103.062L118.672 96.0845H120.128L117.834 87.999H132.218L134.511 96.0845H135.967L120.358 41.0493ZM104.917 42.4563H119.302L122.132 52.4356H107.748L104.917 42.4563ZM108.147 53.8419H122.531L125.361 63.8207H110.977L108.147 53.8419ZM111.376 65.2276H125.76L128.59 75.2063H114.206L111.376 65.2276ZM117.436 86.592L114.606 76.6127H128.99L131.82 86.592H117.436Z" fill="black"/>
<path d="M126.283 65.0585C126.283 65.0585 124.301 64.9279 123.722 64.7812C123.307 64.6771 123.497 64.1089 123.609 63.7594C123.721 63.41 125.014 62.9712 126.167 62.9688C127.05 62.9669 126.434 64.9741 126.283 65.0585Z" fill="#0033FF"/>
<path d="M130.991 65.2456C129.34 65.2764 125.197 65.354 125.197 65.354C125.197 65.354 124.854 64.9263 124.765 63.8534C124.632 62.2425 125.036 61.6718 125.036 61.6718C125.036 61.6718 128.697 60.9095 131.202 60.6365C133.184 60.4208 133.694 61.034 133.381 63.1336C133.192 64.4007 132.189 65.2234 130.991 65.2456Z" fill="#0033FF"/>
<path d="M127.205 56.9448C127.411 56.9251 128.032 56.9251 128.032 57.0668C128.032 57.4717 127.096 57.8896 126.501 57.7657C126.19 57.701 126.474 57.4458 126.474 57.4458C126.474 57.4458 126.775 56.9849 127.205 56.9442V56.9448Z" fill="#0033FF"/>
<path d="M122.966 63.7392C123.184 61.7579 125.338 58.2568 125.796 57.2332C125.77 56.6502 125.887 56.3624 126.033 55.6192C126.082 55.377 127.662 55.7141 127.72 56.0327C127.769 56.2946 127.741 57.4483 126.586 57.6578C126.172 57.9968 125.234 62.0179 124.881 63.3423C124.722 63.9401 124.422 64.8177 123.979 64.8109C123.273 64.801 122.885 64.475 122.966 63.7398L122.966 63.7392Z" fill="#0033FF"/>
<path d="M129.692 68.7715C129.761 68.7715 129.84 68.7475 129.84 68.6778V68.5891C129.84 68.5188 129.761 68.4634 129.692 68.4634H126.026C125.957 68.4634 125.932 68.5188 125.932 68.5891V68.6778C125.932 68.7475 125.957 68.7715 126.026 68.7715H129.692Z" fill="url(#paint12_linear_190_3781)"/>
<path d="M126.273 68.4482C126.319 68.6349 126.198 68.7711 126.008 68.7711H119.139C118.947 68.7711 118.754 68.6349 118.71 68.4482L117.523 63.5445C117.478 63.3577 117.598 63.2246 117.789 63.2246H124.658C124.85 63.2246 125.043 63.3577 125.088 63.5445L126.275 68.4482H126.273Z" fill="url(#paint13_linear_190_3781)"/>
<path style="mix-blend-mode:color-burn" d="M126.273 68.4482L125.086 63.5445C125.042 63.3577 124.848 63.2246 124.657 63.2246H124.326C124.517 63.2246 124.711 63.3657 124.755 63.5531L125.942 68.4543C125.987 68.6411 125.867 68.7717 125.676 68.7717H126.006C126.197 68.7717 126.317 68.6355 126.272 68.4488L126.273 68.4482Z" fill="url(#paint14_linear_190_3781)"/>
<path d="M120.914 66.0732C120.789 65.5081 121.072 65.0508 121.545 65.0508C122.019 65.0508 122.503 65.5087 122.628 66.0732C122.753 66.6377 122.471 67.0956 121.998 67.0956C121.525 67.0956 121.04 66.6377 120.915 66.0732H120.914Z" fill="#0033FF"/>
<g style="mix-blend-mode:color-burn">
<path d="M122.211 66.0733C122.105 65.5945 121.74 65.1939 121.344 65.0823C121.406 65.0626 121.473 65.0503 121.545 65.0503C122.018 65.0503 122.503 65.5082 122.628 66.0727C122.753 66.6372 122.471 67.0951 121.998 67.0951C121.926 67.0951 121.854 67.0834 121.782 67.0637C122.13 66.9521 122.317 66.5515 122.211 66.0727L122.211 66.0733Z" fill="#0033FF"/>
</g>
<path d="M130.25 71.8048C130.25 71.8048 126.896 79.2703 126.286 80.7932C125.676 82.316 128.366 83.97 130.048 82.4238C131.73 80.8788 134.019 78.7021 134.944 76.7559C135.868 74.8091 136.101 73.0996 135.242 71.2822C134.384 69.4648 131.152 69.7927 130.25 71.8054L130.25 71.8048Z" fill="url(#paint15_linear_190_3781)"/>
<path d="M127.1 95.4601C127.1 95.4601 129.519 94.8241 129.696 94.7674C129.891 94.7045 130.198 94.5923 130.238 95.2364C130.277 95.8804 130.301 96.0813 130.301 96.0813C130.301 96.0813 127.497 96.0991 127.195 96.0665C126.893 96.0332 126.654 95.8058 127.1 95.4607V95.4601Z" fill="#0F1B29"/>
<path d="M130.482 82.162C130.52 80.7174 130.046 79.6402 128.413 79.732C126.779 79.8245 126.057 80.6583 126.22 81.5241C126.591 83.4999 126.729 83.4833 127.249 85.859C127.459 86.821 127.824 88.5164 128.183 90.1933H130.043C130.226 87.5846 130.454 83.2435 130.482 82.162H130.482Z" fill="url(#paint16_linear_190_3781)"/>
<path d="M129.884 92.0488C129.926 91.7536 129.983 91.072 130.044 90.1938H128.184C128.712 92.6589 129.228 95.0846 129.228 95.0846C129.228 95.0846 129.418 95.2393 129.616 95.1894C129.913 95.1148 129.929 94.9398 129.929 94.9398C129.929 94.9398 129.72 93.2204 129.884 92.0488Z" fill="#F4AA74"/>
<path d="M133.07 72.5756C133.07 72.5756 135.423 81.3261 135.873 82.868C136.323 84.4099 139.39 84.0407 139.75 81.8265C140.11 79.6122 140.941 75.1306 139.315 70.6263C138.435 68.1902 132.547 70.4784 133.07 72.575V72.5756Z" fill="#1A1A2E"/>
<path d="M137.634 95.2565C137.638 95.1936 137.645 95.14 137.654 95.0913C137.732 94.6495 137.992 94.7413 138.165 94.7961C138.197 94.8066 138.302 94.8356 138.453 94.8756C138.605 94.835 138.71 94.8048 138.742 94.7949C138.913 94.7394 139.175 94.6458 139.254 95.0876C139.263 95.1363 139.27 95.1899 139.274 95.2528C139.313 95.8832 139.338 96.0804 139.338 96.0804C139.338 96.0804 138.953 96.0835 138.456 96.0854C137.959 96.0854 137.574 96.0841 137.574 96.0841C137.574 96.0841 137.598 95.8869 137.635 95.2559L137.634 95.2565Z" fill="#101B29"/>
<path d="M139.714 84.5682C139.82 83.1569 139.666 80.2327 138.063 80.2432C136.46 80.2537 135.478 81.3864 135.517 81.6705C135.699 83.0152 136.474 86.9945 137.135 90.3051H139.175C139.394 88.2936 139.642 85.5339 139.715 84.5682H139.714Z" fill="#1A1A2E"/>
<path d="M139.179 90.3048H137.139C137.68 93.017 138.145 95.2812 138.145 95.2812C138.145 95.2812 138.2 95.3805 138.492 95.317C138.776 95.2547 138.81 95.0748 138.81 95.0748C138.81 95.0748 138.695 93.5002 138.914 92.3619C138.982 92.002 139.077 91.2329 139.179 90.3042V90.3048Z" fill="#F4AA74"/>
<path d="M128.094 90.6509C128.051 90.6509 128.011 90.6164 128.003 90.5744L127.869 89.8509C127.861 89.809 127.889 89.7758 127.931 89.7764L130.351 89.8097C130.393 89.8097 130.417 89.8442 130.406 89.8848L130.202 90.5923C130.191 90.633 130.146 90.6663 130.104 90.6657L128.094 90.6509Z" fill="#0033FF"/>
<path d="M137.111 90.6509C137.069 90.6509 137.028 90.6164 137.02 90.5744L136.886 89.8509C136.878 89.809 136.906 89.7758 136.949 89.7764L139.471 89.8097C139.513 89.8097 139.537 89.8442 139.526 89.8848L139.322 90.5923C139.31 90.633 139.266 90.6663 139.224 90.6657L137.111 90.6509H137.111Z" fill="#0033FF"/>
<path d="M132.375 60.2149C129.839 60.6093 129.721 62.9062 129.773 64.8296C129.943 71.0848 128.992 73.8981 128.992 73.8981C128.992 73.8981 129.959 75.1269 134.049 75.3136C139.327 75.554 140.318 73.5992 140.318 73.5992C140.318 73.5992 139.23 66.2735 137.919 62.81C137.462 61.6021 136.172 60.067 134.072 60.0596C133.472 60.0578 133 60.1163 132.375 60.2143V60.2149Z" fill="#0033FF"/>
<path d="M131.698 57.121C130.945 56.366 130.814 54.0236 131.988 53.6372C133.44 53.1602 133.459 54.675 134.292 54.7477C136.105 54.9061 136.492 56.1232 136.141 57.5345C135.923 58.4084 134.964 59.2126 134.034 59.4018C133.665 59.477 134.112 58.1002 133.234 57.5579C132.356 57.015 131.698 57.1204 131.698 57.1204L131.698 57.121Z" fill="#1A1A2E"/>
<path d="M131.385 60.5506C131.308 61.3197 130.923 63.036 132.709 62.7901C134.807 62.5023 135.073 60.2726 134.934 60.0348C134.619 59.4937 133.806 59.8739 133.278 59.954C132.749 60.0341 131.45 59.8979 131.385 60.5506Z" fill="#1A1A2E"/>
<path d="M134.377 60.0396C134.274 60.0396 134.171 60.0426 134.063 60.0482C133.464 60.0815 132.997 60.1684 132.379 60.3027C132.184 60.3446 132.006 60.3976 131.843 60.4611C131.819 60.9584 131.451 62.3623 132.798 62.2156C134.183 62.0646 134.448 60.5092 134.377 60.0402V60.0396Z" fill="#F4AA74"/>
<path d="M134.151 60.2168C133.977 58.8924 134.052 58.1436 133.816 56.9536C133.823 56.9123 132.094 56.8993 131.811 55.9663C131.811 55.9663 131.496 57.0577 131.487 58.0086C131.478 58.9059 131.652 59.4242 132.574 59.1605C132.498 59.5863 132.338 60.0818 132.205 60.4368C131.939 61.1529 132.379 61.4906 132.732 61.5676C133.085 61.644 134.335 61.6231 134.151 60.2168Z" fill="#F4AA74"/>
<path d="M134.66 57.4488C134.749 57.6799 134.547 57.9738 134.207 58.107C133.868 58.2388 133.52 58.16 133.431 57.9295C133.342 57.6984 133.545 57.4044 133.885 57.2719C134.224 57.1388 134.572 57.2189 134.66 57.4494V57.4488Z" fill="#F4AA74"/>
<path d="M132.037 62.7327L132.308 63.4914L132.905 63.5093L133.374 62.5084C133.374 62.5084 132.42 62.1762 132.037 62.7334V62.7327Z" fill="#1A1A2E"/>
<path d="M132.308 63.492L131.402 71.5553L132.737 74.8289L134.033 71.6329L132.906 63.5098C132.906 63.5098 132.695 63.1253 132.308 63.492Z" fill="#1A1A2E"/>
<path d="M122.983 68.0237C122.85 67.8105 122.382 67.1843 122.213 67.2922C121.814 67.5467 122.268 67.7648 122.264 68.3645C122.262 68.7521 123.278 69.014 123.278 69.014C123.278 69.014 123.263 68.4674 122.983 68.0237Z" fill="#0033FF"/>
<path d="M130.791 68.9282C128.882 68.3865 124.078 69.0212 123.221 68.6484C122.665 68.4062 122.744 67.7911 121.592 67.711C121.033 67.6722 120.164 68.1948 120.569 68.5837C121.496 69.4742 122.411 70.1515 123.07 69.5358C123.591 69.4144 128.351 70.3931 129.705 70.5625C130.315 70.6396 131.238 70.6895 131.398 70.2747C131.654 69.6135 131.5 69.1297 130.791 68.9282Z" fill="#0033FF"/>
<path d="M131.54 67.6161C131.54 67.6161 130.395 69.2474 130.144 69.7922C129.964 70.1823 130.523 70.39 130.864 70.5225C131.205 70.655 132.358 69.9204 133.084 69.0206C133.64 68.3316 131.7 67.5508 131.54 67.6161H131.54Z" fill="#0033FF"/>
<path d="M135.969 62.5753C134.423 63.7339 130.627 68.2801 130.627 68.2801C130.627 68.2801 130.743 68.8169 131.517 69.5614C132.679 70.6787 133.374 70.7224 133.374 70.7224C133.374 70.7224 135.085 69.3617 136.528 68.0287C137.234 67.3767 138.585 66.5176 138.087 64.5529C137.551 62.4397 136.861 61.9079 135.969 62.5759V62.5753Z" fill="#0033FF"/>
<path d="M130.624 56.8771L124.486 53.7261L123.799 55.3537L130.318 57.6006L130.624 56.8771Z" fill="black"/>
<g style="mix-blend-mode:color-burn">
<path d="M130.624 56.8771L124.486 53.7261L123.799 55.3537L130.318 57.6012L130.624 56.8771Z" fill="black"/>
</g>
<path d="M119.934 50.9939C119.86 50.9563 119.773 50.9877 119.741 51.0642L118.598 53.7733C118.565 53.8497 118.603 53.9348 118.681 53.9613L123.786 55.7207C123.865 55.7478 123.955 55.7072 123.987 55.6308L124.815 53.6685C124.848 53.5921 124.814 53.4984 124.741 53.4609L119.934 50.9933L119.934 50.9939Z" fill="black"/>
<path d="M118.72 54.1775C118.693 54.2409 118.62 54.2711 118.556 54.244L118.288 54.1294C118.224 54.1023 118.194 54.0283 118.221 53.9642L119.615 50.661C119.642 50.5975 119.716 50.5673 119.78 50.5944L120.049 50.7091C120.112 50.7362 120.142 50.8101 120.115 50.8742L118.721 54.1775H118.72Z" fill="black"/>
<path d="M130.439 57.7543C130.412 57.8178 130.338 57.848 130.275 57.8208L130.006 57.7062C129.943 57.6791 129.913 57.6051 129.94 57.5411L130.317 56.6468C130.344 56.5834 130.418 56.5532 130.481 56.5803L130.75 56.6949C130.813 56.722 130.843 56.7966 130.816 56.8601L130.439 57.7543H130.439Z" fill="black"/>
<g style="mix-blend-mode:color-burn">
<path d="M130.416 57.4827L130.146 57.3681C130.083 57.3409 130.04 57.2984 130.051 57.2725L130.061 57.2479L124.263 54.9683L124.232 55.0428C124.219 55.0737 124.145 55.0737 124.069 55.0428L119.166 53.1151L119.137 53.1854C119.126 53.2107 119.066 53.2094 119.002 53.1823L118.733 53.0677C118.67 53.0406 118.627 52.9974 118.637 52.9722L118.219 53.9631C118.192 54.0272 118.222 54.1012 118.286 54.1283L118.554 54.2429C118.618 54.27 118.692 54.2398 118.719 54.1764L118.793 54.0007L123.783 55.7208C123.862 55.7479 123.952 55.7072 123.984 55.6308L124.063 55.4453L129.964 57.4796L129.939 57.5406C129.912 57.6041 129.942 57.6787 130.005 57.7058L130.274 57.8204C130.337 57.8475 130.411 57.8173 130.438 57.7538L130.552 57.4858C130.541 57.511 130.48 57.5098 130.417 57.4833L130.416 57.4827Z" fill="black"/>
</g>
<path d="M104.707 15.8462C104.538 15.6552 103.969 15.1024 103.822 15.2318C103.473 15.5363 103.957 15.6891 104.057 16.2795C104.122 16.6603 105.168 16.7805 105.168 16.7805C105.168 16.7805 105.06 16.245 104.707 15.8469L104.707 15.8462Z" fill="#F4AA74"/>
<path d="M112.558 15.6742C110.584 15.4012 105.96 16.6782 105.051 16.428C104.461 16.2653 104.433 15.6502 103.283 15.7285C102.727 15.7661 102.274 17.2229 102.741 17.5502C103.808 18.2996 104.513 18.0161 105.057 17.3215C105.548 17.1317 110.408 17.4467 111.771 17.4288C112.386 17.4208 113.302 17.3456 113.389 16.9154C113.527 16.2314 113.291 15.7759 112.558 15.6749V15.6742Z" fill="#F4AA74"/>
<path d="M112.375 14.3478C112.375 14.3478 112.021 16.278 112.021 16.8715C112.021 17.2967 112.618 17.2696 112.984 17.2591C113.35 17.248 114.089 16.1325 114.371 15.0313C114.587 14.1876 112.494 14.227 112.375 14.3478Z" fill="#0033FF"/>
<path d="M114.199 8.16487C113.262 9.80909 111.814 15.297 111.814 15.297C111.814 15.297 112.145 15.7426 113.161 16.1247C114.687 16.6978 115.338 16.471 115.338 16.471C115.338 16.471 116.772 13.3114 117.53 11.5396C117.9 10.6737 117.901 9.77951 116.955 8.22588C116.062 6.75791 114.647 7.3785 114.198 8.16487H114.199Z" fill="#0033FF"/>
</g>
<defs>
<linearGradient id="paint0_linear_190_3781" x1="111.052" y1="13.3909" x2="108.265" y2="39.8477" gradientUnits="userSpaceOnUse">
<stop stop-color="#060607"/>
<stop offset="1" stop-color="#1A1A2E"/>
</linearGradient>
<linearGradient id="paint1_linear_190_3781" x1="112.248" y1="13.5166" x2="109.461" y2="39.9741" gradientUnits="userSpaceOnUse">
<stop stop-color="#060607"/>
<stop offset="1" stop-color="#1A1A2E"/>
</linearGradient>
<linearGradient id="paint2_linear_190_3781" x1="58.7448" y1="95.7344" x2="58.7448" y2="-19.0109" gradientUnits="userSpaceOnUse">
<stop stop-color="white"/>
<stop offset="1" stop-color="#A3A3A3"/>
</linearGradient>
<linearGradient id="paint3_linear_190_3781" x1="91.8347" y1="95.7342" x2="91.8347" y2="-19.0112" gradientUnits="userSpaceOnUse">
<stop stop-color="white"/>
<stop offset="1" stop-color="#A3A3A3"/>
</linearGradient>
<linearGradient id="paint4_linear_190_3781" x1="64.4922" y1="94.3445" x2="80.3224" y2="94.3445" gradientUnits="userSpaceOnUse">
<stop stop-color="#0F1E2D"/>
<stop offset="1" stop-color="#082947"/>
</linearGradient>
<linearGradient id="paint5_linear_190_3781" x1="72.4109" y1="75.8923" x2="72.4109" y2="74.1125" gradientUnits="userSpaceOnUse">
<stop stop-color="#0F1E2D"/>
<stop offset="1" stop-color="#082947"/>
</linearGradient>
<linearGradient id="paint6_linear_190_3781" x1="72.3852" y1="75.7593" x2="72.3852" y2="110.746" gradientUnits="userSpaceOnUse">
<stop stop-color="white"/>
<stop offset="1" stop-color="#949494"/>
</linearGradient>
<linearGradient id="paint7_linear_190_3781" x1="59.2145" y1="1.63602" x2="59.2145" y2="109.859" gradientUnits="userSpaceOnUse">
<stop stop-color="white"/>
<stop offset="1" stop-color="#5E5E5E"/>
</linearGradient>
<linearGradient id="paint8_linear_190_3781" x1="64.1137" y1="74.2243" x2="64.1137" y2="95.516" gradientUnits="userSpaceOnUse">
<stop stop-color="white"/>
<stop offset="1" stop-color="#949494"/>
</linearGradient>
<linearGradient id="paint9_linear_190_3781" x1="72.406" y1="45.1231" x2="72.406" y2="74.5595" gradientUnits="userSpaceOnUse">
<stop stop-color="white"/>
<stop offset="1" stop-color="white"/>
</linearGradient>
<linearGradient id="paint10_linear_190_3781" x1="75.8141" y1="33.0747" x2="75.8141" y2="7.55665" gradientUnits="userSpaceOnUse">
<stop stop-color="#FC2E06"/>
<stop offset="1" stop-color="#FC6A06"/>
</linearGradient>
<linearGradient id="paint11_linear_190_3781" x1="74.0113" y1="37.6366" x2="99.0718" y2="37.6366" gradientUnits="userSpaceOnUse">
<stop stop-color="#FC2E06"/>
<stop offset="1" stop-color="#FC6A06"/>
</linearGradient>
<linearGradient id="paint12_linear_190_3781" x1="127.886" y1="73.3868" x2="127.886" y2="64.7602" gradientUnits="userSpaceOnUse">
<stop stop-color="#0F1E2D"/>
<stop offset="1" stop-color="#082947"/>
</linearGradient>
<linearGradient id="paint13_linear_190_3781" x1="121.898" y1="73.3864" x2="121.898" y2="64.7598" gradientUnits="userSpaceOnUse">
<stop stop-color="#0F1E2D"/>
<stop offset="1" stop-color="#082947"/>
</linearGradient>
<linearGradient id="paint14_linear_190_3781" x1="125.305" y1="68.1049" x2="125.305" y2="59.5498" gradientUnits="userSpaceOnUse">
<stop stop-color="white"/>
<stop offset="1" stop-color="#A0A0A0"/>
</linearGradient>
<linearGradient id="paint15_linear_190_3781" x1="134.938" y1="69.527" x2="126.593" y2="86.2867" gradientUnits="userSpaceOnUse">
<stop stop-color="#060607"/>
<stop offset="1" stop-color="#1A1A2E"/>
</linearGradient>
<linearGradient id="paint16_linear_190_3781" x1="135.825" y1="69.969" x2="127.479" y2="86.7281" gradientUnits="userSpaceOnUse">
<stop stop-color="#060607"/>
<stop offset="1" stop-color="#1A1A2E"/>
</linearGradient>
<clipPath id="clip0_190_3781">
<rect width="144" height="96.586" fill="white" transform="translate(0 0.207031)"/>
</clipPath>
</defs>
</svg>
