<svg width="121" height="122" viewBox="0 0 121 122" fill="none" xmlns="http://www.w3.org/2000/svg">
<g clip-path="url(#clip0_180_3079)">
<path d="M33.523 17.672C34.0206 17.3707 34.5521 17.1405 35.1004 16.9848L35.4254 15.4243L38.0657 15.377L38.4448 16.9273C38.9966 17.0627 39.5382 17.2726 40.0459 17.5569L41.3796 16.6836L43.2786 18.5182L42.4527 19.8824C42.7539 20.38 42.9841 20.9114 43.1398 21.4598L44.7003 21.7848L44.7477 24.4251L43.1974 24.8042C43.062 25.356 42.8521 25.8976 42.5678 26.4053L43.4411 27.739L41.6064 29.638L40.2423 28.812C39.7447 29.1133 39.2132 29.3435 38.6648 29.4992L38.3399 31.0631L35.6996 31.1105L35.3205 29.5601C34.7687 29.4247 34.2271 29.2149 33.7194 28.9305L32.3857 29.8039L30.4867 27.9692L31.3126 26.605C31.0113 26.1074 30.7812 25.576 30.6255 25.0276L29.065 24.7026L29.0176 22.0623L30.5679 21.6832C30.7033 21.1315 30.9132 20.5899 31.1975 20.0821L30.3242 18.7484L32.1589 16.8494L33.523 17.6754V17.672ZM34.9278 21.189C33.8412 22.3128 33.8717 24.1069 34.9989 25.1935C36.1227 26.2801 37.9168 26.2496 39.0034 25.1224C40.0899 23.9986 40.0595 22.2045 38.9323 21.1179C37.8084 20.0313 36.0144 20.0618 34.9278 21.189Z" fill="#0033FF"/>
<path d="M34.9253 21.1886C34.9253 21.1886 35.0742 20.9787 35.4533 20.7248C35.8257 20.4777 36.4756 20.2001 37.3015 20.2881C37.7077 20.3321 38.1512 20.4676 38.5574 20.735C38.9568 21.0024 39.3359 21.3849 39.5729 21.8791C39.6981 22.1228 39.7827 22.3936 39.8301 22.6746C39.8809 22.9555 39.8877 23.2534 39.8471 23.5479C39.776 24.1403 39.495 24.7225 39.0617 25.1795C38.6183 25.6297 38.0462 25.931 37.4572 26.0223C37.1627 26.0765 36.8683 26.0765 36.5839 26.0359C36.2996 25.9987 36.0288 25.9208 35.7817 25.8057C35.2773 25.5857 34.8846 25.2235 34.6037 24.8308C34.3227 24.4348 34.1738 23.9947 34.1129 23.5919C33.9978 22.7694 34.2483 22.1093 34.4852 21.7302C34.7255 21.3409 34.9286 21.1886 34.9286 21.1886C34.9456 21.2021 34.756 21.3747 34.5394 21.764C34.3261 22.1465 34.0993 22.7897 34.2279 23.5784C34.2923 23.9643 34.4412 24.384 34.7154 24.7564C34.9896 25.1253 35.3687 25.4706 35.846 25.6737C36.0795 25.782 36.3402 25.8531 36.6076 25.8869C36.875 25.9242 37.156 25.9208 37.4335 25.87C37.9887 25.782 38.5303 25.4977 38.9466 25.0712C39.3562 24.6379 39.6236 24.0895 39.6913 23.531C39.732 23.2534 39.7286 22.9725 39.6812 22.705C39.6372 22.4376 39.5593 22.1804 39.4409 21.9502C39.2208 21.4797 38.8654 21.1141 38.4863 20.8534C38.1038 20.5928 37.6807 20.4608 37.2914 20.41C36.5027 20.3118 35.8663 20.5589 35.4906 20.7857C35.108 21.0159 34.9422 21.2089 34.9286 21.1953L34.9253 21.1886Z" fill="#0033FF"/>
<path d="M33.5212 17.6721C33.5212 17.6721 33.4907 17.6586 33.4332 17.6247C33.3689 17.5875 33.2842 17.5367 33.1725 17.4724C32.9356 17.3302 32.5903 17.1271 32.1435 16.8665H32.174C31.7068 17.3505 31.0941 17.9937 30.3528 18.7722V18.7215C30.6236 19.1243 30.9215 19.5711 31.2363 20.0518L31.2532 20.0755L31.2397 20.1026C30.9791 20.5731 30.7624 21.1079 30.6202 21.6935L30.6135 21.724L30.583 21.7307C30.099 21.8492 29.5777 21.9812 29.0361 22.1166L29.0801 22.0591C29.097 22.8884 29.1139 23.7719 29.1308 24.6994L29.0801 24.6385C29.5641 24.7366 30.0956 24.8483 30.6439 24.96L30.6846 24.9668L30.6947 25.0074C30.8403 25.5186 31.0671 26.0602 31.3751 26.5679L31.3954 26.6051L31.3751 26.6424C31.1178 27.0655 30.8369 27.5326 30.5492 28.0065L30.539 27.9185C31.1348 28.494 31.7813 29.1134 32.4414 29.7498L32.3466 29.7397C32.763 29.4655 33.2165 29.1676 33.6803 28.8629L33.7209 28.8359L33.7615 28.8596C34.2287 29.1202 34.7703 29.3402 35.3423 29.4824L35.3897 29.4926L35.3999 29.5399C35.5183 30.024 35.6504 30.5555 35.7824 31.0903L35.7045 31.0294C36.5406 31.0158 37.4343 30.9989 38.3448 30.982L38.267 31.0463C38.3685 30.5521 38.4802 30.0206 38.5919 29.4858L38.6021 29.4384L38.6495 29.4249C39.1708 29.2793 39.709 29.0491 40.2066 28.7479L40.2506 28.7208L40.2912 28.7445C40.7482 29.022 41.2052 29.2996 41.6554 29.5704L41.5538 29.584C42.1733 28.9408 42.786 28.3078 43.3885 27.685L43.3783 27.7865C43.0838 27.3363 42.7927 26.8929 42.505 26.4528L42.4779 26.4122L42.5016 26.3716C42.7826 25.8706 42.9891 25.3358 43.1245 24.7908L43.1346 24.7434L43.182 24.7332C43.7067 24.6046 44.2212 24.4794 44.7323 24.3541L44.6748 24.432C44.6613 23.5316 44.6443 22.6515 44.6308 21.7917L44.6917 21.8628C44.1603 21.751 43.6424 21.6427 43.1312 21.5344L43.0872 21.5243L43.0737 21.4836C42.9146 20.9251 42.6844 20.397 42.3967 19.9231L42.373 19.8859L42.3967 19.8487C42.681 19.3815 42.9552 18.928 43.226 18.4879L43.2362 18.5725C42.5693 17.926 41.9397 17.3167 41.3406 16.7345L41.4184 16.7412C40.9479 17.0459 40.5078 17.3336 40.0813 17.6112L40.0509 17.6315L40.0204 17.6146C39.489 17.3167 38.9575 17.117 38.4362 16.985L38.4058 16.9782L38.399 16.9477C38.2636 16.3858 38.1417 15.8781 38.0233 15.3974L38.0706 15.4346C37.0484 15.4482 36.1784 15.4583 35.4303 15.4685L35.4642 15.438C35.3288 16.0608 35.2205 16.572 35.1291 16.9985V17.0154L35.1121 17.0188C34.5536 17.1745 34.161 17.3573 33.9037 17.4826C33.7818 17.5469 33.6871 17.5943 33.6194 17.6315C33.555 17.6653 33.5246 17.6823 33.5246 17.6789C33.5246 17.6789 33.555 17.6552 33.6126 17.618C33.6735 17.5807 33.7649 17.5266 33.8902 17.4589C34.144 17.3235 34.5333 17.1339 35.0952 16.968L35.0783 16.9883C35.1629 16.5618 35.2679 16.0473 35.3931 15.4245L35.3999 15.3974H35.4303C36.175 15.3805 37.0484 15.3602 38.0706 15.3398H38.1079L38.118 15.3771C38.2365 15.8544 38.3618 16.3621 38.5039 16.924L38.4633 16.8834C38.9948 17.012 39.5364 17.2151 40.0813 17.513H40.0204C40.4435 17.2354 40.8836 16.9477 41.3507 16.6363L41.3913 16.6092L41.4286 16.6431C42.0311 17.2219 42.6607 17.8278 43.3309 18.4744L43.3682 18.5116L43.3411 18.559C43.0737 19.0024 42.7995 19.456 42.5152 19.9231V19.8521C42.8097 20.3395 43.0466 20.8743 43.2125 21.4464L43.1583 21.3956C43.6694 21.5006 44.1907 21.6089 44.7222 21.7172L44.7797 21.7307V21.7917C44.7966 22.6515 44.8136 23.5282 44.8305 24.432V24.4929L44.773 24.5064C44.2618 24.6317 43.7473 24.7603 43.2226 24.889L43.2802 24.8314C43.1414 25.3899 42.9315 25.9383 42.6438 26.4528V26.3716C42.9281 26.8116 43.2226 27.2551 43.5171 27.7053L43.551 27.7594L43.507 27.8068C42.9044 28.4297 42.2917 29.066 41.6757 29.7058L41.6317 29.7532L41.5775 29.7194C41.1273 29.4452 40.6703 29.171 40.2134 28.8934H40.298C39.7868 29.2048 39.2351 29.435 38.7003 29.5873L38.7578 29.5264C38.6461 30.0612 38.5344 30.5961 38.4328 31.0869L38.4193 31.1512H38.355C37.4478 31.1681 36.5508 31.1817 35.7147 31.1986H35.6504L35.6368 31.1377C35.5048 30.6028 35.3762 30.0748 35.2577 29.5873L35.3152 29.6449C34.7296 29.4993 34.1711 29.2725 33.6938 29.0051H33.7751C33.3113 29.3064 32.8543 29.6043 32.4414 29.8751L32.3906 29.9089L32.3466 29.8683C31.6865 29.2319 31.0468 28.6091 30.451 28.0336L30.4104 27.993L30.4408 27.9422C30.7286 27.4683 31.0129 27.0012 31.2702 26.5815V26.6525C30.9554 26.1312 30.7252 25.5761 30.5796 25.0548L30.6304 25.1022C30.0854 24.9871 29.554 24.8754 29.0699 24.7739L29.0191 24.7637V24.7129C29.0056 23.7854 28.9921 22.9053 28.9785 22.0726V22.0252L29.0225 22.0151C29.5675 21.8831 30.0888 21.7578 30.5729 21.6393L30.5322 21.68C30.6812 21.0842 30.9046 20.5426 31.172 20.0687V20.1195C30.8606 19.6388 30.5695 19.1886 30.3054 18.7824L30.2885 18.7553L30.3122 18.7316C31.0637 17.9632 31.6831 17.3268 32.157 16.8428L32.1706 16.8292L32.1875 16.8394C32.6242 17.1102 32.9593 17.3201 33.1928 17.4656C33.3046 17.5367 33.3892 17.5909 33.4501 17.6281C33.5077 17.6653 33.5381 17.6857 33.5381 17.689L33.5212 17.6721Z" fill="#E0E0E0"/>
<path d="M111.011 36.4066C111.309 36.2272 111.627 36.0884 111.956 35.997L112.149 35.0627L113.73 35.0356L113.956 35.9631C114.288 36.0444 114.61 36.1696 114.914 36.3389L115.713 35.8142L116.851 36.9109L116.356 37.7267C116.536 38.0246 116.675 38.3428 116.766 38.6711L117.7 38.8641L117.727 40.4449L116.8 40.6717C116.719 41.0034 116.593 41.325 116.424 41.6296L116.949 42.4285L115.852 43.5659L115.036 43.0717C114.738 43.2511 114.42 43.3898 114.092 43.4812L113.899 44.4155L112.318 44.4426L112.091 43.5151C111.759 43.4338 111.438 43.3086 111.133 43.1394L110.334 43.664L109.197 42.5673L109.691 41.7515C109.512 41.4536 109.373 41.1354 109.282 40.8071L108.347 40.6141L108.32 39.0333L109.248 38.8065C109.329 38.4748 109.454 38.1532 109.624 37.8486L109.099 37.0497L110.196 35.9124L111.011 36.4066ZM111.854 38.512C111.204 39.1857 111.221 40.2587 111.895 40.9086C112.568 41.5586 113.642 41.5416 114.291 40.868C114.941 40.1944 114.924 39.1213 114.251 38.4714C113.577 37.8215 112.504 37.8384 111.854 38.512Z" fill="#F5F5F5"/>
<path d="M111.854 38.5131C111.854 38.5131 111.942 38.3878 112.169 38.2355C112.392 38.0866 112.781 37.9207 113.276 37.9748C113.519 38.0019 113.783 38.0798 114.027 38.2423C114.267 38.4014 114.494 38.6315 114.636 38.926C114.711 39.0716 114.762 39.2341 114.792 39.4033C114.823 39.5726 114.826 39.7486 114.802 39.9246C114.758 40.28 114.592 40.6287 114.332 40.9029C114.068 41.1737 113.722 41.3531 113.37 41.4072C113.194 41.4377 113.018 41.4411 112.849 41.4174C112.68 41.3937 112.517 41.3497 112.368 41.2786C112.067 41.1466 111.83 40.93 111.661 40.6964C111.492 40.4594 111.404 40.1954 111.366 39.9551C111.299 39.4643 111.448 39.0682 111.59 38.8414C111.735 38.6078 111.854 38.5164 111.854 38.5164C111.864 38.5232 111.752 38.6282 111.62 38.8617C111.492 39.0919 111.356 39.4778 111.434 39.9483C111.471 40.1785 111.563 40.429 111.725 40.6524C111.888 40.8724 112.115 41.0789 112.402 41.2008C112.544 41.2651 112.697 41.3091 112.859 41.3294C113.018 41.3531 113.188 41.3497 113.353 41.3192C113.685 41.2651 114.01 41.0958 114.261 40.8419C114.508 40.5813 114.663 40.253 114.707 39.9178C114.731 39.752 114.728 39.5827 114.701 39.4236C114.674 39.2645 114.626 39.1088 114.559 38.9734C114.426 38.6925 114.213 38.4724 113.986 38.3167C113.756 38.161 113.506 38.0798 113.272 38.0493C112.798 37.9918 112.419 38.1373 112.196 38.2761C111.969 38.4149 111.867 38.53 111.861 38.5198L111.854 38.5131Z" fill="#F5F5F5"/>
<path d="M111.012 36.4066C111.012 36.4066 110.996 36.3999 110.958 36.3796C110.921 36.3559 110.867 36.3288 110.803 36.2882C110.66 36.2035 110.454 36.0817 110.186 35.926H110.207C109.926 36.2171 109.56 36.5996 109.117 37.0667V37.0362C109.279 37.2766 109.455 37.5474 109.645 37.8317L109.655 37.8453L109.648 37.8622C109.493 38.1431 109.364 38.4647 109.276 38.8134V38.8337L109.252 38.8371C108.965 38.9082 108.65 38.986 108.325 39.0673L108.352 39.0334C108.362 39.531 108.372 40.0591 108.382 40.6142L108.352 40.577C108.643 40.6379 108.961 40.7022 109.286 40.7699H109.31L109.317 40.797C109.405 41.1016 109.54 41.4266 109.723 41.7312L109.736 41.7516L109.723 41.7719C109.57 42.0257 109.401 42.3033 109.229 42.5877L109.222 42.5335C109.581 42.8788 109.963 43.2477 110.359 43.6302L110.302 43.6235C110.549 43.461 110.823 43.2816 111.1 43.0988L111.124 43.0819L111.148 43.0954C111.425 43.2511 111.754 43.3831 112.096 43.4678L112.123 43.4745L112.129 43.5016C112.201 43.7927 112.278 44.1075 112.356 44.4291L112.309 44.3919C112.81 44.3817 113.345 44.3716 113.89 44.3648L113.842 44.402C113.903 44.1075 113.971 43.7893 114.035 43.4678L114.042 43.4373L114.069 43.4305C114.381 43.3425 114.702 43.2071 115 43.0243L115.027 43.0074L115.051 43.0209C115.325 43.1868 115.596 43.3527 115.867 43.5152L115.806 43.5219C116.178 43.1394 116.544 42.7603 116.902 42.3846L116.896 42.4455C116.72 42.1781 116.544 41.9107 116.374 41.6466L116.357 41.6229L116.371 41.5992C116.54 41.298 116.662 40.9798 116.743 40.6514L116.75 40.6244L116.777 40.6176C117.092 40.5397 117.4 40.4653 117.705 40.3908L117.671 40.4382C117.661 39.9 117.654 39.3719 117.644 38.8574L117.681 38.9014C117.363 38.8337 117.051 38.7694 116.747 38.7051L116.72 38.6983L116.713 38.6746C116.618 38.3395 116.479 38.0247 116.307 37.7403L116.293 37.72L116.307 37.6997C116.476 37.4187 116.642 37.1479 116.804 36.8839L116.811 36.9347C116.412 36.5488 116.036 36.1832 115.677 35.8346H115.724C115.443 36.0207 115.179 36.1934 114.926 36.3592L114.909 36.3694L114.892 36.3592C114.573 36.1798 114.255 36.0614 113.944 35.9835H113.924L113.92 35.9598C113.839 35.6213 113.764 35.32 113.697 35.0323L113.724 35.0526C113.111 35.0594 112.59 35.0662 112.143 35.0729L112.163 35.056C112.082 35.4284 112.018 35.7364 111.964 35.9903V36.0004H111.953C111.618 36.0952 111.385 36.2035 111.232 36.278C111.158 36.3152 111.104 36.3457 111.063 36.366C111.026 36.3863 111.006 36.3965 111.006 36.3965C111.006 36.3965 111.023 36.3829 111.06 36.3592C111.097 36.3355 111.151 36.3051 111.226 36.2645C111.378 36.1832 111.612 36.0681 111.947 35.97L111.937 35.9801C111.987 35.7262 112.048 35.4182 112.126 35.0425V35.0256H112.146C112.593 35.0154 113.115 35.0052 113.727 34.9917H113.751L113.758 35.012C113.829 35.2997 113.903 35.601 113.988 35.9395L113.964 35.9158C114.282 35.9937 114.607 36.1155 114.932 36.2949H114.895C115.149 36.1291 115.413 35.9564 115.694 35.7703L115.718 35.7533L115.738 35.7736C116.097 36.1189 116.476 36.4845 116.875 36.8704L116.899 36.8941L116.882 36.9212C116.723 37.1852 116.557 37.4594 116.388 37.7369V37.6929C116.564 37.984 116.706 38.3056 116.804 38.6475L116.77 38.617C117.075 38.6814 117.39 38.7457 117.705 38.81L117.738 38.8168V38.854C117.749 39.3685 117.759 39.8932 117.769 40.4348V40.472L117.735 40.4822C117.43 40.5567 117.122 40.6345 116.808 40.709L116.841 40.6751C116.76 41.0102 116.632 41.3386 116.459 41.6466V41.5959C116.632 41.8599 116.804 42.1239 116.98 42.3947L117.001 42.4252L116.973 42.4523C116.611 42.8246 116.246 43.2037 115.877 43.5896L115.85 43.6167L115.816 43.5964C115.545 43.4339 115.274 43.268 115 43.1022H115.051C114.743 43.2884 114.414 43.4271 114.096 43.5185L114.13 43.4813C114.062 43.8029 113.998 44.1211 113.934 44.4156L113.927 44.4528H113.89C113.345 44.4629 112.81 44.4731 112.309 44.4799H112.272L112.261 44.4426C112.184 44.1211 112.106 43.8063 112.035 43.5152L112.069 43.549C111.717 43.461 111.385 43.3256 111.1 43.1665H111.148C110.87 43.3459 110.596 43.5253 110.349 43.6878L110.319 43.7081L110.291 43.6844C109.899 43.3019 109.513 42.9295 109.157 42.5843L109.134 42.5606L109.151 42.5301C109.323 42.2458 109.493 41.9682 109.648 41.7143V41.7583C109.459 41.4469 109.323 41.1152 109.235 40.8038L109.266 40.8308C108.937 40.7631 108.619 40.6954 108.332 40.6345L108.301 40.6277V40.5973C108.291 40.0421 108.284 39.5141 108.277 39.0165V38.9894L108.304 38.9826C108.629 38.9048 108.944 38.8269 109.232 38.7592L109.208 38.7829C109.296 38.4275 109.432 38.1025 109.591 37.8182V37.8486C109.405 37.5609 109.229 37.2901 109.073 37.0464L109.063 37.0295L109.076 37.0159C109.526 36.5556 109.899 36.1765 110.18 35.8853L110.19 35.8752L110.2 35.882C110.461 36.0444 110.66 36.1697 110.803 36.2577C110.867 36.2983 110.918 36.3322 110.958 36.3559C110.992 36.3796 111.009 36.3897 111.009 36.3931L111.012 36.4066Z" fill="#F5F5F5"/>
<path d="M17.8083 15.2796C18.1061 15.1002 18.4243 14.9614 18.7527 14.87L18.9456 13.9358L20.5264 13.9087L20.7532 14.8362C21.085 14.9174 21.4065 15.0427 21.7112 15.2119L22.51 14.6872L23.6474 15.784L23.1532 16.5998C23.3326 16.8977 23.4714 17.2158 23.5628 17.5442L24.497 17.7371L24.5241 19.3179L23.5966 19.5447C23.5154 19.8765 23.3901 20.198 23.2209 20.5027L23.7456 21.3015L22.6488 22.4389L21.833 21.9447C21.5352 22.1241 21.217 22.2629 20.8886 22.3543L20.6957 23.2885L19.1149 23.3156L18.8881 22.3881C18.5564 22.3069 18.2348 22.1816 17.9301 22.0124L17.1313 22.5371L15.9939 21.4403L16.4881 20.6245C16.3087 20.3267 16.1699 20.0085 16.0785 19.6801L15.1443 19.4872L15.1172 17.9064L16.0447 17.6796C16.1259 17.3479 16.2512 17.0263 16.4204 16.7216L15.8957 15.9228L16.9925 14.7854L17.8083 15.2796ZM18.6511 17.3851C18.0012 18.0587 18.0181 19.1318 18.6918 19.7817C19.3654 20.4316 20.4384 20.4147 21.0883 19.7411C21.7383 19.0674 21.7213 17.9944 21.0477 17.3445C20.3741 16.6946 19.3011 16.7115 18.6511 17.3851Z" fill="#0033FF"/>
<path d="M18.6508 17.3846C18.6508 17.3846 18.7388 17.2594 18.9656 17.1071C19.189 16.9581 19.5783 16.7923 20.0725 16.8464C20.3162 16.8735 20.5802 16.9514 20.8239 17.1138C21.0643 17.2729 21.2911 17.5031 21.4332 17.7976C21.5077 17.9432 21.5585 18.1057 21.589 18.2749C21.6194 18.4442 21.6228 18.6202 21.5991 18.7962C21.5551 19.1516 21.3892 19.5003 21.1286 19.7745C20.8646 20.0453 20.5193 20.2247 20.1673 20.2788C19.9912 20.3093 19.8152 20.3127 19.646 20.289C19.4767 20.2653 19.3142 20.2213 19.1653 20.1502C18.864 20.0182 18.6271 19.8015 18.4578 19.568C18.2886 19.331 18.2006 19.067 18.1633 18.8267C18.0956 18.3358 18.2446 17.9398 18.3867 17.713C18.5323 17.4794 18.6508 17.388 18.6508 17.388C18.6609 17.3948 18.5492 17.4997 18.4172 17.7333C18.2886 17.9635 18.1532 18.3494 18.231 18.8199C18.2683 19.0501 18.3597 19.3006 18.5221 19.524C18.6846 19.744 18.9114 19.9505 19.1991 20.0723C19.3413 20.1367 19.4936 20.1807 19.6561 20.201C19.8152 20.2247 19.9845 20.2213 20.1503 20.1908C20.4821 20.1367 20.807 19.9674 21.0575 19.7135C21.3046 19.4529 21.4603 19.1245 21.5043 18.7894C21.528 18.6236 21.5246 18.4543 21.4976 18.2952C21.4705 18.1361 21.4231 17.9804 21.3554 17.845C21.2234 17.564 21.0101 17.344 20.7833 17.1883C20.5531 17.0326 20.3027 16.9514 20.0691 16.9209C19.5952 16.8634 19.2161 17.0089 18.9927 17.1477C18.7659 17.2865 18.6643 17.4016 18.6575 17.3914L18.6508 17.3846Z" fill="#F5F5F5"/>
<path d="M17.8093 15.2797C17.8093 15.2797 17.7924 15.2729 17.7551 15.2526C17.7179 15.2289 17.6637 15.2018 17.5994 15.1612C17.4573 15.0766 17.2508 14.9547 16.9834 14.799H17.0037C16.7227 15.0901 16.3571 15.4726 15.9137 15.9398V15.9093C16.0762 16.1496 16.2522 16.4204 16.4418 16.7048L16.4519 16.7183L16.4451 16.7352C16.2894 17.0162 16.1608 17.3378 16.0728 17.6864V17.7067L16.0491 17.7101C15.7614 17.7812 15.4466 17.8591 15.1216 17.9403L15.1487 17.9064C15.1588 18.404 15.169 18.9321 15.1792 19.4872L15.1487 19.45C15.4398 19.5109 15.758 19.5753 16.083 19.643H16.1066L16.1134 19.67C16.2014 19.9747 16.3368 20.2996 16.5196 20.6043L16.5332 20.6246L16.5196 20.6449C16.3673 20.8988 16.198 21.1764 16.0254 21.4607L16.0186 21.4065C16.3774 21.7518 16.76 22.1208 17.156 22.5033L17.0985 22.4965C17.3456 22.334 17.6197 22.1546 17.8973 21.9718L17.921 21.9549L17.9447 21.9685C18.2223 22.1242 18.5506 22.2562 18.8925 22.3408L18.9196 22.3476L18.9264 22.3747C18.9974 22.6658 19.0753 22.9806 19.1532 23.3021L19.1058 23.2649C19.6067 23.2548 20.1416 23.2446 20.6866 23.2378L20.6392 23.2751C20.7001 22.9806 20.7678 22.6624 20.8321 22.3408L20.8389 22.3103L20.866 22.3036C21.1774 22.2156 21.499 22.0802 21.7968 21.8974L21.8239 21.8804L21.8476 21.894C22.1218 22.0598 22.3926 22.2257 22.6634 22.3882L22.6025 22.395C22.9748 22.0125 23.3404 21.6333 23.6992 21.2576L23.6924 21.3185C23.5164 21.0511 23.3404 20.7837 23.1712 20.5197L23.1542 20.496L23.1678 20.4723C23.337 20.171 23.4589 19.8528 23.5401 19.5245L23.5469 19.4974L23.574 19.4906C23.8888 19.4128 24.1968 19.3383 24.5015 19.2638L24.4676 19.3112C24.4575 18.773 24.4507 18.245 24.4405 17.7304L24.4778 17.7744C24.1596 17.7067 23.8482 17.6424 23.5435 17.5781L23.5164 17.5713L23.5097 17.5476C23.4149 17.2125 23.2761 16.8977 23.1035 16.6134L23.0899 16.5931L23.1035 16.5728C23.2727 16.2918 23.4386 16.021 23.6011 15.757L23.6078 15.8077C23.2084 15.4219 22.8327 15.0563 22.4738 14.7076H22.5212C22.2403 14.8938 21.9762 15.0664 21.7224 15.2323L21.7054 15.2424L21.6885 15.2323C21.3703 15.0529 21.0521 14.9344 20.7407 14.8566H20.7204L20.717 14.8329C20.6358 14.4944 20.5613 14.1931 20.4936 13.9054L20.5207 13.9257C19.908 13.9324 19.3867 13.9392 18.9399 13.946L18.9602 13.9291C18.879 14.3014 18.8147 14.6095 18.7605 14.8633V14.8735H18.7503C18.4152 14.9683 18.1817 15.0766 18.0293 15.151C17.9549 15.1883 17.9007 15.2188 17.8601 15.2391C17.8228 15.2594 17.8025 15.2695 17.8025 15.2695C17.8025 15.2695 17.8195 15.256 17.8567 15.2323C17.8939 15.2086 17.9481 15.1781 18.0226 15.1375C18.1749 15.0563 18.4085 14.9412 18.7436 14.843L18.7334 14.8532C18.7842 14.5993 18.8451 14.2913 18.923 13.9155V13.8986H18.9433C19.3901 13.8884 19.9114 13.8783 20.5241 13.8647H20.5478L20.5545 13.8851C20.6256 14.1728 20.7001 14.474 20.7847 14.8125L20.761 14.7889C21.0792 14.8667 21.4042 14.9886 21.7291 15.168H21.6919C21.9458 15.0021 22.2098 14.8295 22.4908 14.6433L22.5145 14.6264L22.5348 14.6467C22.8936 14.992 23.2727 15.3575 23.6721 15.7434L23.6958 15.7671L23.6789 15.7942C23.5198 16.0582 23.3539 16.3324 23.1847 16.61V16.566C23.3607 16.8571 23.5029 17.1787 23.6011 17.5206L23.5672 17.4901C23.8719 17.5544 24.1867 17.6187 24.5015 17.683L24.5353 17.6898V17.727C24.5455 18.2416 24.5556 18.7662 24.5658 19.3078V19.3451L24.5319 19.3552C24.2273 19.4297 23.9192 19.5076 23.6044 19.582L23.6383 19.5482C23.557 19.8833 23.4284 20.2116 23.2558 20.5197V20.4689C23.4284 20.7329 23.6011 20.997 23.7771 21.2678L23.7974 21.2982L23.7703 21.3253C23.4081 21.6977 23.0425 22.0768 22.6736 22.4627L22.6465 22.4897L22.6126 22.4694C22.3418 22.307 22.071 22.1411 21.7968 21.9752H21.8476C21.5396 22.1614 21.2112 22.3002 20.893 22.3916L20.9269 22.3543C20.8592 22.6759 20.7949 22.9941 20.7306 23.2886L20.7238 23.3258H20.6866C20.1416 23.336 19.6067 23.3462 19.1058 23.3529H19.0685L19.0584 23.3157C18.9805 22.9941 18.9027 22.6793 18.8316 22.3882L18.8654 22.422C18.5134 22.334 18.1817 22.1986 17.8973 22.0395H17.9447C17.6671 22.2189 17.3929 22.3984 17.1458 22.5608L17.1154 22.5811L17.0883 22.5574C16.6956 22.1749 16.3097 21.8026 15.9543 21.4573L15.9306 21.4336L15.9476 21.4032C16.1202 21.1188 16.2894 20.8412 16.4451 20.5874V20.6314C16.2556 20.32 16.1202 19.9882 16.0322 19.6768L16.0626 19.7039C15.7343 19.6362 15.4161 19.5685 15.1284 19.5076L15.0979 19.5008V19.4703C15.0878 18.9152 15.081 18.3871 15.0742 17.8895V17.8624L15.1013 17.8557C15.4263 17.7778 15.7411 17.7 16.0288 17.6323L16.0051 17.656C16.0931 17.3005 16.2285 16.9756 16.3876 16.6912V16.7217C16.2014 16.434 16.0254 16.1632 15.8697 15.9194L15.8595 15.9025L15.8731 15.889C16.3233 15.4286 16.6956 15.0495 16.9766 14.7584L16.9867 14.7482L16.9969 14.755C17.2575 14.9175 17.4573 15.0427 17.5994 15.1307C17.6637 15.1714 17.7145 15.2052 17.7551 15.2289C17.789 15.2526 17.8059 15.2628 17.8059 15.2661L17.8093 15.2797Z" fill="#F5F5F5"/>
<path d="M19.4042 41.7936C20.352 41.2215 21.3573 40.7882 22.3965 40.4937L23.0126 37.5319L28.019 37.4438L28.74 40.382C29.7894 40.6393 30.8116 41.0387 31.7764 41.5769L34.305 39.9183L37.9066 43.3947L36.3394 45.9808C36.9114 46.9286 37.3447 47.9374 37.6392 48.9766L40.6011 49.5926L40.6891 54.5991L37.7509 55.3201C37.4937 56.3694 37.0942 57.3917 36.556 58.3564L38.2147 60.8884L34.7383 64.4901L32.1521 62.9228C31.2043 63.4949 30.199 63.9281 29.1598 64.2226L28.5437 67.1845L23.5373 67.2725L22.8163 64.3343C21.7669 64.0771 20.7446 63.6777 19.7799 63.1394L17.2513 64.7981L13.6497 61.3217L15.2169 58.7355C14.6449 57.7877 14.2116 56.7824 13.9171 55.7432L10.9552 55.1271L10.8672 50.1207L13.8054 49.3997C14.0626 48.3503 14.4621 47.3281 15.0003 46.3633L13.3416 43.8347L16.818 40.2331L19.4042 41.8004V41.7936ZM22.0749 48.462C20.0135 50.5946 20.0744 53.9965 22.207 56.058C24.3395 58.1195 27.7414 58.0585 29.8029 55.926C31.8644 53.7934 31.8035 50.3915 29.6709 48.33C27.5383 46.2686 24.1364 46.3295 22.0749 48.462Z" fill="black"/>
<path d="M22.0767 48.462C22.0767 48.462 22.3576 48.0659 23.0752 47.5853C23.7827 47.1147 25.0148 46.5901 26.5787 46.7559C27.3505 46.8439 28.1934 47.0944 28.9618 47.6022C29.7234 48.1099 30.441 48.8343 30.8878 49.772C31.1248 50.2323 31.2873 50.7435 31.3753 51.2783C31.4734 51.8131 31.487 52.3717 31.4057 52.9302C31.2703 54.054 30.7389 55.1575 29.9163 56.0275C29.0769 56.8839 27.9903 57.4526 26.8732 57.6286C26.3181 57.7301 25.7562 57.7335 25.2179 57.6556C24.6797 57.5846 24.1618 57.439 23.6947 57.219C22.7401 56.8026 21.992 56.1121 21.4572 55.3708C20.9224 54.6193 20.6414 53.7866 20.5297 53.0216C20.3097 51.4645 20.7904 50.212 21.2338 49.491C21.6908 48.7565 22.0767 48.462 22.0767 48.462C22.1071 48.4857 21.7517 48.814 21.3387 49.5519C20.9359 50.2763 20.506 51.4983 20.7464 52.9911C20.8682 53.7257 21.1492 54.5177 21.6671 55.2252C22.185 55.9259 22.9026 56.5758 23.8098 56.9617C24.2566 57.1682 24.7474 57.3002 25.2552 57.3645C25.7629 57.4356 26.2944 57.4289 26.8191 57.3307C27.8752 57.1614 28.8974 56.6198 29.6895 55.8142C30.4681 54.9916 30.9691 53.9525 31.1045 52.8896C31.1823 52.3615 31.1722 51.8301 31.0842 51.3257C31.0029 50.8179 30.8506 50.3339 30.6306 49.8938C30.2142 49.0002 29.5372 48.3063 28.8196 47.812C28.0918 47.3178 27.293 47.0673 26.5516 46.9692C25.0521 46.783 23.847 47.2535 23.1362 47.6834C22.4152 48.1235 22.097 48.489 22.0733 48.4586L22.0767 48.462Z" fill="black"/>
<path d="M19.4055 41.7934C19.4055 41.7934 19.3479 41.7697 19.2396 41.7054C19.1177 41.6343 18.9553 41.5396 18.742 41.4177C18.2884 41.1503 17.6385 40.7644 16.7922 40.2668L16.8532 40.26C15.9697 41.1875 14.8052 42.4061 13.3971 43.882L13.4072 43.7838C13.9116 44.5488 14.4735 45.3985 15.076 46.3056L15.1065 46.3497L15.0794 46.397C14.5886 47.2873 14.1756 48.3028 13.9048 49.4131L13.8913 49.4706L13.8304 49.4842C12.9164 49.711 11.9246 49.9581 10.8922 50.2119L10.9768 50.1036C11.0073 51.681 11.0411 53.3532 11.075 55.1101L10.9802 54.995C11.8975 55.1845 12.9096 55.391 13.9454 55.6043L14.0199 55.6212L14.0402 55.6957C14.3144 56.6604 14.7443 57.6894 15.3333 58.6542L15.3739 58.7219L15.3333 58.7896C14.8492 59.5918 14.3144 60.4753 13.7694 61.3791L13.7491 61.2098C14.8831 62.2998 16.1017 63.4778 17.3541 64.6829L17.1747 64.6659C17.9634 64.148 18.8266 63.5793 19.7033 63.0039L19.7778 62.9565L19.8557 63.0005C20.7392 63.4913 21.7716 63.9145 22.8582 64.1785L22.9462 64.1988L22.9665 64.2868C23.1933 65.2075 23.4404 66.2129 23.6875 67.225L23.5386 67.1099C25.1227 67.0828 26.822 67.0524 28.545 67.0185L28.3994 67.1404C28.5924 66.2061 28.8022 65.194 29.0155 64.1785L29.0358 64.0871L29.1238 64.0634C30.1089 63.7858 31.1311 63.3525 32.0789 62.7805L32.1602 62.7297L32.238 62.7771C33.108 63.3052 33.9711 63.8264 34.8242 64.3444L34.6346 64.3681C35.8092 63.1494 36.9703 61.9512 38.1144 60.7664L38.0975 60.956C37.5389 60.1029 36.9872 59.2601 36.4388 58.424L36.388 58.3461L36.432 58.2649C36.9635 57.3137 37.3595 56.2982 37.6134 55.2658L37.6337 55.1778L37.7217 55.1574C38.7169 54.9137 39.6952 54.6768 40.6599 54.4398L40.5482 54.5854C40.5211 52.876 40.4907 51.2071 40.467 49.579L40.5787 49.7144C39.5733 49.5045 38.5849 49.298 37.6168 49.0949L37.5356 49.078L37.5119 48.9967C37.2106 47.9338 36.7739 46.9386 36.229 46.0349L36.1883 45.9671L36.229 45.8994C36.7672 45.0126 37.2918 44.1562 37.803 43.3167L37.8233 43.4758C36.5573 42.2504 35.3658 41.0927 34.2284 39.9892L34.374 40.0028C33.4837 40.585 32.6476 41.13 31.8386 41.6547L31.781 41.6919L31.7235 41.658C30.7148 41.0927 29.706 40.7136 28.7142 40.4631L28.6533 40.4496L28.6398 40.392C28.3825 39.3224 28.1489 38.361 27.9289 37.4505L28.0203 37.5182C26.0807 37.5453 24.4288 37.5656 23.0139 37.5825L23.0816 37.5283C22.8277 38.7097 22.6178 39.6812 22.4452 40.4868L22.4384 40.5173L22.4113 40.5241C21.3518 40.8186 20.6071 41.1672 20.1231 41.4042C19.8929 41.526 19.7135 41.6174 19.5849 41.6851C19.463 41.7528 19.4055 41.7799 19.4055 41.7765C19.4055 41.7731 19.463 41.7325 19.5713 41.6614C19.6864 41.5903 19.8591 41.4854 20.0994 41.3568C20.5801 41.1029 21.3214 40.7407 22.3843 40.4259L22.3504 40.4631C22.5129 39.6541 22.7092 38.6826 22.9462 37.4945L22.9563 37.4403H23.0105C24.4254 37.4065 26.0773 37.3726 28.0169 37.3286H28.088L28.1049 37.3963C28.3317 38.3035 28.5687 39.2648 28.8361 40.3345L28.7616 40.26C29.767 40.5071 30.7994 40.8863 31.8284 41.4583H31.7133C32.519 40.9336 33.3517 40.3819 34.2386 39.7963L34.3164 39.7455L34.3841 39.8098C35.5249 40.9066 36.7232 42.0609 37.9925 43.2795L38.067 43.3505L38.0128 43.4386C37.5051 44.278 36.9838 45.1412 36.449 46.0281V45.8893C37.0075 46.8134 37.4577 47.8289 37.7691 48.9155L37.6642 48.8173C38.6357 49.017 39.6207 49.2235 40.6261 49.43L40.7378 49.4537V49.5688C40.7716 51.197 40.8021 52.8658 40.8326 54.5752V54.6937L40.7208 54.7208C39.7561 54.9577 38.7745 55.1981 37.7827 55.4452L37.891 55.3368C37.6303 56.3964 37.2275 57.4356 36.6825 58.4104L36.6758 58.2547C37.2241 59.0908 37.7759 59.9337 38.3344 60.7833L38.4021 60.8849L38.3175 60.9729C37.1734 62.1576 36.0157 63.3593 34.8411 64.5745L34.7565 64.6625L34.6515 64.5982C33.7951 64.0803 32.9319 63.5556 32.0654 63.031H32.2245C31.253 63.62 30.207 64.06 29.1949 64.3477L29.3032 64.2327C29.09 65.2482 28.8801 66.2603 28.6872 67.1945L28.6635 67.313H28.5416C26.8186 67.3435 25.1194 67.3739 23.5352 67.401H23.4133L23.3862 67.2859C23.1391 66.2704 22.892 65.2685 22.6686 64.3477L22.7769 64.4561C21.6633 64.1819 20.6071 63.7486 19.7033 63.2442L19.8557 63.2375C18.979 63.8129 18.1124 64.3782 17.3237 64.8927L17.2289 64.957L17.1477 64.8758C15.8986 63.6674 14.68 62.486 13.5494 61.3926L13.4715 61.3148L13.5291 61.22C14.0775 60.3196 14.6123 59.4361 15.0997 58.6372V58.776C14.504 57.7876 14.0673 56.7349 13.7897 55.7498L13.8845 55.8378C12.8487 55.6212 11.84 55.4079 10.9226 55.215L10.8279 55.1947V55.0965C10.8008 53.3397 10.7737 51.6675 10.75 50.0901V50.0021L10.8346 49.9818C11.8671 49.7313 12.8589 49.4909 13.7762 49.2709L13.7017 49.3454C13.9827 48.2148 14.4092 47.1891 14.9169 46.2887V46.3835C14.328 45.4696 13.7728 44.6165 13.2718 43.8481L13.238 43.794L13.282 43.75C14.7071 42.291 15.8851 41.086 16.7787 40.1686L16.8058 40.1416L16.8396 40.1619C17.6656 40.6764 18.302 41.0724 18.7454 41.3466C18.9553 41.4786 19.1144 41.5802 19.2362 41.658C19.3479 41.7291 19.4021 41.7664 19.4021 41.7731L19.4055 41.7934Z" fill="black"/>
<path d="M120.961 53.5043C120.961 53.5043 121.265 53.3791 121.854 53.3622C122.43 53.3486 123.327 53.4942 124.166 54.1543C124.576 54.4826 124.972 54.9328 125.226 55.5015C125.48 56.0702 125.628 56.7438 125.547 57.4445C125.517 57.7931 125.425 58.1486 125.283 58.4871C125.144 58.8289 124.951 59.1573 124.701 59.4484C124.217 60.0442 123.513 60.4876 122.724 60.6873C121.932 60.8735 121.103 60.8092 120.399 60.5045C120.043 60.3624 119.718 60.1593 119.437 59.9223C119.153 59.6887 118.909 59.4179 118.72 59.1201C118.324 58.5378 118.144 57.8676 118.104 57.2482C118.066 56.6253 118.209 56.0431 118.422 55.5624C118.858 54.5875 119.59 54.0426 120.104 53.7887C120.632 53.5314 120.961 53.501 120.961 53.501C120.967 53.5246 120.646 53.5856 120.141 53.8598C119.647 54.1306 118.957 54.6756 118.554 55.62C118.357 56.0871 118.232 56.6422 118.273 57.238C118.317 57.827 118.493 58.4634 118.875 59.0117C119.058 59.2927 119.292 59.5466 119.559 59.7666C119.827 59.99 120.135 60.1796 120.47 60.315C121.137 60.5993 121.918 60.6602 122.667 60.4842C123.411 60.2947 124.078 59.8783 124.538 59.3164C124.775 59.0422 124.962 58.7342 125.094 58.4092C125.229 58.0876 125.32 57.7559 125.351 57.4242C125.436 56.7607 125.297 56.1176 125.063 55.5726C124.826 55.0276 124.457 54.5909 124.068 54.2693C123.276 53.6194 122.413 53.4536 121.847 53.4434C121.272 53.4332 120.961 53.528 120.957 53.5043H120.961Z" fill="#EBEBEB"/>
<path d="M121.844 48.7082C121.844 48.7082 121.821 48.6744 121.78 48.5965C121.736 48.5119 121.675 48.4002 121.601 48.2513C121.438 47.9331 121.205 47.4761 120.896 46.8837L120.934 46.9006C120.091 47.1139 118.981 47.3915 117.637 47.73L117.677 47.6792C117.691 48.302 117.704 48.9926 117.721 49.7339V49.7711L117.691 49.7881C117.085 50.1198 116.482 50.5531 115.924 51.0947L115.893 51.1251L115.853 51.1116C115.244 50.9119 114.587 50.6918 113.903 50.4651L113.991 50.4346C113.439 51.3519 112.85 52.3234 112.234 53.3457L112.221 53.2441C112.678 53.6842 113.185 54.1716 113.7 54.6692L113.737 54.7065L113.724 54.7572C113.531 55.4105 113.405 56.1586 113.395 56.9236V56.9778L113.345 57.0015C112.776 57.2858 112.146 57.6006 111.51 57.9222L111.557 57.8173C111.811 58.8531 112.089 59.9735 112.37 61.1177L112.275 61.0432C112.915 61.033 113.615 61.0195 114.33 61.006H114.391L114.421 61.0567C114.749 61.6593 115.189 62.2753 115.717 62.8203L115.761 62.8643L115.741 62.9219C115.538 63.5312 115.315 64.198 115.091 64.8716L115.047 64.7532C115.968 65.3117 116.953 65.9075 117.955 66.5134L117.826 66.5303C118.277 66.0632 118.764 65.5588 119.251 65.051L119.295 65.007L119.356 65.024C120.023 65.2203 120.764 65.3422 121.516 65.3557H121.58L121.607 65.4132C121.915 66.0293 122.22 66.642 122.525 67.2513L122.406 67.1971C123.523 66.923 124.623 66.6555 125.707 66.3881L125.629 66.4897C125.619 65.7991 125.605 65.1154 125.595 64.435V64.374L125.649 64.3436C126.299 63.9882 126.895 63.5515 127.413 63.0505L127.457 63.0065L127.514 63.0268C128.174 63.2468 128.821 63.4635 129.464 63.6801L129.349 63.7241C129.951 62.7323 130.54 61.7642 131.116 60.8198L131.133 60.9383C130.632 60.4542 130.141 59.9769 129.657 59.5098L129.616 59.4692L129.633 59.415C129.846 58.6974 129.955 57.9662 129.968 57.2486V57.1945L130.019 57.1708C130.649 56.8559 131.261 56.5547 131.857 56.2568L131.813 56.355C131.532 55.1939 131.265 54.0972 131.011 53.0512L131.089 53.1121C130.368 53.1223 129.687 53.1324 129.034 53.1426H128.99L128.97 53.102C128.594 52.4114 128.154 51.8292 127.673 51.3282L127.643 51.2978L127.656 51.2571C127.897 50.5497 128.11 49.9133 128.313 49.3108L128.34 49.3818C127.216 48.6947 126.262 48.1091 125.443 47.6081L125.5 47.6013C124.925 48.1869 124.454 48.671 124.065 49.0704L124.051 49.084L124.031 49.0772C123.317 48.8639 122.762 48.7929 122.396 48.7522C122.22 48.7387 122.085 48.7252 121.986 48.7184C121.892 48.7116 121.848 48.7082 121.851 48.7049C121.851 48.7049 121.898 48.7015 121.986 48.7015C122.078 48.7015 122.217 48.7015 122.399 48.7184C122.768 48.7455 123.324 48.8064 124.048 49.0129L124.014 49.023C124.4 48.6168 124.864 48.1294 125.432 47.537L125.459 47.5099L125.493 47.5303C126.316 48.0245 127.277 48.6033 128.408 49.2803L128.448 49.304L128.432 49.3514C128.232 49.9539 128.022 50.5937 127.788 51.3012L127.771 51.2334C128.259 51.7378 128.712 52.3302 129.098 53.0309L129.031 52.9903C129.684 52.9767 130.361 52.9632 131.085 52.9496H131.15L131.167 53.0106C131.424 54.0532 131.695 55.1499 131.982 56.311L131.999 56.3787L131.938 56.4091C131.343 56.707 130.733 57.015 130.104 57.3298L130.154 57.252C130.141 57.9832 130.033 58.7312 129.816 59.4658L129.792 59.371C130.276 59.8381 130.771 60.312 131.272 60.7961L131.326 60.8503L131.285 60.9146C130.713 61.859 130.127 62.8305 129.525 63.8223L129.484 63.89L129.41 63.8663C128.77 63.653 128.12 63.4364 127.46 63.2164L127.562 63.1927C127.03 63.7072 126.421 64.1574 125.754 64.5196L125.808 64.4282C125.822 65.1052 125.832 65.789 125.845 66.4829V66.5641L125.768 66.5845C124.684 66.8519 123.581 67.1193 122.467 67.3935L122.386 67.4138L122.349 67.3393C122.044 66.7334 121.739 66.1173 121.431 65.5012L121.523 65.5588C120.751 65.5453 119.989 65.42 119.306 65.2169L119.41 65.1898C118.92 65.6976 118.432 66.202 117.982 66.6691L117.924 66.73L117.853 66.686C116.855 66.0801 115.866 65.4809 114.949 64.9224L114.878 64.8784L114.905 64.8006C115.128 64.1269 115.352 63.4635 115.558 62.8508L115.582 62.9523C115.04 62.3904 114.59 61.7608 114.255 61.1447L114.343 61.1955C113.632 61.2057 112.928 61.2192 112.288 61.2294H112.211L112.194 61.1549C111.913 60.0074 111.642 58.8903 111.388 57.8511L111.371 57.7801L111.439 57.7462C112.079 57.428 112.708 57.1166 113.277 56.8323L113.226 56.9101C113.243 56.1248 113.372 55.3632 113.571 54.6963L113.595 54.7843C113.081 54.2833 112.576 53.7959 112.119 53.3559L112.072 53.3085L112.106 53.2509C112.725 52.232 113.317 51.2639 113.876 50.35L113.906 50.2992L113.964 50.3195C114.648 50.5497 115.304 50.7697 115.91 50.9762L115.843 50.9931C116.415 50.4481 117.031 50.0115 117.647 49.6763L117.616 49.7305C117.606 48.9892 117.596 48.2986 117.589 47.6758V47.6318L117.63 47.6216C118.977 47.3001 120.091 47.0327 120.937 46.8329L120.964 46.8262L120.974 46.8499C121.262 47.4456 121.485 47.9026 121.638 48.2208C121.709 48.3731 121.766 48.4882 121.807 48.5762C121.844 48.6575 121.861 48.6981 121.861 48.7015L121.844 48.7082Z" fill="#EBEBEB"/>
<path d="M13.0371 110.35V120.789H28.3069H45.1473V110.35H13.0371Z" fill="#F5F5F5"/>
<path d="M11.6875 107.432V110.35H46.2654V107.432H28.3045H11.6875Z" fill="black"/>
<path d="M28.9783 120.789H45.1451V110.35H46.2655V107.432H28.3047V110.079L28.9783 120.789Z" fill="black"/>
<path d="M24.0342 112.032H17.5215V113.602H24.0342V112.032Z" fill="black"/>
<path d="M25.0485 115.57H16.6875V118.887H25.0485V115.57Z" fill="white"/>
<path d="M17.9746 97V107.443H33.241H50.0814V97H17.9746Z" fill="#F5F5F5"/>
<path d="M16.625 94.0825V97.0004H51.1995V94.0825H33.2386H16.625Z" fill="black"/>
<path d="M33.9158 107.443H50.0826V97.0004H51.203V94.0825H33.2422V96.733L33.9158 107.443Z" fill="black"/>
<path d="M28.9717 98.6865H22.459V100.257H28.9717V98.6865Z" fill="black"/>
<path d="M29.986 102.22H21.625V105.538H29.986V102.22Z" fill="white"/>
<path d="M120.5 121.846C120.5 121.883 93.6339 121.914 60.5039 121.914C27.3739 121.914 0.5 121.883 0.5 121.846C0.5 121.81 27.3583 121.779 60.5039 121.779C93.6495 121.779 120.5 121.81 120.5 121.846Z" fill="#263238"/>
<path fill-rule="evenodd" clip-rule="evenodd" d="M20.4491 10.6208C21.5198 9.97894 22.6596 9.49252 23.8339 9.1644L24.542 5.82278L30.1948 5.74219L30.9978 9.06366C32.1808 9.36012 33.3349 9.812 34.4229 10.4251L37.2868 8.56285L41.3393 12.5031L39.5577 15.4159C40.1995 16.4866 40.6859 17.6264 41.0141 18.8007L44.3557 19.5088L44.4363 25.1616L41.1148 25.9646C40.8183 27.1476 40.3665 28.3017 39.7534 29.3897L41.6156 32.2535L37.6753 36.3061L34.7625 34.5245C33.6918 35.1663 32.5521 35.6527 31.3777 35.9809L30.6697 39.3225L25.0169 39.4031L24.2138 36.0816C23.0309 35.7851 21.8796 35.3333 20.7887 34.7202L17.9249 36.5824L13.8724 32.6421L15.654 29.7293C15.0121 28.6586 14.5257 27.5189 14.1976 26.3445L10.856 25.6365L10.7754 19.9837L14.0969 19.1806C14.3933 17.9977 14.8452 16.8464 15.4583 15.7555L13.5961 12.8917L17.5363 8.83916L20.452 10.6208H20.4491Z" fill="#0033FF"/>
<path d="M30.939 20.9072C30.9131 20.9072 30.9477 20.4697 30.7577 19.7185C30.6685 19.3414 30.49 18.8982 30.2108 18.429C29.9288 17.9599 29.523 17.4735 28.9732 17.059C28.4235 16.6503 27.7327 16.302 26.9354 16.161C26.1439 16.0257 25.2517 16.0516 24.3997 16.3768C23.9708 16.5265 23.5593 16.751 23.1793 17.0331C22.9836 17.1684 22.8109 17.3353 22.6325 17.4994C22.4713 17.6778 22.3015 17.8534 22.1604 18.0577C21.5675 18.8464 21.2337 19.8595 21.225 20.9043C21.2337 21.9491 21.5675 22.9651 22.1604 23.7537C22.3015 23.9581 22.4713 24.1337 22.6325 24.3121C22.8109 24.4733 22.9836 24.6431 23.1793 24.7784C23.5593 25.0633 23.9708 25.2878 24.3997 25.4375C25.2488 25.7627 26.1439 25.7858 26.9354 25.6534C27.7327 25.5123 28.4235 25.1641 28.9732 24.7554C29.523 24.3409 29.9288 23.8545 30.2108 23.3853C30.49 22.9162 30.6685 22.4729 30.7577 22.0959C30.9477 21.3447 30.9131 20.9072 30.939 20.9072C30.939 20.9072 30.9419 20.9331 30.9419 20.9878C30.9419 21.0482 30.9419 21.1259 30.939 21.2209C30.939 21.3245 30.9333 21.4512 30.9074 21.598C30.8872 21.7476 30.8671 21.9203 30.8153 22.1074C30.7347 22.4902 30.562 22.9421 30.2857 23.4256C30.0065 23.9063 29.5978 24.41 29.0423 24.836C28.4868 25.2591 27.7816 25.6217 26.9642 25.7714C26.1525 25.9153 25.2344 25.8951 24.3594 25.5641C23.919 25.4116 23.4931 25.1813 23.1016 24.8906C22.9001 24.7525 22.7217 24.5798 22.5375 24.4129C22.3706 24.2287 22.195 24.0473 22.0511 23.8372C21.438 23.0256 21.0926 21.9779 21.084 20.9014C21.0926 19.825 21.4409 18.7773 22.0511 17.9656C22.195 17.7555 22.3706 17.5742 22.5375 17.39C22.7217 17.223 22.9001 17.0503 23.1016 16.9122C23.4931 16.6215 23.919 16.3912 24.3594 16.2387C25.2344 15.9106 26.1525 15.8875 26.9642 16.0315C27.7816 16.1811 28.4868 16.5438 29.0423 16.9669C29.6007 17.3957 30.0065 17.8994 30.2857 18.3772C30.562 18.8579 30.7347 19.3126 30.8153 19.6954C30.87 19.8825 30.8872 20.0581 30.9074 20.2049C30.9333 20.3546 30.939 20.4812 30.939 20.5819C30.939 20.6769 30.9419 20.7546 30.9419 20.8151C30.9419 20.8669 30.9419 20.8957 30.939 20.8957V20.9072Z" fill="black"/>
<path d="M29.3984 24.4702C29.4272 24.4414 30.495 25.4603 31.7787 26.744C33.0653 28.0305 34.0842 29.0955 34.0554 29.1243C34.0266 29.153 32.9588 28.1341 31.6751 26.8476C30.3885 25.561 29.3697 24.4961 29.4013 24.4673L29.3984 24.4702Z" fill="black"/>
<path fill-rule="evenodd" clip-rule="evenodd" d="M63.3785 21.9779C64.7543 21.1547 66.2165 20.5301 67.7218 20.107L68.6313 15.8156L75.8844 15.7148L76.9148 19.9775C78.4346 20.3574 79.914 20.9388 81.3099 21.7246L84.9854 19.3357L90.1864 24.3927L87.9011 28.1315C88.7242 29.5073 89.3488 30.9695 89.7719 32.4776L94.0633 33.3872L94.167 40.6403L89.9043 41.6707C89.5244 43.1904 88.943 44.6698 88.1572 46.0658L90.549 49.7413L85.492 54.9422L81.7503 52.6569C80.3745 53.4801 78.9123 54.1047 77.4042 54.5278L76.4946 58.8192L69.2415 58.9228L68.2111 54.6602C66.6914 54.2802 65.212 53.6988 63.816 52.9131L60.1405 55.3049L54.9396 50.2478L57.2249 46.509C56.4017 45.1332 55.7771 43.6711 55.354 42.1629L51.0626 41.2534L50.959 34.0002L55.2216 32.9698C55.6016 31.4501 56.183 29.9707 56.9687 28.5748L54.5769 24.8993L59.634 19.6983L63.3757 21.9836L63.3785 21.9779Z" fill="black"/>
<path d="M70.1015 44.8741C70.1015 44.8741 70.1331 44.8741 70.1878 44.8712C70.2511 44.8712 70.3317 44.8712 70.4353 44.8655C70.6598 44.8655 70.9764 44.8597 71.388 44.854C72.2198 44.8482 73.4258 44.8396 74.9455 44.8281L74.9024 44.8741C74.888 44.2611 74.8707 43.5732 74.8534 42.8392V42.8047L74.8851 42.7903C75.9011 42.3269 76.966 41.639 77.9302 40.7064C78.4109 40.2402 78.8455 39.6876 79.2082 39.0687C79.5795 38.4528 79.8011 37.7332 79.9105 36.9878C80.0803 35.4853 79.7464 33.8188 78.8225 32.4287C77.9159 31.0356 76.5084 29.8929 74.8534 29.2626C73.6187 28.7935 72.2774 28.7388 71.0426 28.9978C69.7993 29.2281 68.6566 29.7807 67.7327 30.5262C66.8001 31.2745 66.1468 32.2646 65.7352 33.2864C65.646 33.5483 65.5337 33.7987 65.4675 34.0606C65.4042 34.3225 65.3409 34.5845 65.2776 34.8406C65.1883 35.3616 65.1336 35.8768 65.1423 36.3776C65.1538 36.8784 65.2171 37.3648 65.3236 37.8253C65.4359 38.2859 65.5999 38.7147 65.7899 39.1148C66.1784 39.9121 66.6936 40.5712 67.2261 41.1036C68.2997 42.1686 69.3963 42.7816 70.1964 43.1328L70.2137 43.1414V43.1587C70.1792 43.7142 70.1533 44.1373 70.136 44.428C70.1274 44.5662 70.1187 44.6755 70.113 44.7532C70.1072 44.8281 70.1043 44.8655 70.1015 44.8655C70.1015 44.8655 70.1015 44.8309 70.1015 44.7619C70.1015 44.6842 70.1072 44.5777 70.1101 44.4424C70.1216 44.1459 70.136 43.7171 70.1562 43.1558L70.1734 43.1817C69.3589 42.8392 68.2536 42.2348 67.1599 41.167C66.6188 40.6316 66.0921 39.9696 65.692 39.1608C65.4963 38.7579 65.3265 38.3175 65.2114 37.8512C65.0991 37.3821 65.0329 36.8899 65.0185 36.3776C65.0099 35.8681 65.0617 35.3443 65.1509 34.8147C65.2142 34.5528 65.2776 34.2909 65.3409 34.0232C65.4071 33.7555 65.5193 33.4994 65.6085 33.2346C66.023 32.1955 66.6908 31.1766 67.6406 30.4139C68.5846 29.6512 69.7474 29.087 71.0139 28.8481C72.2688 28.5833 73.6446 28.638 74.9052 29.1187C76.5919 29.7605 78.0223 30.9233 78.9463 32.3452C79.4097 33.0561 79.7435 33.8332 79.9162 34.6305C79.9767 34.8262 79.9939 35.0277 80.0227 35.2263C80.0515 35.4249 80.086 35.6235 80.0832 35.8221C80.0889 36.0207 80.1004 36.2193 80.1004 36.415C80.0832 36.6107 80.0659 36.8064 80.0486 36.9993C79.9364 37.7649 79.7032 38.4988 79.3233 39.1263C78.952 39.7566 78.5088 40.315 78.0195 40.787C77.0351 41.7282 75.9644 42.4104 74.9283 42.8766L74.9599 42.8277C74.9714 43.5645 74.9829 44.2524 74.9945 44.8655V44.9115H74.9513C73.4201 44.9 72.2055 44.8914 71.365 44.8856C70.9592 44.8799 70.6426 44.877 70.4209 44.8741C70.3202 44.8741 70.2396 44.8712 70.1821 44.8684C70.1274 44.8684 70.1015 44.8684 70.1043 44.8655L70.1015 44.8741Z" fill="white"/>
<path d="M75.0223 46.2199C75.0223 46.2601 73.9084 46.2947 72.5326 46.2947C71.1568 46.2947 70.043 46.263 70.043 46.2199C70.043 46.1796 71.1568 46.145 72.5326 46.145C73.9084 46.145 75.0223 46.1767 75.0223 46.2199Z" fill="white"/>
<path d="M73.4042 48.1027C73.41 48.143 73.0157 48.2236 72.5235 48.2063C72.0313 48.1919 71.6427 48.0883 71.6485 48.048C71.6571 48.0048 72.0457 48.0422 72.5264 48.0566C73.007 48.0739 73.3985 48.0595 73.4042 48.1027Z" fill="white"/>
<path d="M71.1171 44.8731C71.1171 44.8731 71.1142 44.8443 71.1113 44.7897C71.1113 44.7263 71.1113 44.6486 71.1113 44.5479C71.1142 44.3263 71.12 44.0154 71.1257 43.6211C71.1459 42.8066 71.1718 41.6466 71.2063 40.2161C71.2265 39.4966 71.2466 38.7108 71.2696 37.8646C71.2754 37.6603 71.261 37.4444 71.1862 37.2545C71.1228 37.0616 70.9386 36.9235 70.7487 36.9638C70.5587 37.0012 70.4205 37.1969 70.363 37.3984C70.3025 37.6027 70.3457 37.8301 70.4436 38.0316C70.6422 38.4374 71.0883 38.7108 71.5546 38.7713C72.0295 38.8404 72.5217 38.6274 72.8498 38.2532C73.1836 37.8848 73.3765 37.3753 73.3938 36.8601C73.4024 36.604 73.3736 36.3363 73.2412 36.1233C73.1203 35.9161 72.8498 35.7808 72.631 35.8614C72.4123 35.942 72.3029 36.224 72.3403 36.4601C72.3749 36.7076 72.5245 36.9321 72.6857 37.1364C73.0081 37.5452 73.4139 37.8963 73.8859 38.0632C74.1191 38.1467 74.3695 38.1812 74.6084 38.1496C74.8473 38.1122 75.0746 38.0201 75.2646 37.8762C75.4546 37.7351 75.6071 37.5452 75.6762 37.3293C75.7481 37.1134 75.7395 36.8774 75.6388 36.6817C75.5409 36.486 75.3538 36.3392 75.1466 36.3478C74.9422 36.3507 74.7494 36.4888 74.6314 36.6558C74.3925 37.0098 74.3925 37.4732 74.3292 37.8848C74.2371 38.7224 74.1766 39.5081 74.1248 40.2248C74.0298 41.6495 73.9493 42.8094 73.8946 43.6211C73.8687 44.0125 73.8485 44.3234 73.8312 44.545C73.8226 44.6429 73.8169 44.7235 73.8111 44.7839C73.8053 44.8386 73.8025 44.8645 73.7996 44.8645C73.7996 44.8645 73.7967 44.8357 73.7967 44.781C73.7967 44.7177 73.7967 44.64 73.8025 44.5392C73.8111 44.3176 73.8226 44.0068 73.837 43.6125C73.8715 42.8094 73.9262 41.6466 74.0183 40.2104C74.0673 39.4937 74.1191 38.708 74.2054 37.8646C74.2313 37.6545 74.2515 37.4415 74.2889 37.2199C74.3263 37.0012 74.3839 36.7738 74.522 36.5723C74.6602 36.3795 74.876 36.2125 75.1437 36.2039C75.4114 36.1924 75.6503 36.3852 75.7597 36.6097C75.8806 36.8371 75.8921 37.1192 75.8086 37.3638C75.728 37.6114 75.5582 37.8243 75.3481 37.9798C75.1408 38.1381 74.8904 38.2417 74.6256 38.282C74.358 38.3194 74.0874 38.282 73.8341 38.1899C73.3247 38.0085 72.9016 37.6401 72.5648 37.217C72.4008 37.0069 72.2338 36.7652 72.1878 36.4716C72.1446 36.1838 72.2655 35.8355 72.5763 35.7117C72.8901 35.6024 73.2124 35.7837 73.365 36.0341C73.5204 36.2902 73.5463 36.5838 73.5405 36.8544C73.5204 37.4041 73.316 37.9424 72.9563 38.3395C72.6051 38.7425 72.0554 38.9814 71.5344 38.9008C71.025 38.8317 70.5386 38.5381 70.3169 38.0805C70.2104 37.8589 70.1586 37.5912 70.2306 37.3494C70.2997 37.1192 70.4551 36.8774 70.7228 36.8198C70.8523 36.7939 70.9876 36.8285 71.0912 36.9033C71.1977 36.9781 71.2639 37.0875 71.3042 37.194C71.3876 37.4128 71.3991 37.6401 71.3934 37.8531C71.3646 38.6964 71.3387 39.4851 71.3128 40.2046C71.2581 41.6322 71.2149 42.7922 71.1862 43.6067C71.1689 44.001 71.1545 44.309 71.143 44.5306C71.1372 44.6285 71.1315 44.7091 71.1286 44.7724C71.1257 44.8271 71.12 44.853 71.1171 44.853V44.8731Z" fill="white"/>
<path d="M74.5801 47.1608C74.5801 47.2011 73.6763 47.2356 72.5596 47.2356C71.4428 47.2356 70.5391 47.2011 70.5391 47.1608C70.5391 47.1205 71.4428 47.0859 72.5596 47.0859C73.6763 47.0859 74.5801 47.1205 74.5801 47.1608Z" fill="white"/>
<path fill-rule="evenodd" clip-rule="evenodd" d="M106.73 43.5921C107.614 43.0423 108.555 42.625 109.531 42.3343L110.078 39.5424L114.784 39.4014L115.495 42.1558C116.485 42.3861 117.449 42.7487 118.364 43.2438L120.724 41.655L124.149 44.8844L122.704 47.3338C123.254 48.2174 123.672 49.1586 123.962 50.1343L126.754 50.6811L126.895 55.3871L124.141 56.098C123.91 57.0881 123.548 58.0523 123.053 58.9676L124.642 61.3277L121.415 64.7528L118.966 63.3079C118.082 63.8577 117.141 64.275 116.165 64.5657L115.618 67.3576L110.912 67.4986L110.201 64.7442C109.211 64.5139 108.247 64.1513 107.332 63.6562L104.972 65.245L101.547 62.0156L102.991 59.5662C102.442 58.6826 102.024 57.7414 101.734 56.7657L98.9418 56.2189L98.8008 51.513L101.555 50.802C101.786 49.8119 102.148 48.8477 102.643 47.9324L101.054 45.5723L104.281 42.1472L106.73 43.5921Z" fill="#0033FF"/>
<path d="M119.151 58.5124C119.151 58.5124 119.073 58.5239 118.924 58.5268C118.76 58.5297 118.541 58.5354 118.27 58.5412C117.686 58.547 116.869 58.5556 115.864 58.5642C113.818 58.57 111.017 58.5786 107.923 58.5873C107.73 58.5873 107.537 58.5873 107.356 58.5873H107.281V58.5124C107.29 55.545 107.299 52.8855 107.304 50.9484C107.313 49.9986 107.322 49.2273 107.327 48.6746C107.333 48.4185 107.339 48.2141 107.342 48.0587C107.347 47.9177 107.35 47.8457 107.356 47.8457C107.362 47.8457 107.365 47.9205 107.37 48.0587C107.373 48.2141 107.379 48.4185 107.385 48.6746C107.391 49.2244 107.399 49.9986 107.408 50.9484C107.414 52.8855 107.422 55.545 107.431 58.5124L107.356 58.4376C107.535 58.4376 107.727 58.4376 107.923 58.4376C111.017 58.4462 113.818 58.4549 115.864 58.4606C116.869 58.4692 117.686 58.4779 118.27 58.4836C118.544 58.4894 118.762 58.4952 118.924 58.498C119.073 58.5038 119.151 58.5067 119.151 58.5124Z" fill="black"/>
<path d="M117.84 50.434C117.84 50.434 117.722 50.5607 117.489 50.7708C117.236 50.9953 116.899 51.2889 116.493 51.6458C115.647 52.3797 114.473 53.3842 113.172 54.4866L112.973 54.6535L112.921 54.6967L112.872 54.6506C112.351 54.1671 111.854 53.7037 111.396 53.2777H111.488C110.619 53.9973 109.87 54.6132 109.318 55.0709C109.062 55.2752 108.852 55.4422 108.688 55.5746C108.541 55.6897 108.457 55.7501 108.451 55.7415C108.446 55.7357 108.518 55.6638 108.659 55.5371C108.817 55.399 109.019 55.2205 109.263 55.0018C109.807 54.5355 110.541 53.9052 111.399 53.1712L111.445 53.1309L111.491 53.1741C111.951 53.6001 112.452 54.0577 112.976 54.5384H112.878L113.077 54.3686C114.381 53.2662 115.566 52.2732 116.427 51.5594C116.844 51.2169 117.193 50.9349 117.455 50.7219C117.699 50.5261 117.837 50.4225 117.843 50.4312L117.84 50.434Z" fill="black"/>
<path d="M117.84 52.9056C117.82 52.9056 117.802 52.6264 117.788 52.1688C117.774 51.7111 117.765 51.0808 117.765 50.3756L117.84 50.4505C117.8 50.4505 117.756 50.4505 117.713 50.4505C116.979 50.4505 116.314 50.4418 115.834 50.4274C115.353 50.413 115.057 50.3958 115.057 50.3756C115.057 50.3555 115.353 50.3353 115.834 50.3238C116.314 50.3094 116.979 50.3008 117.713 50.3008C117.756 50.3008 117.8 50.3008 117.84 50.3008H117.915V50.3756C117.915 51.0808 117.906 51.714 117.892 52.1688C117.877 52.6264 117.86 52.9056 117.84 52.9056Z" fill="black"/>
<path d="M41.6961 58.9259C41.6558 58.9403 41.5061 58.5805 41.3622 58.1258C41.2154 57.671 41.1319 57.2911 41.1722 57.2796C41.2125 57.2681 41.3622 57.625 41.5061 58.0797C41.65 58.5316 41.7364 58.9115 41.6961 58.9259Z" fill="#263238"/>
<path d="M44.7522 65.0848C44.7205 65.1078 44.2572 64.4832 43.7822 63.6572C43.3045 62.8282 42.9994 62.1173 43.0339 62.1C43.0713 62.0799 43.4369 62.7592 43.9118 63.5823C44.3838 64.4055 44.7867 65.0617 44.7522 65.0848Z" fill="#263238"/>
<path d="M49.2423 70.2852C49.2163 70.314 48.6119 69.8305 47.9413 69.1483C47.2707 68.4662 46.7986 67.8531 46.8274 67.8272C46.8591 67.7984 47.3829 68.3655 48.0478 69.0418C48.7127 69.7182 49.2682 70.2507 49.2423 70.2824V70.2852Z" fill="#263238"/>
<path d="M54.9337 74.139C54.9165 74.1764 54.2027 73.8713 53.3795 73.3878C52.5534 72.9071 51.9346 72.438 51.9577 72.4063C51.9807 72.3718 52.634 72.7834 53.4543 73.2583C54.2746 73.7361 54.9539 74.0987 54.9337 74.139Z" fill="#263238"/>
<path d="M61.4726 76.2465C61.4668 76.2868 60.7012 76.1717 59.7658 75.976C58.8476 75.7169 58.1108 75.4752 58.1252 75.4349C58.1396 75.3946 58.8879 75.573 59.8003 75.8292C60.7271 76.022 61.4783 76.2005 61.4697 76.2437L61.4726 76.2465Z" fill="#263238"/>
<path d="M68.3369 76.3989C68.3427 76.4392 67.577 76.5601 66.6215 76.6032C65.6659 76.6464 64.8945 76.5917 64.8945 76.5514C64.8945 76.5083 65.6659 76.4967 66.6128 76.4536C67.5598 76.4133 68.3283 76.3586 68.334 76.3989H68.3369Z" fill="#263238"/>
<path d="M75.055 74.9139C75.0694 74.9514 74.3498 75.2392 73.4288 75.4953C72.5106 75.7544 71.745 75.881 71.7364 75.8436C71.7278 75.8033 72.4732 75.6105 73.3885 75.3514C74.3038 75.0953 75.0406 74.8736 75.055 74.9139Z" fill="#263238"/>
<path d="M81.285 71.9946C81.3051 72.0292 80.6691 72.4695 79.8286 72.9214C78.9882 73.3733 78.2686 73.664 78.2542 73.6295C78.237 73.5921 78.922 73.2409 79.7595 72.7919C80.5971 72.3429 81.2649 71.963 81.2879 71.9975L81.285 71.9946Z" fill="#263238"/>
<path d="M86.6217 67.6695C86.6504 67.6954 86.1525 68.2912 85.4502 68.9388C84.7479 69.5893 84.1205 70.0412 84.0946 70.0095C84.0687 69.975 84.653 69.4742 85.3495 68.8295C86.046 68.1876 86.59 67.6408 86.6217 67.6695Z" fill="#263238"/>
<path d="M90.4274 61.9559C90.4619 61.9703 90.1799 62.6927 89.7194 63.5303C89.2617 64.3707 88.7983 64.9924 88.7638 64.9694C88.7292 64.9464 89.1322 64.2901 89.587 63.4583C90.0417 62.6265 90.3871 61.9386 90.4274 61.9559Z" fill="#263238"/>
<path d="M92.7826 55.4875C92.8229 55.499 92.6128 56.2445 92.3163 57.1483C92.0198 58.052 91.7464 58.7745 91.7061 58.7601C91.6658 58.7457 91.8759 58.0031 92.1724 57.0993C92.4689 56.1956 92.7423 55.4731 92.7826 55.4875Z" fill="#263238"/>
<path d="M94.9946 48.9604C95.0407 48.9777 94.773 49.703 94.465 50.601C94.1542 51.499 93.8692 52.2157 93.8289 52.2042C93.7887 52.1927 94.0103 51.453 94.324 50.5521C94.4737 50.1002 94.6406 49.703 94.7644 49.4152C94.8881 49.1274 94.9745 48.9547 94.9946 48.9633V48.9604Z" fill="#263238"/>
<path d="M98.0435 42.7931C98.078 42.8161 97.6866 43.4781 97.2289 44.3099C96.7684 45.1388 96.4087 45.821 96.3684 45.8037C96.3309 45.7864 96.6332 45.0726 97.0965 44.238C97.5571 43.4033 98.0089 42.7701 98.0435 42.7931Z" fill="#263238"/>
<path d="M102.642 37.7067C102.667 37.7413 102.063 38.219 101.369 38.8638C100.673 39.5056 100.146 40.0697 100.115 40.041C100.086 40.0151 100.566 39.4049 101.269 38.7544C101.971 38.1039 102.621 37.6751 102.644 37.7067H102.642Z" fill="#263238"/>
<path d="M108.848 34.8002C108.859 34.8434 108.122 35.0679 107.23 35.3874C106.338 35.7069 105.627 36.0062 105.61 35.9659C105.592 35.9314 106.28 35.5687 107.181 35.2464C108.079 34.924 108.839 34.7628 108.851 34.8002H108.848Z" fill="#263238"/>
<path d="M115.667 34.0395C115.667 34.0827 114.896 34.0626 113.946 34.0971C112.999 34.1288 112.23 34.1921 112.225 34.1489C112.219 34.1086 112.984 33.9791 113.94 33.9474C114.896 33.9129 115.667 33.9992 115.664 34.0395H115.667Z" fill="#263238"/>
<path d="M122.306 35.7352C122.289 35.7754 121.572 35.4905 120.68 35.1739C119.788 34.8544 119.051 34.627 119.063 34.5839C119.071 34.5464 119.831 34.7105 120.732 35.0329C121.633 35.3524 122.327 35.7006 122.309 35.7352H122.306Z" fill="#263238"/>
<path d="M5 18.462C5 18.462 5.01439 18.3727 5.05469 18.2C5.09498 18.0245 5.15255 17.7712 5.22738 17.4373C5.38856 16.7696 5.68502 15.7967 6.18583 14.5908C6.71542 13.3992 7.46376 11.9744 8.569 10.4835C9.67137 8.9926 11.122 7.43259 12.9612 5.98772C14.8148 4.57163 17.0454 3.24477 19.6531 2.36691C20.9569 1.9323 22.3384 1.58403 23.7891 1.36817C25.2368 1.16093 26.7479 1.06595 28.2906 1.10625C29.8362 1.14366 31.4164 1.33651 32.9937 1.70204C34.5709 2.0647 36.1453 2.60005 37.6535 3.34839C39.1617 4.09385 40.5922 5.06093 41.9162 6.18632C43.2373 7.31459 44.4432 8.6213 45.4535 10.0921C46.4666 11.5629 47.2582 13.1574 47.8252 14.8009C48.3922 16.4443 48.7347 18.1338 48.9045 19.8061C48.9362 20.2263 48.9822 20.6437 48.9995 21.0581C49.0081 21.4755 49.0196 21.8899 49.0283 22.3015C49.034 22.7131 49.0052 23.1247 48.9966 23.5334C48.9592 23.9421 48.9333 24.3479 48.8786 24.748C48.6685 26.3541 48.2339 27.8939 47.641 29.3244C47.0452 30.752 46.3256 32.0789 45.5974 33.3453C44.8577 34.6059 44.141 35.8292 43.4503 37.0121C42.0687 39.3809 41.3463 41.8648 40.9376 44.1502C40.7332 45.2957 40.6037 46.3981 40.5289 47.4429C40.4483 48.4876 40.4166 49.4778 40.4108 50.4017C40.4108 52.2524 40.4339 53.8498 40.6353 55.1364C40.8253 56.4258 41.0872 57.4044 41.2916 58.0578C41.3981 58.383 41.4873 58.6305 41.5535 58.7917C41.5852 58.8752 41.6139 58.9327 41.6312 58.9759C41.6485 59.0162 41.6542 59.0392 41.6542 59.0392C41.6542 59.0392 41.4815 58.7197 41.2628 58.0693C41.0469 57.4188 40.7764 56.4373 40.5749 55.145C40.3648 53.8527 40.3331 52.2524 40.3245 50.4017C40.3245 49.4749 40.3562 48.4848 40.431 47.4342C40.5029 46.3865 40.6267 45.2784 40.8282 44.13C41.2311 41.8361 41.9507 39.3349 43.3351 36.9488C44.0259 35.7659 44.7397 34.5398 45.4765 33.2791C46.2018 32.0127 46.9185 30.6916 47.5086 29.2726C48.0928 27.8536 48.5217 26.3253 48.7318 24.7307C48.7836 24.3336 48.8095 23.9277 48.8469 23.5248C48.8556 23.1189 48.8815 22.7102 48.8786 22.3015C48.87 21.8899 48.8584 21.4783 48.8498 21.0639C48.8297 20.6494 48.7836 20.235 48.7548 19.8205C48.585 18.1569 48.2454 16.4789 47.6813 14.8498C47.12 13.2178 46.3342 11.6377 45.3269 10.1784C44.3224 8.71916 43.1279 7.42108 41.8154 6.30145C40.5001 5.1847 39.0811 4.22337 37.5844 3.48366C36.0878 2.74108 34.5249 2.20861 32.9562 1.84595C31.3905 1.48042 29.819 1.28758 28.282 1.25016C26.745 1.20699 25.2455 1.29909 23.8035 1.50344C22.3615 1.71643 20.9857 2.06182 19.6905 2.49068C17.0943 3.3599 14.8723 4.67237 13.0216 6.07695C11.1882 7.50743 9.73469 9.05879 8.63232 10.5382C7.52421 12.0205 6.77299 13.4337 6.23764 14.6195C5.73107 15.8198 5.42598 16.7868 5.25616 17.4488C5.17557 17.7798 5.11225 18.0331 5.06908 18.2058C5.0259 18.3756 5 18.462 5 18.462Z" fill="black"/>
<path d="M26.0153 25.8221C28.7399 25.8221 30.9486 23.6134 30.9486 20.8888C30.9486 18.1643 28.7399 15.9556 26.0153 15.9556C23.2907 15.9556 21.082 18.1643 21.082 20.8888C21.082 23.6134 23.2907 25.8221 26.0153 25.8221Z" fill="black"/>
<path d="M76.8086 115.725L80.5067 117.021L80.4673 120.576C78.6983 121.076 78.4494 121.971 78.4494 121.971L82.15 121.887L85.3701 115.341L82.8226 113.675L78.0626 111.593" fill="black"/>
<g opacity="0.6">
<path d="M85.3674 115.34L82.1473 121.886L78.4492 121.97L78.8533 121.406L81.8566 121.172L84.8254 114.985L85.3674 115.34Z" fill="black"/>
</g>
<path d="M80.4568 118.948C80.4839 118.985 80.6958 118.859 80.9816 118.861C81.2674 118.854 81.4817 118.977 81.5088 118.94C81.5433 118.911 81.329 118.694 80.9816 118.699C80.6342 118.699 80.4223 118.921 80.4568 118.948Z" fill="black"/>
<path d="M80.4943 118.065C80.5313 118.089 80.6914 117.868 80.9846 117.804C81.2778 117.737 81.5168 117.87 81.5414 117.831C81.5537 117.813 81.5094 117.752 81.4034 117.698C81.3 117.643 81.13 117.604 80.9501 117.643C80.7678 117.685 80.6323 117.791 80.5608 117.885C80.4894 117.978 80.4746 118.052 80.4943 118.062V118.065Z" fill="black"/>
<path d="M80.4502 116.934C80.4921 116.954 80.6128 116.737 80.8691 116.641C81.1228 116.542 81.3569 116.623 81.3766 116.584C81.3865 116.564 81.3372 116.515 81.2337 116.478C81.1327 116.441 80.9725 116.429 80.8124 116.49C80.6523 116.552 80.5414 116.668 80.4896 116.761C80.4354 116.857 80.433 116.926 80.4527 116.934H80.4502Z" fill="black"/>
<path d="M80.1728 116.932C80.2172 116.92 80.1901 116.688 80.301 116.437C80.4044 116.183 80.5917 116.042 80.5695 116.003C80.5572 115.961 80.2812 116.065 80.1507 116.375C80.0176 116.683 80.131 116.954 80.1728 116.934V116.932Z" fill="black"/>
<path d="M79.7352 116.514C79.7574 116.514 79.7894 116.325 79.8215 116.017C79.8387 115.839 79.8535 115.659 79.8707 115.475C79.8732 115.374 79.9003 115.27 79.8707 115.13C79.8535 115.061 79.8116 114.989 79.7402 114.945C79.6687 114.896 79.5529 114.906 79.4889 114.955C79.3607 115.056 79.3238 115.172 79.2794 115.283C79.24 115.396 79.2203 115.509 79.2129 115.618C79.2006 115.834 79.2474 116.029 79.3115 116.177C79.4445 116.477 79.6293 116.586 79.6367 116.574C79.6589 116.554 79.511 116.421 79.4199 116.137C79.3755 115.997 79.346 115.822 79.3632 115.63C79.3731 115.534 79.3952 115.435 79.4297 115.339C79.4667 115.246 79.5184 115.135 79.5825 115.09C79.6145 115.071 79.6342 115.071 79.6588 115.085C79.686 115.1 79.7106 115.135 79.7204 115.172C79.7426 115.25 79.7254 115.364 79.7254 115.467C79.7204 115.652 79.7155 115.832 79.7106 116.012C79.7081 116.322 79.7155 116.514 79.7377 116.514H79.7352Z" fill="black"/>
<path d="M79.6762 116.675C79.691 116.665 79.5826 116.502 79.2968 116.411C79.0234 116.325 78.5405 116.345 78.2473 116.786C78.2325 116.828 78.235 116.887 78.2621 116.929C78.2892 116.973 78.3261 116.995 78.3581 117.007C78.4247 117.035 78.4813 117.037 78.5306 117.042C78.6341 117.052 78.7376 117.049 78.8312 117.042C79.0233 117.025 79.1884 116.975 79.3215 116.916C79.5875 116.8 79.7083 116.665 79.696 116.65C79.6812 116.628 79.5383 116.727 79.2796 116.808C79.1515 116.847 78.9938 116.882 78.8189 116.892C78.7302 116.897 78.639 116.892 78.5454 116.884C78.4961 116.877 78.4493 116.874 78.4197 116.86C78.3877 116.84 78.3976 116.847 78.3976 116.835C78.4 116.818 78.437 116.778 78.4715 116.746C78.506 116.714 78.5429 116.685 78.5799 116.66C78.6563 116.608 78.7376 116.571 78.8164 116.544C78.979 116.493 79.1367 116.495 79.2648 116.52C79.5235 116.574 79.6565 116.695 79.6713 116.672L79.6762 116.675Z" fill="black"/>
<g opacity="0.6">
<path d="M82.4102 115.294C82.4152 115.535 82.6172 115.727 82.8587 115.722C83.1001 115.717 83.2923 115.515 83.2873 115.274C83.2824 115.033 83.0804 114.84 82.8389 114.845C82.5975 114.85 82.4053 115.052 82.4102 115.294Z" fill="black"/>
</g>
<path d="M57.8411 114.236L57.8904 119.08C57.8904 119.08 52.9826 120.757 52.9062 121.654L62.303 121.893L62.5346 114.342L57.8411 114.233V114.236Z" fill="#263238"/>
<g opacity="0.6">
<path d="M60.8048 118.747C60.9847 118.801 61.1054 119.008 61.0586 119.19C61.0118 119.373 60.8023 119.498 60.62 119.447C60.4377 119.395 60.2874 119.151 60.3539 118.974C60.4205 118.796 60.6767 118.666 60.8393 118.759" fill="#263238"/>
</g>
<g opacity="0.6">
<path d="M62.3022 121.894L62.2948 121.132L53.2873 121.187C53.2873 121.187 52.8636 121.359 52.903 121.655L62.2997 121.894H62.3022Z" fill="#263238"/>
</g>
<path d="M57.7424 119.028C57.7424 119.075 57.9716 119.099 58.1933 119.255C58.42 119.402 58.5308 119.604 58.5727 119.587C58.6146 119.58 58.553 119.304 58.282 119.122C58.011 118.939 57.7326 118.986 57.7424 119.028Z" fill="#263238"/>
<path d="M56.7447 119.412C56.7324 119.456 56.9295 119.54 57.0798 119.737C57.2374 119.931 57.2695 120.141 57.3163 120.141C57.3582 120.148 57.3976 119.882 57.2054 119.638C57.0157 119.394 56.7472 119.367 56.7447 119.412Z" fill="#263238"/>
<path d="M56.1512 120.575C56.1931 120.585 56.262 120.359 56.1512 120.105C56.0428 119.849 55.8284 119.745 55.8063 119.782C55.7792 119.819 55.9147 119.957 56.0034 120.169C56.097 120.376 56.1044 120.571 56.1512 120.575Z" fill="#263238"/>
<path d="M57.8492 117.924C57.8664 117.966 58.0783 117.909 58.3395 117.931C58.5982 117.951 58.7977 118.042 58.8224 118.003C58.8495 117.971 58.6573 117.796 58.3518 117.771C58.0463 117.744 57.827 117.884 57.8492 117.921V117.924Z" fill="#263238"/>
<g opacity="0.3">
<path d="M57.8555 115.198L57.8653 116.06L62.4824 116.136L62.5095 115.358L57.8555 115.198Z" fill="black"/>
</g>
<path d="M57.8613 116.946C57.8613 116.966 58.0412 116.998 58.3319 116.956C58.4773 116.934 58.6473 116.892 58.8271 116.818C58.9183 116.781 59.0094 116.734 59.1006 116.683C59.1449 116.655 59.1967 116.628 59.246 116.577C59.2977 116.53 59.3297 116.409 59.2731 116.333C59.2262 116.259 59.1425 116.227 59.076 116.222C59.007 116.217 58.9503 116.229 58.8986 116.242C58.7926 116.264 58.6941 116.296 58.6029 116.335C58.4206 116.412 58.2728 116.513 58.1619 116.609C57.9377 116.806 57.8589 116.973 57.8761 116.983C57.8958 116.998 58.0067 116.857 58.2334 116.697C58.3467 116.618 58.4896 116.535 58.6596 116.471C58.7434 116.439 58.8345 116.414 58.9331 116.394C59.0341 116.37 59.1178 116.372 59.1425 116.416C59.1523 116.434 59.1523 116.441 59.1302 116.468C59.108 116.495 59.0661 116.52 59.0242 116.547C58.9404 116.599 58.8542 116.643 58.7729 116.683C58.6078 116.759 58.4477 116.811 58.3147 116.845C58.0436 116.914 57.8663 116.922 57.8663 116.946H57.8613Z" fill="#263238"/>
<path d="M57.918 117.012C57.9353 117.02 58.0289 116.857 58.0536 116.562C58.0659 116.414 58.0536 116.236 58.0018 116.044C57.9747 115.948 57.9378 115.852 57.8885 115.756C57.8367 115.662 57.7727 115.537 57.5953 115.51C57.5017 115.505 57.4228 115.574 57.3957 115.635C57.3637 115.697 57.3563 115.753 57.344 115.808C57.3243 115.916 57.3243 116.024 57.3366 116.125C57.3612 116.325 57.4376 116.495 57.5263 116.616C57.7037 116.865 57.8934 116.924 57.8983 116.909C57.9131 116.887 57.7554 116.793 57.6224 116.557C57.5559 116.438 57.4992 116.286 57.4844 116.111C57.477 116.024 57.482 115.931 57.4992 115.84C57.5165 115.741 57.5559 115.66 57.5928 115.672C57.6396 115.672 57.716 115.751 57.753 115.83C57.7998 115.916 57.8343 116.002 57.8638 116.089C57.918 116.261 57.9402 116.424 57.9427 116.562C57.9476 116.837 57.8959 117.007 57.9205 117.015L57.918 117.012Z" fill="#263238"/>
<path d="M79.6796 111.768L68.8613 107.745L80.2339 106.148L80.808 100.607L59.5385 102.465L56.5352 106.789L57.326 112.214L78.0486 117.482L79.6796 111.768Z" fill="black"/>
<path d="M56.7438 115.647L55.709 95.8455C55.7657 93.9164 56.8152 92.1548 58.4856 91.189C59.8653 90.3908 61.5234 90.2208 63.0386 90.7259L76.8381 95.3257L84.4116 97.272C84.4116 97.272 85.7026 100.455 84.9438 102.926C84.2022 105.346 81.5488 106.957 79.2156 106.265C76.3158 105.405 63.0091 99.6816 63.0091 99.6816V115.807L56.7462 115.647H56.7438Z" fill="black"/>
<path d="M79.011 106.319C79.011 106.319 78.9814 106.312 78.9297 106.292C78.8705 106.27 78.7917 106.238 78.6932 106.201C78.4788 106.115 78.1758 105.994 77.789 105.839C76.9981 105.516 75.8648 105.055 74.4703 104.486C71.6666 103.328 67.8034 101.734 63.5387 99.9752C63.3489 99.8963 63.1592 99.8175 62.9818 99.7436L63.0705 99.6845C63.0631 104.164 63.0558 108.192 63.0508 111.109C63.0434 112.558 63.036 113.73 63.0311 114.551C63.0262 114.95 63.0213 115.263 63.0188 115.484C63.0163 115.585 63.0139 115.667 63.0114 115.726C63.0114 115.78 63.0065 115.81 63.004 115.81C63.0016 115.81 62.9991 115.783 62.9966 115.726C62.9966 115.664 62.9942 115.585 62.9892 115.484C62.9868 115.263 62.9818 114.95 62.9769 114.551C62.972 113.733 62.9646 112.56 62.9572 111.109C62.9523 108.192 62.9449 104.164 62.9375 99.6845V99.5884L63.0262 99.6253C63.2011 99.6992 63.3908 99.7781 63.583 99.8569C67.8428 101.631 71.701 103.237 74.4999 104.403C75.8894 104.989 77.0153 105.462 77.8037 105.795C78.1881 105.96 78.4862 106.088 78.7006 106.179C78.7966 106.221 78.873 106.255 78.9321 106.282C78.9839 106.307 79.011 106.319 79.0085 106.322L79.011 106.319Z" fill="black"/>
<path d="M66.2683 106.341C66.2732 106.309 66.9507 106.432 67.6849 106.841C68.4216 107.245 68.8848 107.758 68.8601 107.778C68.833 107.807 68.3403 107.349 67.6209 106.952C66.9039 106.553 66.2535 106.378 66.2658 106.339L66.2683 106.341Z" fill="black"/>
<path d="M61.8031 97.0018C61.8327 96.9846 62.1875 97.571 62.5324 98.3421C62.8773 99.1108 63.0793 99.7662 63.0473 99.7785C63.0128 99.7908 62.759 99.1601 62.4166 98.3963C62.0741 97.6326 61.7711 97.0215 61.8031 97.0043V97.0018Z" fill="black"/>
<path d="M61.8379 88.28L59.3963 87.8242L56.834 90.4383L57.307 92.1037L60.2955 91.0049L61.8379 88.28Z" fill="#FFBE9D"/>
<path d="M52.814 59.2485L52.1537 59.3052C52.1537 59.3052 50.9637 59.4998 50.9637 59.5269C50.9637 59.554 50.4414 60.2833 50.4389 60.2858L49.9609 61.0249C49.9609 61.0249 50.3477 61.1678 50.6286 60.9017L50.4611 61.2737C50.4611 61.2737 51.0031 61.5103 51.3801 60.9165C51.5919 60.5814 51.7767 60.3326 51.8974 60.1798L52.1143 60.1601C52.1315 60.2045 52.9667 61.3821 52.984 61.355C53.0012 61.3279 53.696 60.6578 53.696 60.6578L52.8115 59.2485H52.814Z" fill="#EB996E"/>
<path d="M54.5811 64.3779L54.7757 60.7217L52.923 58.6226L50.8855 58.7457L50.0527 59.3272C50.0946 59.5292 50.6736 59.6672 51.2969 59.4873C51.9005 59.3124 52.5805 59.443 52.5805 59.443L53.364 60.8104L52.8466 61.382L53.5118 64.8879L54.5836 64.3754L54.5811 64.3779Z" fill="#FFBE9D"/>
<path d="M49.1778 59.5605H55.8003C55.9679 59.5605 56.1034 59.6961 56.1034 59.8636C56.1034 60.0311 55.9679 60.1666 55.8003 60.1666H49.1778L48.5273 59.8636L49.1778 59.5605Z" fill="black"/>
<path d="M52.5281 65.3606L51.8531 63.7025C51.7669 63.4906 51.7274 63.2664 51.7397 63.0373C51.7693 62.4411 51.8137 61.2437 51.7225 60.9702C51.5993 60.6006 51.1041 59.3343 51.3825 59.1495C51.6609 58.9647 52.0453 58.9031 52.3163 59.6422C52.5873 60.3838 53.42 61.9877 53.42 61.9877L54.0507 64.6313L52.5281 65.3606Z" fill="#FFBE9D"/>
<path d="M53.3349 61.8251C53.3201 61.8325 53.1747 61.5614 52.9505 61.118C52.7288 60.6794 52.4282 60.0413 52.1079 59.381C52.0168 59.2332 51.8665 59.1223 51.7162 59.1248C51.5634 59.1273 51.423 59.2357 51.3861 59.3712C51.3442 59.5091 51.3737 59.6644 51.3984 59.8048C51.4255 59.9477 51.455 60.0783 51.4871 60.1965C51.6152 60.672 51.7507 60.9504 51.7334 60.9578C51.726 60.9603 51.6842 60.8962 51.6201 60.7706C51.5585 60.6449 51.4772 60.4601 51.4008 60.2212C51.3639 60.1004 51.3269 59.9699 51.2949 59.8245C51.2653 59.6816 51.2234 59.519 51.2727 59.3367C51.322 59.1519 51.5043 59.0065 51.7113 58.9991C51.9281 58.9942 52.1079 59.142 52.2139 59.3096C52.5563 60.0093 52.8273 60.6203 53.0318 61.0785C53.2314 61.5319 53.3497 61.8177 53.3324 61.8251H53.3349Z" fill="#EB996E"/>
<path d="M84.1893 97.2264L83.5142 96.0413L76.293 94.2329L77.143 95.7013L84.1893 97.2264Z" fill="#0033FF"/>
<path d="M51.8926 65.3598L56.4382 76.1313C56.8669 77.1488 57.6824 77.9545 58.7024 78.3733L68.5105 82.4016L70.7944 76.0845L61.2425 72.7018L55.0388 63.8569L51.8926 65.3623V65.3598Z" fill="#0033FF"/>
<path d="M66.661 76.1887C66.6708 76.4425 65.6016 84.2797 65.6016 85.8786C65.6016 87.4776 68.6665 89.217 68.6665 89.217L72.0245 96.3446H83.9811L79.8938 88.6701L78.0459 82.5205C77.3462 80.1898 76.07 78.0735 74.3355 76.3661L72.3399 75.0308L66.6634 76.1863L66.661 76.1887Z" fill="#0033FF"/>
<path d="M70.1327 82.3778L72.1407 90.8038L62.0122 87.9508L60.2852 91.0009L73.4637 97.0026C75.0873 97.7417 77.0066 97.2194 78.0315 95.7584C78.6524 94.8739 78.8569 93.7603 78.5883 92.7108L75.6368 81.1804C75.2302 79.5938 73.5623 78.6847 72.0077 79.207C70.6846 79.6529 69.8864 80.9981 70.1303 82.3729L70.1327 82.3778Z" fill="#0033FF"/>
<path d="M68.6672 89.2184C68.6672 89.2184 68.6253 89.2061 68.5514 89.1691C68.4775 89.1321 68.3691 89.0755 68.2311 88.9991C67.9577 88.8439 67.5659 88.6074 67.12 88.2624C66.6839 87.9126 66.1567 87.4617 65.8117 86.7768C65.4865 86.0746 65.5112 85.2123 65.6294 84.3673C65.7526 83.5148 65.9275 82.7215 66.031 81.9873C66.1443 81.2555 66.2207 80.5928 66.2626 80.0335C66.3045 79.4743 66.3119 79.0234 66.3119 78.708C66.3119 78.3951 66.302 78.2227 66.3119 78.2202C66.3168 78.2202 66.3242 78.2621 66.3316 78.3459C66.3414 78.4272 66.3513 78.5504 66.3612 78.708C66.3784 79.0209 66.3858 79.4767 66.3538 80.0385C66.3242 80.6002 66.2552 81.2679 66.1493 82.0021C66.0532 82.7387 65.8807 83.5394 65.7575 84.382C65.6393 85.2197 65.6196 86.0574 65.9201 86.7226C66.2404 87.378 66.7529 87.8337 67.1767 88.1861C67.6103 88.5359 67.9922 88.7823 68.2558 88.9498C68.5219 89.1174 68.6697 89.2036 68.6672 89.2134V89.2184Z" fill="#0033FF"/>
<path d="M74.2526 80.1431C74.2353 80.1801 73.6662 79.8623 72.8876 79.8154C72.1091 79.7563 71.503 79.9953 71.4907 79.9559C71.471 79.9312 72.082 79.6282 72.895 79.6873C73.7081 79.7366 74.2723 80.1209 74.2501 80.1431H74.2526Z" fill="#0033FF"/>
<path d="M72.8843 75.5973C72.8843 75.5973 72.8252 75.6761 72.702 75.8018C72.5788 75.9274 72.3965 76.1048 72.1649 76.3192C71.7042 76.7479 71.0513 77.3244 70.3023 77.9255C69.5533 78.5267 68.8487 79.0391 68.3288 79.3939C68.0701 79.5713 67.8558 79.7118 67.708 79.8054C67.5577 79.899 67.4739 79.9458 67.469 79.9384C67.464 79.931 67.5404 79.8694 67.6809 79.7635C67.8435 79.6428 68.043 79.4949 68.2795 79.32C68.7846 78.9455 69.4769 78.4232 70.2259 77.8245C70.9724 77.2258 71.6327 76.6616 72.1082 76.2502C72.3299 76.058 72.5172 75.8954 72.6724 75.7624C72.8055 75.649 72.8843 75.5874 72.8892 75.5948L72.8843 75.5973Z" fill="#0033FF"/>
<path d="M61.2397 72.7248C61.2521 72.7593 60.885 72.917 60.4784 73.183C60.0695 73.4491 59.7787 73.7226 59.7516 73.6955C59.727 73.6733 59.9832 73.3506 60.407 73.0746C60.8283 72.7962 61.2299 72.6903 61.2373 72.7223L61.2397 72.7248Z" fill="#0033FF"/>
<path d="M71.1034 86.196C71.1034 86.196 71.027 86.2305 70.8841 86.2675C70.7412 86.3069 70.5269 86.3463 70.2632 86.3759C69.9971 86.4079 69.6793 86.4178 69.327 86.4005C68.9747 86.3783 68.5879 86.3266 68.1912 86.2281C67.7946 86.127 67.4299 85.9915 67.1096 85.8437C66.7918 85.691 66.5134 85.5333 66.2966 85.3805C66.0773 85.2278 65.9073 85.0947 65.8014 84.9912C65.693 84.8902 65.6339 84.8311 65.6412 84.8237C65.656 84.8065 65.9024 85.0233 66.3483 85.3041C66.7918 85.585 67.4496 85.9078 68.2257 86.1049C69.0043 86.297 69.736 86.3241 70.2583 86.2847C70.7831 86.2478 71.1034 86.1714 71.1083 86.196H71.1034Z" fill="#0033FF"/>
<path d="M71.7926 89.9007C71.7926 89.9155 71.6227 89.9623 71.3393 89.9845C71.056 90.0067 70.6569 89.9968 70.2282 89.9106C69.7995 89.8219 69.4275 89.6765 69.1762 89.5435C68.9224 89.4104 68.7819 89.302 68.7893 89.2897C68.8091 89.2528 69.4127 89.6174 70.2528 89.7849C71.0905 89.9599 71.7902 89.8613 71.7926 89.9032V89.9007Z" fill="#0033FF"/>
<path d="M77.0294 87.5997C77.0294 87.5997 76.9654 87.6465 76.8422 87.7131C76.719 87.7796 76.5318 87.8633 76.2977 87.957C75.8296 88.1442 75.1595 88.3487 74.3957 88.4546C73.6319 88.5606 72.9298 88.5458 72.4296 88.4916C72.1783 88.4645 71.9763 88.4349 71.8408 88.4029C71.7028 88.3733 71.6289 88.3536 71.6289 88.3462C71.6314 88.3241 71.9393 88.3709 72.437 88.4004C72.9347 88.43 73.6245 88.43 74.3784 88.3265C75.1324 88.2206 75.7976 88.0358 76.2681 87.8707C76.7387 87.7081 77.022 87.58 77.0319 87.5973L77.0294 87.5997Z" fill="#0033FF"/>
<path d="M76.0915 83.474C76.0865 83.4937 75.7786 83.437 75.276 83.3754C74.7734 83.3163 74.0737 83.2646 73.3025 83.2917C72.5314 83.3212 71.8366 83.4198 71.3414 83.5183C70.8437 83.6144 70.5407 83.6932 70.5333 83.6735C70.5308 83.6661 70.6047 83.6366 70.7402 83.5898C70.8757 83.543 71.0728 83.4863 71.3217 83.4272C71.8169 83.3064 72.5166 83.1906 73.2976 83.1611C74.0786 83.134 74.7832 83.198 75.2883 83.2843C75.5396 83.3261 75.7416 83.368 75.8796 83.405C76.0176 83.4395 76.0939 83.4641 76.0915 83.4715V83.474Z" fill="#0033FF"/>
<path d="M78.1792 95.0007C78.1792 95.0007 78.0757 94.9884 77.891 94.944C77.7062 94.9021 77.445 94.8208 77.1272 94.7075C76.4916 94.4808 75.6366 94.0817 74.7916 93.4879C73.9465 92.8917 73.2813 92.224 72.8501 91.7042C72.6358 91.443 72.4707 91.2238 72.3697 91.0661C72.2662 90.9084 72.212 90.8197 72.2194 90.8148C72.2391 90.8025 72.4756 91.1425 72.9216 91.6451C73.3651 92.1477 74.0303 92.7956 74.8679 93.3845C75.7056 93.9708 76.5408 94.3774 77.1642 94.6237C77.7875 94.8701 78.1891 94.9785 78.1842 95.0007H78.1792Z" fill="#0033FF"/>
<path d="M69.0961 94.875C69.0813 94.875 69.0517 94.6089 69.0665 94.1728C69.0788 93.7392 69.1478 93.1405 69.3154 92.4975C69.4854 91.8544 69.7194 91.3001 69.9214 90.9157C70.1235 90.5314 70.2787 90.3121 70.291 90.3195C70.3083 90.3294 70.1801 90.5634 70.0028 90.9552C69.8254 91.3444 69.6061 91.8988 69.441 92.532C69.2759 93.1651 69.1946 93.754 69.1577 94.1802C69.1207 94.6089 69.1183 94.875 69.0961 94.875Z" fill="#0033FF"/>
<path d="M63.0006 92.1015C62.9858 92.1015 62.971 91.8749 63.0055 91.5127C63.0449 91.153 63.1509 90.6405 63.4416 90.1552C63.7348 89.6698 64.1166 89.3274 64.3926 89.0933C64.6735 88.8617 64.8607 88.7385 64.8706 88.7508C64.8829 88.7656 64.7153 88.9159 64.4517 89.1623C64.193 89.4111 63.8309 89.7585 63.55 90.2242C63.2691 90.6898 63.1533 91.1776 63.0917 91.5299C63.0351 91.8847 63.0178 92.1089 62.9956 92.1065L63.0006 92.1015Z" fill="#0033FF"/>
<path d="M83.1869 94.8121C83.1918 94.8268 82.9258 94.955 82.4749 95.125C82.0265 95.295 81.3933 95.5044 80.6764 95.6645C79.9594 95.8247 79.2893 95.8863 78.8064 95.869C78.6856 95.869 78.5772 95.8592 78.4812 95.8468C78.3851 95.8394 78.3038 95.8271 78.2372 95.8123C78.1042 95.7852 78.0328 95.768 78.0352 95.7581C78.0401 95.736 78.3309 95.7852 78.8088 95.7754C79.2843 95.7705 79.9397 95.6941 80.6517 95.5364C81.3613 95.3787 81.9945 95.1841 82.4478 95.0363C82.9036 94.8884 83.182 94.7899 83.1894 94.8071L83.1869 94.8121Z" fill="#0033FF"/>
<path d="M80.4809 89.9414C80.4956 89.9463 80.4168 90.0966 80.2098 90.2494C80.0078 90.4021 79.6974 90.5697 79.3401 90.7076C78.9829 90.8456 78.6478 90.9392 78.4015 90.9836C78.2783 91.0057 78.1748 91.0181 78.1033 91.0131C78.0319 91.0131 77.9876 90.9885 77.9949 90.9836C78.0023 90.9737 78.1428 90.9663 78.3818 90.8949C78.6183 90.8284 78.9435 90.7224 79.2958 90.5869C79.6481 90.4514 79.9536 90.3036 80.1606 90.1755C80.37 90.0498 80.4661 89.9316 80.4833 89.9439L80.4809 89.9414Z" fill="#0033FF"/>
<path d="M78.7937 84.9957C78.7937 84.9957 78.7986 85.0376 78.7568 85.0844C78.7173 85.1337 78.6484 85.1879 78.5597 85.2445C78.3798 85.3603 78.1162 85.4835 77.8156 85.5919C77.515 85.7003 77.2342 85.7767 77.0223 85.8063C76.8129 85.8408 76.6749 85.8137 76.6798 85.7964C76.6823 85.7792 76.8055 85.7742 77.005 85.7176C77.2046 85.6658 77.4756 85.5796 77.7713 85.4712C78.0669 85.3653 78.3305 85.2569 78.5153 85.1657C78.6065 85.1214 78.6779 85.0819 78.7223 85.0474C78.7691 85.0179 78.7839 84.9908 78.7937 84.9957Z" fill="#0033FF"/>
<path d="M70.0044 82.3788C70.0044 82.3935 69.7826 82.4157 69.4254 82.4009C69.0682 82.3886 68.5729 82.3344 68.0383 82.2088C67.5061 82.0806 67.038 81.9082 66.7128 81.7579C66.3876 81.6101 66.1979 81.4918 66.2053 81.477C66.2225 81.4401 67.0134 81.8367 68.0679 82.0831C69.1199 82.3369 70.0044 82.3369 70.0044 82.3788Z" fill="#0033FF"/>
<path d="M77.0996 80.1514C77.1242 80.1859 76.7694 80.4248 76.289 80.617C75.8135 80.8166 75.3922 80.893 75.3848 80.8511C75.3799 80.824 75.7692 80.6959 76.2397 80.4988C76.7152 80.3115 77.0799 80.1292 77.0971 80.1538L77.0996 80.1514Z" fill="#0033FF"/>
<path d="M71.5779 76.9517C71.5779 76.9517 71.7306 77.0305 71.9204 77.2227C72.1101 77.4149 72.3417 77.7179 72.5141 78.0973C72.6866 78.4767 72.763 78.8488 72.7827 79.1198C72.8024 79.3908 72.7777 79.5583 72.763 79.5559C72.7211 79.5583 72.7359 78.8833 72.3959 78.1491C72.0657 77.4099 71.5459 76.9788 71.5754 76.9492L71.5779 76.9517Z" fill="#0033FF"/>
<path d="M63.8102 80.4529C63.8102 80.4529 63.7585 80.3741 63.6969 80.2214C63.6353 80.0661 63.5614 79.837 63.4998 79.5438C63.3741 78.9599 63.3495 78.1222 63.517 77.2304C63.6846 76.336 63.9728 75.5649 64.1872 75.0155C64.2956 74.7395 64.3892 74.5202 64.4557 74.37C64.5222 74.2197 64.5641 74.1359 64.5715 74.1408C64.5789 74.1433 64.5543 74.232 64.5025 74.3897C64.4385 74.572 64.3621 74.7913 64.2709 75.05C64.0788 75.6068 63.8077 76.3779 63.6402 77.2575C63.4751 78.137 63.4875 78.955 63.586 79.5315C63.6821 80.1105 63.8275 80.448 63.8053 80.4554L63.8102 80.4529Z" fill="#0033FF"/>
<path d="M58.0156 78.0849C58.0156 78.0849 58.023 77.9937 58.06 77.836C58.0945 77.6784 58.1585 77.4517 58.2546 77.1782C58.4419 76.6288 58.7819 75.8946 59.2869 75.1629C59.7969 74.4336 60.371 73.862 60.8194 73.4949C61.0436 73.3101 61.2333 73.1722 61.3688 73.0835C61.5043 72.9948 61.5807 72.9504 61.5881 72.9578C61.6004 72.9751 61.3072 73.182 60.8785 73.5639C60.4498 73.9458 59.8955 74.5174 59.3929 75.2368C58.8927 75.9562 58.5478 76.6756 58.3384 77.2103C58.129 77.7449 58.0378 78.0923 58.0156 78.0849Z" fill="#0033FF"/>
<path d="M58.9488 69.4292C58.9488 69.4514 58.6679 69.4662 58.2343 69.5894C57.8007 69.7076 57.2217 69.9491 56.6329 70.3038C56.044 70.6611 55.5611 71.0577 55.2433 71.378C54.923 71.6959 54.7604 71.925 54.7432 71.9127C54.7358 71.9077 54.7703 71.8462 54.8393 71.7377C54.8713 71.6835 54.9206 71.6219 54.9772 71.5505C55.0314 71.4766 55.0979 71.3977 55.1768 71.314C55.4823 70.974 55.9677 70.5576 56.5663 70.193C57.165 69.8333 57.7613 69.5967 58.2121 69.5007C58.323 69.4736 58.4265 69.4539 58.5176 69.444C58.6088 69.4317 58.6852 69.4218 58.7492 69.4218C58.8773 69.4194 58.9488 69.4218 58.9488 69.4292Z" fill="#0033FF"/>
<path d="M56.6505 66.07C56.6505 66.1143 55.6798 65.9345 54.5317 66.2326C53.3811 66.5159 52.6124 67.1343 52.5902 67.0974C52.5804 67.0875 52.7578 66.9175 53.0904 66.7081C53.4205 66.4962 53.9157 66.2572 54.4996 66.1094C55.0835 65.9616 55.633 65.9394 56.0247 65.9665C56.4164 65.9936 56.653 66.0577 56.6505 66.0724V66.07Z" fill="#0033FF"/>
<path d="M70.1352 82.377C70.1352 82.377 70.1549 82.4312 70.1845 82.5371C70.2141 82.6529 70.2559 82.8106 70.3077 83.0077C70.4136 83.429 70.5614 84.0252 70.7462 84.7643C71.1109 86.2746 71.6209 88.3762 72.2048 90.7882L72.2294 90.8917L72.1259 90.8621C71.3055 90.633 70.4383 90.3866 69.5439 90.1353C66.617 89.3026 63.9586 88.5487 62.0024 87.9919L62.0541 87.9697C61.517 88.901 61.0809 89.6573 60.773 90.192C60.6227 90.4457 60.5044 90.6453 60.4182 90.7931C60.3788 90.8547 60.3492 90.9065 60.3221 90.9484C60.2999 90.9828 60.2876 91.0001 60.2852 90.9976C60.2852 90.9976 60.2925 90.9779 60.3098 90.941C60.332 90.8966 60.3591 90.8449 60.3936 90.7808C60.4749 90.6305 60.5857 90.426 60.7262 90.1673C61.0267 89.6278 61.4505 88.864 61.9728 87.9253L61.9901 87.8933L62.0246 87.9032C63.9832 88.4501 66.6441 89.1942 69.5759 90.0121C70.4703 90.2634 71.3375 90.5098 72.1579 90.7414L72.0816 90.8153C71.5149 88.3984 71.0222 86.2943 70.6674 84.7816C70.4974 84.0375 70.3619 83.4389 70.2658 83.0151C70.2239 82.8155 70.1894 82.6578 70.1623 82.5396C70.1401 82.4312 70.1303 82.3745 70.1352 82.3745V82.377Z" fill="#0033FF"/>
<path d="M75.6829 81.855C75.6829 81.855 75.7051 81.9043 75.7322 82.0003C75.7617 82.1087 75.8012 82.2492 75.8504 82.4216C75.9514 82.8035 76.0894 83.3308 76.2594 83.9738C76.5945 85.3018 77.0527 87.1102 77.5578 89.1083C77.8066 90.1135 78.0481 91.0669 78.2526 91.9416C78.4546 92.8162 78.5458 93.6391 78.4448 94.3191C78.3536 95.0015 78.1023 95.514 77.8781 95.822C77.6539 96.1349 77.474 96.2531 77.474 96.2531C77.4642 96.2433 77.6317 96.1102 77.8362 95.7949C78.0432 95.4844 78.2748 94.9769 78.3536 94.3067C78.4398 93.6391 78.3437 92.8334 78.1343 91.9662C77.9175 91.094 77.6785 90.1406 77.4297 89.1378C76.9394 87.1373 76.4935 85.3239 76.1683 83.9935C76.0155 83.3455 75.8898 82.8158 75.8012 82.4315C75.7617 82.2566 75.7322 82.1161 75.7075 82.0053C75.6878 81.9067 75.678 81.855 75.6829 81.855Z" fill="#0033FF"/>
<g opacity="0.3">
<path d="M77.5246 96.3472C79.0078 96.4827 79.8676 95.6376 80.0278 94.4796C80.114 93.8415 79.9046 93.2059 79.6976 92.5973C78.7885 89.9316 77.8695 87.2436 76.4258 84.8242C76.9703 87.2436 77.665 89.5694 78.2095 91.9888C78.3869 92.7797 78.4534 93.2404 78.4387 94.051C78.4263 94.8615 78.0617 95.7411 77.5222 96.3472" fill="#0033FF"/>
</g>
<path d="M72.0703 74.5216C72.871 74.7655 73.7752 74.6546 74.4946 74.2235C75.2141 73.7923 75.7388 73.0507 75.9039 72.2303C76.3006 72.6097 76.8943 72.7354 77.4339 72.6368C77.9734 72.5383 78.4588 72.2401 78.8604 71.8681C79.5995 71.1832 80.0947 70.2002 80.0578 69.1925C80.0208 68.1848 79.3876 67.187 78.4391 66.847C77.4906 66.507 76.2882 66.9505 75.899 67.8793C75.7216 67.3521 76.1749 66.6376 76.0665 66.0931C75.8497 64.9967 75.1943 64.3562 74.6375 64.334" fill="black"/>
<path d="M73.2658 74.238C74.3498 72.3458 74.6627 69.8254 74.9362 67.645C75.0643 66.6201 75.2935 65.1591 74.5938 64.516C73.8448 63.8286 73.7733 62.7692 72.911 62.2371C72.0512 61.7074 70.8833 61.663 70.0703 62.2691" fill="black"/>
<path d="M67.6242 78.0043V75.0354C67.6242 75.0354 64.5322 74.4885 64.3499 72.0124C64.1676 69.5339 64.2316 63.8131 64.2316 63.8131C66.9368 62.3964 70.1742 62.6009 72.6921 64.3477L72.5665 73.0694L72.5714 75.9101L70.0411 77.9648L67.6267 79.8669V78.0018L67.6242 78.0043Z" fill="#FFBE9D"/>
<path d="M66.7358 68.979C67.1497 68.4468 67.8223 68.235 68.3766 68.6045C68.931 68.9741 69.1453 69.797 68.8472 70.403C68.6353 70.8317 68.1524 71.221 67.672 71.327C67.672 71.327 68.7856 73.3571 69.4927 73.8966C70.3353 74.5372 70.732 74.8526 71.7741 74.9782C72.7966 75.0989 72.6734 75.1113 73.2671 74.2416C73.6983 73.6084 73.8313 73.0023 73.8461 72.2287C73.8782 70.4006 73.9102 68.5749 73.9397 66.7469C73.9521 66.089 73.9619 65.4214 73.8141 64.7808C73.6663 64.1402 73.3386 63.5169 72.804 63.1572C72.2176 62.763 71.4785 62.7309 70.8133 62.5117C69.9805 62.2357 69.2734 61.6691 68.4924 61.2601C67.7139 60.8511 66.7579 60.6097 65.9769 61.0162C65.4177 61.3094 65.0432 61.8859 64.4987 62.2086C63.7226 62.6669 62.6656 62.5659 62.2936 63.746C62.1655 64.1525 62.1754 64.6009 62.3109 65.005C62.843 66.6064 64.7672 67.247 66.1518 66.5497C66.1789 66.8208 65.9227 67.4268 66.2011 68.2842C66.2898 68.5577 66.3243 68.9765 66.7382 68.9815" fill="black"/>
<path d="M67.1666 70.5262C67.1666 70.5262 67.1567 70.573 67.2011 70.6321C67.243 70.6913 67.3341 70.7627 67.4696 70.7701C67.7382 70.7947 68.0806 70.4966 68.0905 70.0852C68.1028 69.8856 68.0289 69.6885 67.9131 69.5604C67.7973 69.4323 67.6569 69.3633 67.5361 69.3387C67.2898 69.2869 67.1469 69.3805 67.1567 69.3978C67.1617 69.4249 67.3046 69.3855 67.5041 69.4594C67.6988 69.5234 67.9427 69.7501 67.9205 70.0778C67.9131 70.4005 67.6618 70.6371 67.4696 70.6469C67.2676 70.6592 67.1863 70.5114 67.169 70.5287L67.1666 70.5262Z" fill="#EB996E"/>
<path d="M79.7312 69.223C79.7312 69.223 79.7189 69.3092 79.6598 69.4546C79.6031 69.5999 79.4972 69.8044 79.3321 70.0311C79.0069 70.482 78.3614 71.0215 77.4917 71.1595C76.6195 71.2901 75.841 70.9599 75.4024 70.6199C75.1782 70.4499 75.0205 70.2824 74.9244 70.1592C74.8284 70.036 74.7865 69.9596 74.7914 69.9547C74.8111 69.9375 75.0033 70.2331 75.4541 70.546C75.8927 70.8564 76.6441 71.157 77.4695 71.0338C78.2948 70.9033 78.9231 70.4007 79.2582 69.9769C79.6031 69.5482 79.7041 69.2107 79.7288 69.223H79.7312Z" fill="#455A64"/>
<path d="M79.3891 68.8232C79.3891 68.8232 79.3694 68.8971 79.3028 69.0129C79.2363 69.1311 79.1279 69.2937 78.9678 69.4736C78.6549 69.8358 78.0956 70.262 77.3663 70.4295C76.6371 70.5971 75.9472 70.4492 75.5111 70.2546C75.2894 70.1585 75.1219 70.055 75.0135 69.9762C74.9051 69.8974 74.8508 69.8456 74.8558 69.8382C74.8681 69.8185 75.1046 70.0033 75.5432 70.1708C75.9768 70.3384 76.6395 70.464 77.3368 70.3039C78.034 70.1437 78.5785 69.7471 78.9012 69.412C79.2289 69.0745 79.3669 68.8108 79.3866 68.8232H79.3891Z" fill="#455A64"/>
<path d="M75.2456 72.0049C75.2456 72.0049 75.2136 72.0271 75.1421 72.0616C75.0707 72.0912 74.9623 72.1306 74.8169 72.1478C74.5262 72.1897 74.0778 72.1183 73.6368 71.8226C73.1884 71.5344 72.8163 70.9973 72.5256 70.3789C72.225 69.7629 71.9861 69.0386 71.518 68.4153C71.2864 68.1073 71.0006 67.8486 70.6729 67.6934C70.3477 67.5357 69.9978 67.4618 69.6603 67.4273C68.9877 67.3583 68.3644 67.4027 67.847 67.3312C67.3271 67.2721 66.9206 67.1193 66.6718 66.9666C66.5486 66.8877 66.4599 66.8163 66.4032 66.7645C66.349 66.7103 66.3219 66.6808 66.3244 66.6783C66.3318 66.6685 66.4476 66.7843 66.6964 66.9247C66.9477 67.0627 67.3444 67.1982 67.8568 67.2425C68.3668 67.3016 68.9828 67.2474 69.6726 67.3115C70.0151 67.3435 70.3822 67.4174 70.7271 67.5825C71.0745 67.7476 71.3775 68.0186 71.619 68.3413C72.1043 68.9893 72.3384 69.721 72.6316 70.3321C72.9149 70.948 73.2623 71.4654 73.686 71.7512C74.1024 72.0444 74.5286 72.1257 74.8095 72.101C75.0953 72.0813 75.2382 71.9926 75.2431 72.0074L75.2456 72.0049Z" fill="#455A64"/>
<path d="M75.005 71.1147C75.005 71.1147 74.9681 71.1221 74.8942 71.1245C74.8203 71.1245 74.7119 71.1171 74.5788 71.0851C74.3078 71.0186 73.9407 70.8116 73.6155 70.4322C73.4504 70.245 73.2927 70.0232 73.1523 69.7695C73.0094 69.5157 72.8813 69.2348 72.7384 68.9466C72.5955 68.6583 72.4403 68.3577 72.2333 68.0793C72.1299 67.9414 72.0141 67.8083 71.881 67.6925C71.817 67.6309 71.7406 67.5841 71.6667 67.5324C71.5928 67.4806 71.5213 67.4264 71.4375 67.3919C71.1197 67.2146 70.76 67.1406 70.42 67.0938C70.0751 67.0446 69.7376 67.047 69.4148 67.0421C68.7693 67.047 68.1829 67.0618 67.6902 66.9977C67.1999 66.9386 66.8155 66.8006 66.5741 66.6627C66.4509 66.5986 66.3721 66.5247 66.3105 66.4853C66.2514 66.4409 66.2243 66.4163 66.2267 66.4138C66.2341 66.404 66.3598 66.4927 66.5963 66.6183C66.8402 66.739 67.2171 66.8598 67.7 66.9066C68.1829 66.9583 68.7644 66.9337 69.4123 66.9238C69.7376 66.9238 70.08 66.9214 70.4348 66.9682C70.7871 67.0175 71.1591 67.0914 71.4967 67.2786C71.5854 67.3156 71.6617 67.3747 71.7406 67.4289C71.817 67.4831 71.8983 67.5324 71.9648 67.5989C72.1052 67.7245 72.2259 67.8625 72.3319 68.0079C72.5438 68.2986 72.7014 68.6066 72.8419 68.8973C72.9823 69.1905 73.108 69.4713 73.2435 69.7202C73.3765 69.9715 73.5268 70.1908 73.682 70.3755C73.99 70.75 74.3349 70.9594 74.5911 71.0383C74.8498 71.1171 75.005 71.0999 75.005 71.1147Z" fill="#455A64"/>
<path d="M75.5999 72.3784C75.5999 72.3784 75.5432 72.3464 75.4644 72.2626C75.3831 72.1813 75.2771 72.0532 75.1638 71.8807C74.9396 71.5407 74.7104 70.9962 74.6858 70.3606C74.6612 69.7274 74.846 69.1657 75.0431 68.8084C75.1416 68.6286 75.2377 68.4906 75.3116 68.4044C75.3855 68.3157 75.4323 68.2738 75.4373 68.2787C75.4545 68.2935 75.2944 68.4881 75.1244 68.8503C74.9544 69.2075 74.7893 69.7496 74.8139 70.3581C74.8386 70.9642 75.0431 71.4914 75.2426 71.8364C75.4422 72.1837 75.6171 72.3636 75.5999 72.3808V72.3784Z" fill="#E8505B"/>
</g>
<defs>
<clipPath id="clip0_180_3079">
<rect width="120" height="121.964" fill="white" transform="translate(0.5)"/>
</clipPath>
</defs>
</svg>
