<svg width="131" height="81" viewBox="0 0 131 81" fill="none" xmlns="http://www.w3.org/2000/svg">
<path opacity="0.5" fill-rule="evenodd" clip-rule="evenodd" d="M55.2406 38.6989C55.1218 38.7222 55.0754 38.8184 55.1657 38.9223L56.7173 40.6655C56.7612 40.7148 56.8309 40.7564 56.9084 40.7798C56.9807 40.8006 57.0452 40.8032 57.0994 40.7902C57.2182 40.7668 57.2672 40.6707 57.1743 40.5668L55.6227 38.8236C55.5788 38.7742 55.5065 38.7326 55.4291 38.7119C55.3568 38.6911 55.2922 38.6885 55.2406 38.6989ZM70.7463 56.1282C70.6301 56.1542 70.5811 56.2477 70.674 56.3516L72.2256 58.0948C72.2695 58.1442 72.3392 58.1857 72.4167 58.2091C72.489 58.2299 72.5535 58.2325 72.6077 58.2195C72.7265 58.1961 72.7755 58.1 72.6826 57.9961L71.131 56.2529C71.0871 56.2035 71.0148 56.162 70.9374 56.1412C70.8651 56.1178 70.8005 56.1178 70.7489 56.1282H70.7463ZM67.6457 52.6444C67.5295 52.6704 67.4805 52.7639 67.5734 52.8678L69.1224 54.611C69.1663 54.6604 69.236 54.702 69.3135 54.7253C69.3858 54.7461 69.4503 54.7487 69.5019 54.7357C69.6207 54.7123 69.6697 54.6162 69.5768 54.5123L68.0278 52.7691C67.9813 52.7172 67.909 52.6782 67.8341 52.6574C67.7619 52.634 67.6973 52.634 67.6431 52.6444H67.6457ZM64.5451 49.158C64.4289 49.184 64.3798 49.2775 64.4702 49.3814L66.0218 51.1246C66.0657 51.174 66.1354 51.2182 66.2103 51.239C66.2825 51.2597 66.3497 51.2623 66.4013 51.2493C66.5201 51.226 66.5691 51.1298 66.4762 51.0259L64.9246 49.2827C64.8807 49.2334 64.8084 49.1918 64.7309 49.171C64.6587 49.1502 64.5941 49.1476 64.5425 49.158H64.5451ZM61.4418 45.6716C61.3257 45.6976 61.2766 45.7911 61.3696 45.8951L62.9212 47.6383C62.9651 47.6902 63.0348 47.7318 63.1122 47.7526C63.1845 47.7733 63.2516 47.7759 63.3033 47.763C63.422 47.7396 63.4711 47.6434 63.3755 47.5395L61.8265 45.7963C61.7826 45.747 61.7103 45.7054 61.6329 45.6846C61.5606 45.6612 61.4961 45.6586 61.4418 45.6716ZM58.3412 42.1852C58.2225 42.2086 58.176 42.3048 58.2689 42.4087L59.818 44.1519C59.8644 44.2012 59.9315 44.2428 60.009 44.2662C60.0813 44.287 60.1458 44.2896 60.2 44.2766C60.3188 44.2532 60.3679 44.1571 60.2749 44.0531L58.7259 42.3099C58.6794 42.2606 58.6097 42.219 58.5323 42.1982C58.46 42.1749 58.3954 42.1749 58.3438 42.1852H58.3412ZM52.14 35.2151C52.0238 35.2411 51.9747 35.3346 52.0677 35.4385L53.6167 37.1817C53.6606 37.231 53.7303 37.2726 53.8077 37.296C53.88 37.3168 53.9446 37.3194 53.9962 37.3064C54.115 37.283 54.164 37.1869 54.0711 37.083L52.522 35.3398C52.4756 35.2878 52.4033 35.2488 52.3284 35.2281C52.2561 35.2073 52.1916 35.2047 52.1374 35.2151H52.14ZM49.0367 31.7287C48.9206 31.7547 48.8715 31.8482 48.9619 31.9521L50.5135 33.6953C50.5574 33.7447 50.6271 33.7862 50.7045 33.8096C50.7768 33.8304 50.8439 33.833 50.8956 33.82C51.0143 33.7966 51.0634 33.7005 50.9704 33.5966L49.4188 31.8534C49.375 31.804 49.3052 31.7625 49.2252 31.7417C49.1555 31.7209 49.0884 31.7183 49.0367 31.7287ZM45.9361 28.2423C45.8199 28.2683 45.7709 28.3618 45.8638 28.4657L47.4129 30.2089C47.4567 30.2583 47.5265 30.2998 47.6039 30.3232C47.6762 30.344 47.7407 30.3466 47.7924 30.3336C47.9111 30.3102 47.9602 30.2141 47.8672 30.1102L46.3182 28.367C46.2717 28.3176 46.202 28.2761 46.1246 28.2553C46.0523 28.2319 45.9878 28.2319 45.9335 28.2423H45.9361ZM42.8355 24.7559C42.7167 24.7793 42.6703 24.8754 42.7606 24.9793L44.3096 26.7225C44.3561 26.7719 44.4232 26.8134 44.5007 26.8368C44.573 26.8576 44.6375 26.8602 44.6917 26.8472C44.8105 26.8238 44.8595 26.7277 44.7666 26.6238L43.2176 24.8806C43.1737 24.8312 43.1014 24.7897 43.024 24.7689C42.9517 24.7455 42.8871 24.7455 42.8355 24.7559ZM39.7323 21.2695C39.6135 21.2929 39.567 21.389 39.66 21.4929L41.2116 23.2361C41.2555 23.2855 41.3252 23.3271 41.4026 23.3504C41.4749 23.3712 41.5395 23.3738 41.5937 23.3634C41.7124 23.3375 41.7615 23.2439 41.6686 23.14L40.117 21.3968C40.0731 21.3475 40.0008 21.3059 39.9233 21.2851C39.851 21.2643 39.7839 21.2617 39.7349 21.2721L39.7323 21.2695ZM37.2822 21.6618L37.987 19.5263C38 19.4822 38.0438 19.4536 38.1006 19.438C38.16 19.425 38.2323 19.4302 38.3098 19.4562L41.9784 20.6564C42.1307 20.7058 42.2288 20.8175 42.1978 20.9032C42.1849 20.9474 42.141 20.976 42.0816 20.9889C42.0223 21.0019 41.95 20.9967 41.8751 20.9734L38.475 19.8615L37.8244 21.8385C37.8089 21.8826 37.7676 21.9112 37.7108 21.9242C37.6514 21.9346 37.5791 21.932 37.5017 21.9086C37.3519 21.8592 37.2538 21.7501 37.2822 21.6618Z" fill="black"/>
<path opacity="0.2" fill-rule="evenodd" clip-rule="evenodd" d="M49.3458 53.9068L47.7478 58.7389L49.9551 61.2251L51.5532 56.393L59.8534 59.1156L57.646 56.6294L49.3458 53.9068ZM9.27519 8.79158L7.6797 13.6211L9.88705 16.1073L11.4851 11.2804L19.7853 14.003L17.578 11.5168L9.27519 8.79418V8.79158ZM35.9881 38.8675L34.3926 43.6996L36.6 46.1858L38.198 41.3537L46.4982 44.0763L44.2909 41.5901L35.9881 38.8675ZM31.5372 33.8562L39.8374 36.5762L42.0474 39.0676L33.7472 36.345L32.1465 41.1719L29.9392 38.6857L31.5372 33.8588V33.8562ZM27.0838 28.8396L25.4883 33.6717L27.6957 36.1579L29.2963 31.3258L37.5965 34.0484L35.3891 31.5622L27.0864 28.8396H27.0838ZM22.6329 23.8309L30.9331 26.5535L33.1431 29.0397L24.8429 26.317L23.2422 31.144L21.0349 28.6578L22.6329 23.8309ZM18.1795 18.8143L16.584 23.6464L18.7914 26.1326L20.3894 21.3057L28.6896 24.0283L26.4823 21.5421L18.1795 18.8143ZM13.7286 13.8029L22.0288 16.5255L24.2388 19.0117L15.9386 16.2891L14.3405 21.1212L12.1306 18.635L13.7286 13.8029ZM4.82433 3.78023L13.1271 6.50283L15.3345 8.98383L7.03427 6.26642L5.43619 11.0933L3.22883 8.60713L4.82433 3.77763V3.78023ZM0.373467 -1.23633L-1.22461 3.59578L0.982749 6.08197L2.58083 1.24987L10.8836 3.97247L8.67365 1.48628L0.373467 -1.23633ZM40.4415 43.8841L48.7417 46.6041L50.9491 49.0903L42.6489 46.3703L41.0508 51.1972L38.8435 48.711L40.4415 43.8841ZM44.8924 48.8954L53.1952 51.618L55.4025 54.1042L47.1023 51.3816L45.5043 56.2085L43.2969 53.7223L44.8924 48.8928V48.8954ZM53.7967 58.9182L62.0995 61.6434L64.3068 64.1296L56.0066 61.407L54.4086 66.2339L52.2012 63.7477L53.7967 58.9156V58.9182Z" fill="black"/>
<path opacity="0.2" fill-rule="evenodd" clip-rule="evenodd" d="M0.504084 21.5679L0.150391 26.613L2.60043 26.0648L32.3727 59.5259L35.6798 58.8166L5.88694 25.3296L8.33956 24.7841L0.504084 21.5679Z" fill="black"/>
<g opacity="0.68">
<path fill-rule="evenodd" clip-rule="evenodd" d="M7.25863 40.839C7.99441 42.3796 8.17513 43.4499 9.05033 44.7385C10.0185 46.1621 11.663 47.5754 11.6165 51.1501C11.5856 53.5376 9.63121 54.8287 8.392 57.6163C7.4032 59.8401 5.84127 69.6836 4.72597 72.0503C2.60381 76.5576 -0.780806 77.272 -2.00195 82.234H132.998C131.32 78.5892 113.762 64.3475 94.794 60.022C77.7805 56.1407 52.0202 39.0802 44.5281 37.68L17.699 32.666L12.2052 33.0453L6.86104 34.0117L5.64506 35.4588L5.04094 37.0928C5.50565 38.1112 6.49961 39.2621 7.25088 40.839H7.25863Z" fill="#CCCCCC"/>
<path fill-rule="evenodd" clip-rule="evenodd" d="M5.03578 37.0954C5.85676 38.9944 7.72333 43.2992 8.78958 44.5592C10.4574 46.5336 11.6553 48.2274 11.6165 51.1526C11.5856 53.5401 9.63121 54.8313 8.392 57.6188C7.4032 59.8426 5.84127 69.6861 4.72597 72.0528C2.60381 76.5601 -0.780806 77.2746 -2.00195 82.2366H77.7934C72.3279 81.7196 67.4847 80.231 63.4107 79.3451C53.0891 77.1057 47.257 74.4273 37.7098 65.5035C34.4543 62.4613 32.6497 58.7151 31.1291 55.46C30.0448 53.14 27.1378 53.6154 23.4124 50.8253L17.761 46.5933L10.4625 43.3511L5.03578 37.0928V37.0954Z" fill="#0033FF"/>
<path fill-rule="evenodd" clip-rule="evenodd" d="M18.0738 53.2285L16.6668 55.9148L15.1074 58.3776L18.3707 59.7207L21.1899 62.4069L20.0023 59.9441L17.4077 57.7047L18.0738 53.2285Z" fill="#A2BBD5"/>
<path fill-rule="evenodd" clip-rule="evenodd" d="M15.1817 64.2722L13.7359 67.0701L12.1043 68.4886L12.6206 70.2812L13.2531 71.0995L13.4029 73.6377L12.2901 75.2042L9.47092 77.5917L6.95117 79.1582L9.52513 78.3996L14.5879 75.9134L16.8494 73.487L16.2944 70.4292L14.3297 69.0108L15.4037 67.4442L16.0723 64.0852L14.8848 61.3989L15.1817 64.2722Z" fill="#A2BBD5"/>
<path fill-rule="evenodd" clip-rule="evenodd" d="M27.8455 64.1973L27.2801 67.203L24.1562 70.5647L26.7354 73.6952L29.2164 75.4436L29.1983 78.7481L31.021 74.9396L28.8033 73.0249L27.0142 69.7672L28.0908 67.6681L27.8455 64.1973Z" fill="#A2BBD5"/>
</g>
<path fill-rule="evenodd" clip-rule="evenodd" d="M33.0733 45.1804L26.0278 41.1433C25.261 40.79 24.1612 40.5094 23.379 40.9199C22.6664 41.294 21.4917 42.0577 20.9728 42.3565C20.5778 42.5825 19.2095 43.4087 20.0615 43.8763C22.5709 45.248 25.0545 46.7937 27.6 48.1888C28.0828 48.4538 28.7876 48.5473 29.526 48.485C30.2618 48.4226 31.0182 48.207 31.612 47.8589C32.0354 47.6121 32.4511 47.3679 32.8616 47.1263C33.414 46.8015 33.7084 46.4196 33.7368 46.0663C33.7652 45.7208 33.5431 45.3986 33.0733 45.183V45.1804Z" fill="#C5DAF1"/>
<path fill-rule="evenodd" clip-rule="evenodd" d="M16.8949 18.8015C16.6987 18.6508 16.5696 18.5963 16.5567 18.5313C16.5335 18.4118 16.5748 18.4066 16.6135 18.2274C16.6445 18.0767 16.6367 17.8481 16.6497 17.7052C16.6677 17.5104 16.6006 17.396 16.5748 17.2272C16.5567 17.1077 16.4586 16.9934 16.3166 17.0219C16.2624 17.0323 16.203 17.0531 16.0894 17.0947C15.9526 16.996 15.9216 16.9856 15.7615 16.9284C15.635 16.8843 15.5679 16.8998 15.4647 16.9934C15.3072 17.1363 15.1781 17.2713 15.1316 17.3675C15.0851 17.461 15.0335 17.7208 14.9999 17.9676C14.969 18.1806 14.9664 18.2637 15.0567 18.3806C15.253 18.6378 15.5757 18.8353 15.7306 18.9626L16.3863 19.5003L16.8949 18.8015Z" fill="#F0B186"/>
<path fill-rule="evenodd" clip-rule="evenodd" d="M16.4444 19.5447C16.5476 19.5369 16.5967 19.3992 16.6974 19.2563C16.5528 19.2173 16.3179 19.2563 16.1139 18.9056C16.0339 18.6562 15.5717 18.4665 15.4582 18.3444C15.5588 18.2873 15.5433 18.3288 15.6079 18.2301C15.6647 18.3159 15.7809 18.3678 15.8118 18.334C15.8532 18.2743 15.8609 18.2145 15.8402 18.1574C15.7989 18.0483 15.6802 17.9547 15.5485 17.9521C15.4814 17.9521 15.249 18.095 14.9883 18.2535C14.9986 18.2977 15.0193 18.3392 15.0554 18.3834C15.2516 18.6406 15.4039 18.8822 15.5717 18.9887L16.4444 19.5447Z" fill="#E7A376"/>
<path fill-rule="evenodd" clip-rule="evenodd" d="M19.9718 22.3732C20.5139 22.5499 22.6852 22.6226 24.3323 22.2485C24.8073 22.1394 24.8151 21.3444 24.6834 20.9444C24.5517 20.5443 24.1929 20.3442 24.0122 20.3105C23.6791 20.2455 23.1576 20.2819 22.4347 20.5339C22.0036 20.6846 21.2652 20.6092 20.8005 20.7106C20.6327 20.7183 20.4571 20.7339 20.2919 20.7703C19.7988 20.3417 18.7481 19.7234 18.446 19.5311C18.051 19.2843 17.6121 19.0349 17.1397 18.7829C17.0699 18.7465 16.9925 18.7829 16.9254 18.7439C16.8892 18.718 16.7214 18.6166 16.6904 18.5933C16.6182 18.9648 16.4555 19.2349 16.2051 19.4298C16.2386 19.4506 16.4194 19.5831 16.4581 19.6064C16.5123 19.648 16.5639 19.7545 16.6001 19.8143C16.9977 20.4404 18.3789 21.5938 19.6207 22.2043C19.7136 22.2771 19.8324 22.3342 19.9744 22.3706L19.9718 22.3732Z" fill="#0033FF"/>
<path fill-rule="evenodd" clip-rule="evenodd" d="M22.2637 34.919C22.2637 34.9502 22.2766 34.9891 22.2972 35.0255C22.3953 36.618 22.9504 39.5121 22.9659 41.0786C23.459 41.4112 24.1044 41.3358 24.3497 40.9176C24.453 39.4731 24.5588 37.5325 24.5459 36.7401C24.5356 36.153 24.4659 35.6074 24.3161 35.0775C25.0674 33.5369 26.4693 31.7106 26.6732 30.1648C26.7687 29.4374 26.5338 28.5437 26.5648 27.928C25.8677 28.4035 24.4633 28.0605 23.823 27.6475C23.7094 28.0605 23.6423 27.928 23.5468 28.3671C23.1466 30.1986 22.8213 32.1938 22.3928 34.1033C22.3153 34.3708 22.2559 34.6722 22.2688 34.9138L22.2637 34.919Z" fill="black"/>
<path fill-rule="evenodd" clip-rule="evenodd" d="M24.327 40.9489C24.4509 41.2529 24.531 41.3828 24.5542 41.8088C24.4948 42.0322 24.3425 42.1232 24.1747 42.279L24.0533 42.305C23.7539 42.4713 23.6687 43.0558 23.395 43.3208C23.204 43.5078 22.809 43.6118 22.4165 43.6871C21.9983 43.7702 21.5904 43.6481 21.6859 43.313C21.9234 42.4817 23.0646 41.5412 23.0516 40.6138L24.327 40.9463V40.9489Z" fill="black"/>
<path fill-rule="evenodd" clip-rule="evenodd" d="M30.8841 42.5562C30.9383 42.6705 30.9383 42.7744 31.0235 42.9225C31.1113 43.0705 31.212 43.2368 31.323 43.5018C31.496 43.9097 31.4599 44.4942 31.6974 45.0735C31.8084 45.3021 31.8368 45.4944 31.7154 45.7256C31.5967 45.9516 31.3617 46.3231 30.9797 46.3621C30.8919 46.3699 30.7086 46.3621 30.5433 46.2218C30.3704 46.0763 30.2103 45.8503 30.1793 45.5463C30.1664 45.432 30.169 45.0553 30.0993 44.7228C30.0373 44.4318 29.9573 44.2786 29.9057 43.9564C29.854 43.6161 29.7972 43.1459 29.7637 42.9277L30.8816 42.5562H30.8841Z" fill="black"/>
<path fill-rule="evenodd" clip-rule="evenodd" d="M27.2332 36.4589C27.7908 37.9916 29.2185 41.4754 29.6884 42.9978C30.2434 43.2108 30.8656 42.9796 30.9715 42.5431C30.7262 41.1195 30.3338 38.7762 30.0911 38.0072C29.8872 37.3681 29.4121 36.4303 29.0507 35.8821C28.7073 34.1701 28.8287 31.7047 28.0516 30.1563C27.7082 29.4757 26.9879 28.7898 26.6549 28.2339C26.4251 28.7587 26.0817 29.0133 25.0284 29.0652C24.9251 29.0704 23.9518 28.5664 23.6523 28.5352C24.3985 30.6681 25.9423 33.3803 26.8666 35.6925C26.9543 35.9627 27.0809 36.2536 27.2332 36.4589Z" fill="black"/>
<path opacity="0.5" fill-rule="evenodd" clip-rule="evenodd" d="M28.5819 31.9542C28.4709 31.2944 28.3134 30.6735 28.0527 30.1539C27.7093 29.4732 26.989 28.7874 26.656 28.2314C26.5243 28.5302 26.341 28.725 26.0234 28.8627C26.23 29.9668 27.4537 31.6295 28.5845 31.9542H28.5819Z" fill="black"/>
<path fill-rule="evenodd" clip-rule="evenodd" d="M27.0826 21.5997C26.5094 21.3451 24.5241 20.3086 23.9794 20.4385C23.352 20.5891 22.8796 20.9373 22.6782 21.4361C22.4123 22.0985 22.3064 23.013 22.4846 24.1664C22.5543 24.6159 22.6963 25.0471 22.8073 25.5329C22.9519 26.1694 23.0396 28.3854 23.241 28.996C23.8761 29.9572 26.3829 29.7623 27.4673 28.8453C27.2969 28.5101 27.4027 25.7875 27.4931 25.5148C27.821 24.5198 28.1901 23.4364 28.1179 22.7142C28.0611 22.1245 27.5344 21.7998 27.08 21.5971L27.0826 21.5997Z" fill="url(#paint0_linear_180_2861)"/>
<path fill-rule="evenodd" clip-rule="evenodd" d="M24.1421 20.2487C24.6714 20.2539 25.735 20.5968 26.1094 20.7527C27.297 21.2489 28.4174 21.9841 28.4536 22.7401C28.5155 24.0053 27.6093 25.0834 27.5732 26.5148C27.5422 27.7281 28.957 29.6531 30.3795 30.2298C30.2272 30.8196 29.4501 31.5236 28.8718 31.4015C27.2066 30.7131 24.1499 26.3849 25.828 21.384C25.9519 21.0151 25.3529 20.9034 24.7101 20.7605C24.0982 20.6254 23.8917 20.2461 24.1447 20.2461L24.1421 20.2487Z" fill="#0033FF"/>
<path fill-rule="evenodd" clip-rule="evenodd" d="M28.048 21.9471C28.2907 22.2017 28.443 22.4692 28.4559 22.7394C28.5179 24.0046 27.6117 25.0827 27.5755 26.5142C26.9224 24.9139 26.4732 21.3833 28.0506 21.9471H28.048Z" fill="#0033FF"/>
<path fill-rule="evenodd" clip-rule="evenodd" d="M23.1855 28.749C22.9454 27.7773 22.8706 26.8837 22.7389 25.9796C22.615 25.1353 22.3594 24.0623 22.3594 23.1219C22.3594 22.0386 22.5298 21.0488 23.2268 20.55C23.5676 20.3058 23.8903 20.3499 24.9024 20.5396L24.874 20.9215C23.1313 21.6359 22.7983 23.457 22.8551 25.3509C22.8912 26.5537 23.1003 27.7488 23.1855 28.749Z" fill="#0033FF"/>
<path fill-rule="evenodd" clip-rule="evenodd" d="M23.9266 22.1496C23.418 23.3135 23.7226 23.7941 24.1331 24.602C24.5798 25.4801 24.3629 26.5245 24.2312 27.6442C24.0015 27.9741 23.5858 28.3326 23.2166 28.5457C23.1314 27.8364 23.0333 27.561 22.8965 27.1662C23.1908 26.6102 23.325 25.9088 23.2476 25.4022C23.0927 24.4046 22.5867 23.5395 23.671 22.0353C23.609 21.617 23.671 21.5339 23.7562 21.4897C23.8569 21.4352 23.7717 21.4144 24.0634 21.4975C24.2545 21.5521 24.4507 21.6067 24.3835 21.8145C24.3319 21.973 24.2467 22.0301 23.9266 22.1522V22.1496Z" fill="black"/>
<path fill-rule="evenodd" clip-rule="evenodd" d="M25.784 20.7683C25.8278 21.2723 24.3253 22.0438 24.1497 21.4879C24.0413 21.145 24.1265 20.0694 24 19.6018L25.2986 18.9523L25.7711 18.7627C25.611 19.5473 25.4948 20.1136 25.784 20.7709V20.7683Z" fill="#E7A376"/>
<path fill-rule="evenodd" clip-rule="evenodd" d="M24.1479 21.4643C24.0886 21.311 24.1092 20.9057 24.0653 20.6875C23.8872 20.7109 23.6445 21.324 23.4922 21.6435C23.7271 21.4799 23.8846 21.4617 24.1479 21.4617V21.4643Z" fill="#ECF5FF"/>
<path fill-rule="evenodd" clip-rule="evenodd" d="M25.6743 20.4277C25.6976 20.8486 24.6933 21.324 24.084 21.4695C24.2363 21.6539 24.4351 21.8878 24.4274 22.0722C24.8662 21.9501 25.6743 21.6825 25.9764 21.1162C26.1829 20.7291 25.8757 20.581 25.6743 20.4277Z" fill="#ECF5FF"/>
<path fill-rule="evenodd" clip-rule="evenodd" d="M25.5879 17.1543C25.8745 17.2556 25.9571 17.5024 26.0087 17.9129C25.859 17.7102 25.8332 17.6349 25.6499 17.4608L25.5905 17.1569L25.5879 17.1543Z" fill="#38251B"/>
<path fill-rule="evenodd" clip-rule="evenodd" d="M25.6157 20.3186C25.4195 20.2744 24.9522 20.2121 24.7714 20.1627C24.3764 20.0562 24.3016 19.7497 24.0382 19.3288C23.6691 19.2327 23.509 19.108 23.4135 18.9313C23.1837 18.5131 23.2508 17.9415 23.4858 17.5492C23.6923 17.2089 24.0047 17.0141 24.4152 16.9491C25.2129 16.8244 25.6802 17.0946 25.9642 17.7207C25.9874 17.7753 26.052 17.9987 26.0571 18.061C26.0675 18.2065 26.0391 18.2403 26.0571 18.3364C26.0675 18.3988 26.0959 18.4689 26.163 18.5494C26.3153 18.7391 26.4237 19.8406 26.3179 20.0043C26.1991 20.1861 25.9384 20.3472 25.6208 20.316L25.6157 20.3186Z" fill="#F0B186"/>
<path fill-rule="evenodd" clip-rule="evenodd" d="M25.296 17.8637C25.0868 17.8222 24.2994 17.6715 23.9535 17.5884C23.5998 17.5026 23.2151 17.4169 23.0215 17.6845C22.8846 18.0248 22.9621 18.5366 23.0886 18.799C23.2693 19.1757 23.6282 19.4433 24.0774 19.7057C24.2478 19.8044 24.0696 19.2484 24.0774 19.1185C24.2065 19.2978 24.2994 19.3601 24.3665 19.3575C24.4156 19.3549 24.4724 19.3679 24.4001 19.1133C24.2891 18.7237 24.4543 18.6093 24.2942 18.3781C24.1652 18.1937 24.3072 18.1807 24.3278 18.0872C24.617 18.0196 24.919 18.0872 25.2934 17.8637H25.296Z" fill="#38251B"/>
<path fill-rule="evenodd" clip-rule="evenodd" d="M23.8681 18.9338C23.5428 18.9156 23.6358 19.2611 23.739 19.4585C23.8113 19.5936 23.9249 19.5495 23.9998 19.6508C24.0876 19.7729 24.2115 19.8066 24.2993 19.7781C24.48 19.7235 24.2915 19.4819 24.2399 19.3806C24.2115 19.1987 24.0721 18.9441 23.8655 18.9312L23.8681 18.9338Z" fill="#F0B186"/>
<path fill-rule="evenodd" clip-rule="evenodd" d="M24.9785 19.0067C25.0895 18.869 25.1954 18.7885 25.4045 18.7677C25.1799 18.7495 25.0482 18.8509 24.9785 19.0067Z" fill="#AA6F48"/>
<path fill-rule="evenodd" clip-rule="evenodd" d="M25.8262 18.5158C25.8752 18.3652 25.9604 18.3418 26.0482 18.334C25.9862 18.3626 25.9139 18.373 25.8339 18.5392L25.8262 18.5158Z" fill="#AA6F48"/>
<path fill-rule="evenodd" clip-rule="evenodd" d="M25.8379 18.6768C25.9308 18.8144 25.9644 18.8898 26.0806 18.9651C26.2794 19.0924 26.2484 19.1937 26.0702 19.3003C26.2432 19.1548 26.1942 19.108 26.047 18.9807C25.9541 18.9002 25.9257 18.8378 25.8379 18.6768Z" fill="#AA6F48"/>
<path fill-rule="evenodd" clip-rule="evenodd" d="M25.2243 18.9783C25.2863 18.9627 25.2811 18.877 25.2501 18.8354C25.2372 18.8172 25.214 18.8068 25.1778 18.8146C25.1546 18.8172 25.1133 18.8458 25.1133 18.8952C25.1133 18.9523 25.1727 18.9913 25.2217 18.9783H25.2243Z" fill="#AA6F48"/>
<path fill-rule="evenodd" clip-rule="evenodd" d="M25.6103 16.4762C25.4658 16.6061 25.2773 16.4996 24.588 16.4632C23.8703 16.4269 22.9796 16.8243 23.0106 17.6427C23.0106 17.6661 23.0106 17.6894 23.0106 17.7128C23.2532 17.7102 23.5992 17.8687 23.9761 17.9518C24.495 18.0661 25.0604 18.0947 25.4167 17.8791C25.8762 17.6011 26.137 16.8659 25.6129 16.4736L25.6103 16.4762Z" fill="url(#paint1_linear_180_2861)"/>
<path fill-rule="evenodd" clip-rule="evenodd" d="M25.9841 18.5388C26.046 18.5233 26.0409 18.4375 26.0099 18.396C25.997 18.3778 25.9737 18.3674 25.9376 18.3752C25.9144 18.3778 25.873 18.4064 25.873 18.4557C25.873 18.5129 25.9324 18.5518 25.9815 18.5388H25.9841Z" fill="#AA6F48"/>
<path fill-rule="evenodd" clip-rule="evenodd" d="M26.2022 19.5082C26.1712 19.5186 26.166 19.5367 26.1351 19.5601C26.0808 19.5835 26.0628 19.5913 26.0292 19.6225C25.9698 19.677 25.8459 19.7887 25.6445 19.7887C25.8278 19.8069 26.0989 19.8875 26.2203 19.716C26.2564 19.6666 26.2254 19.6069 26.2409 19.5705C26.2512 19.5419 26.2616 19.4926 26.1996 19.5108L26.2022 19.5082Z" fill="#EA9F6F"/>
<path fill-rule="evenodd" clip-rule="evenodd" d="M26.2145 19.5757C26.0983 19.6848 25.9899 19.7601 25.7988 19.7861C25.9331 19.7809 26.1164 19.7445 26.2196 19.6432L26.2145 19.5835V19.5757Z" fill="#AA6F48"/>
<path fill-rule="evenodd" clip-rule="evenodd" d="M36.1043 27.1356C36.2231 27.3018 36.3367 27.4369 36.4658 27.5954C36.569 27.7123 36.6491 27.7928 36.7213 27.824C36.7833 27.85 36.8324 27.8084 36.8478 27.7772C36.8866 27.7071 36.8143 27.5954 36.7317 27.5019C36.5845 27.3278 36.4942 27.1745 36.3702 26.9849C36.5019 27.1278 36.6775 27.3616 36.8065 27.5019C36.9046 27.611 37.0028 27.5954 37.0389 27.5538C37.1318 27.4421 36.9485 27.2525 36.8737 27.1797C36.7549 27.042 36.6697 26.9355 36.5613 26.8212C36.5277 26.7874 36.2979 26.5666 36.4967 26.7017C36.68 26.8238 36.9563 27.0187 37.0725 27.0602C37.1447 27.0862 37.1964 27.0498 37.2093 27.0135C37.2299 26.9511 37.1835 26.8524 37.0725 26.7589C36.8866 26.603 36.6052 26.4004 36.5303 26.3458C36.4735 26.3042 36.4038 26.2549 36.3341 26.2029C36.1405 26.0548 35.9313 25.8652 35.9468 25.6522C35.952 25.5716 36.014 25.5093 36.0759 25.3976C36.1714 25.2209 36.2205 25.0624 36.0604 24.9014C35.9055 25.0728 35.8255 25.2885 35.5441 25.4495C35.2962 25.5119 35.1181 25.7327 35.0097 25.7431C34.9503 25.7483 34.8858 25.7275 34.7386 25.7041L34.4004 26.2653L34.4469 26.5458C34.514 26.5484 34.6457 26.564 34.7618 26.5978C34.9245 26.7485 35.2136 26.855 35.4692 26.9615C35.5983 27.0161 35.668 27.0602 35.7326 27.12C35.9004 27.2785 36.0708 27.7331 36.2515 27.8136C36.316 27.8422 36.3676 27.8396 36.3909 27.8058C36.4399 27.7305 36.3186 27.5616 36.2231 27.4109C36.1689 27.3278 36.1224 27.2291 36.0992 27.1304L36.1043 27.1356Z" fill="#0033FF"/>
<path fill-rule="evenodd" clip-rule="evenodd" d="M29.2433 22.488L31.1021 24.504L33.8749 25.2678C34.2776 25.3769 34.3757 25.3431 34.5978 25.6185L34.9695 25.7354C34.6933 25.8237 34.6158 26.4238 34.6675 26.5901L34.3112 26.5355C34.0453 26.6135 34.0504 26.6265 33.7768 26.5771L30.3534 25.925L28.0015 24.3325C27.1908 23.8155 27.0747 21.7216 27.6994 21.6567C28.1771 21.6073 28.6805 21.9035 29.2459 22.4906L29.2433 22.488Z" fill="#0033FF"/>
<path fill-rule="evenodd" clip-rule="evenodd" d="M17.9815 0.491278C18.0073 0.325012 18.1622 0.208106 18.3274 0.234085C18.4952 0.260064 18.6088 0.415938 18.583 0.582204L12.5418 41.0835C12.4979 41.3199 11.9248 41.294 11.9377 40.9926L17.9815 0.491278Z" fill="black"/>
<path fill-rule="evenodd" clip-rule="evenodd" d="M17.9432 0.646973C18.0491 1.08862 18.2504 1.01588 18.5473 1.05484C20.0886 2.76686 22.1617 3.77745 24.697 4.17493C27.178 4.56461 27.9422 4.87896 27.5549 6.21688C26.1944 10.9295 32.1787 15.7824 35.6589 18.4348C30.6013 17.7022 24.1832 15.4628 24.3639 13.0961C24.5524 10.6255 19.0404 13.4027 16.3555 11.4153L17.9406 0.646973H17.9432Z" fill="#0033FF"/>
<g style="mix-blend-mode:multiply" opacity="0.2">
<path fill-rule="evenodd" clip-rule="evenodd" d="M27.6155 5.36487C27.6801 5.59348 27.6569 5.87146 27.5562 6.21698C26.6526 6.76514 24.5304 11.4622 24.3652 13.0936C24.3807 12.8832 24.3549 12.7117 24.2955 12.5715C23.7094 11.2283 19.8291 12.7949 17.25 11.8804C23.9108 12.361 25.0958 5.33109 27.6155 5.36487Z" fill="#0033FF"/>
</g>
<path fill-rule="evenodd" clip-rule="evenodd" d="M16.0846 17.0976C15.9477 16.9989 15.9167 16.9885 15.7567 16.9313C15.6302 16.8872 15.563 16.9028 15.4598 16.9963C15.3023 17.1392 15.1732 17.2743 15.1267 17.3704C15.0803 17.4639 15.0286 17.7237 14.9951 17.9705C14.9744 18.1186 14.9667 18.2017 14.9951 18.2797C15.1242 18.355 15.3952 18.1498 15.576 18.0407C15.6586 18.0718 15.9322 18.1108 15.8574 18.3134C16.0845 18.2901 16.0458 17.9367 16.0587 17.6951C16.0639 17.5678 16.0923 17.2509 16.0871 17.0976H16.0846Z" fill="#F0B186"/>
<path fill-rule="evenodd" clip-rule="evenodd" d="M16.0847 17.0974C15.9479 16.9986 15.9169 16.9883 15.7568 16.9311C15.7129 16.9155 15.6768 16.9077 15.6432 16.9077L15.5684 17.9469C15.651 17.9781 15.9479 18.1547 15.8033 18.3418C15.9066 18.321 16.0227 18.3392 16.0486 18.1002C16.0718 17.8741 16.126 17.2688 16.0847 17.0974Z" fill="#E7A376"/>
<path fill-rule="evenodd" clip-rule="evenodd" d="M15.6066 18.233C15.6634 18.3187 15.7795 18.3706 15.8105 18.3369C15.8518 18.2771 15.8596 18.2174 15.8389 18.1602C15.7976 18.0511 15.6556 17.8744 15.5704 17.9784C15.4904 18.0745 15.067 18.2433 14.9844 18.2537C14.9947 18.2979 15.0154 18.3395 15.0515 18.3836C15.0954 18.4408 15.1367 18.4953 15.1754 18.5499C15.289 18.4382 15.5214 18.3577 15.6066 18.233Z" fill="#E7A376"/>
<path fill-rule="evenodd" clip-rule="evenodd" d="M16.6453 17.7077C16.6634 17.5129 16.5963 17.3986 16.5704 17.2297C16.5524 17.1102 16.4543 16.9959 16.3123 17.0245C16.2581 17.0348 16.1987 17.0556 16.0851 17.0972C15.9947 17.1154 15.9896 17.1232 15.9508 17.1777C15.9353 17.2011 15.9508 17.318 16.018 17.3752C16.1935 17.5258 16.5885 17.6713 16.6453 17.7077Z" fill="#F0B186"/>
<path fill-rule="evenodd" clip-rule="evenodd" d="M15.953 17.1807C16.0176 17.3313 16.2344 17.4482 16.49 17.3235C16.4126 17.4586 16.2938 17.5106 16.1854 17.5054C16.0227 17.4976 15.8859 17.3625 15.953 17.1807Z" fill="#E7A376"/>
<path fill-rule="evenodd" clip-rule="evenodd" d="M56.9847 66.1262L49.8231 62.0527C49.0434 61.6968 47.9255 61.4136 47.1304 61.8267C46.4049 62.2034 45.2122 62.9749 44.6855 63.2737C44.2853 63.5023 42.8938 64.3336 43.7587 64.8065C46.3094 66.1911 48.8317 67.7499 51.4212 69.1553C51.9117 69.4203 52.6268 69.5165 53.3781 69.4541C54.1268 69.3918 54.8936 69.1735 55.4977 68.8228C55.9288 68.5734 56.3522 68.3266 56.7679 68.085C57.3307 67.7577 57.6276 67.3732 57.656 67.0147C57.6844 66.6666 57.4598 66.3418 56.9822 66.1236L56.9847 66.1262Z" fill="#B7CDE5"/>
<path fill-rule="evenodd" clip-rule="evenodd" d="M38.8484 35.1874C38.7348 35.0731 38.6134 34.9874 38.5231 35.0731C38.3992 34.8965 38.1978 34.8965 38.1926 35.0601C38.1074 35.1615 38.0403 35.2706 38.1023 35.4109C38.1539 35.5226 38.2804 35.7668 38.3217 35.8525C38.3475 35.9486 38.4844 36.2448 38.5618 36.502C38.7012 36.9748 38.9671 37.4684 39.0523 37.5593C39.1659 37.6788 39.3079 37.6554 39.7107 37.8061L40.1857 38.1153L40.7175 37.5957C40.3897 37.2891 40.1625 36.8397 40.0127 36.4266C39.9172 36.1668 39.7339 36.0811 39.499 35.8655C39.2898 35.6706 39.0601 35.4083 38.8458 35.1926L38.8484 35.1874Z" fill="#F0B186"/>
<path fill-rule="evenodd" clip-rule="evenodd" d="M39.1367 37.1696L38.6849 37.0969C38.4344 36.98 38.1324 36.7852 37.9336 36.8813C37.6703 37.0086 37.9775 37.1385 38.104 37.193C38.6926 37.445 38.7158 37.749 39.6685 37.7464L39.1367 37.1696Z" fill="#F0B186"/>
<path fill-rule="evenodd" clip-rule="evenodd" d="M43.0868 41.4462C43.9723 41.9294 46.1461 42.7191 46.678 42.901C47.0187 43.0179 47.4989 43.0127 47.8552 42.436C48.0333 42.1476 48.1005 41.7475 47.9766 41.3916C47.7106 40.6356 46.8974 40.5837 46.2287 40.4174C45.4491 40.2225 44.4267 39.9809 43.6987 39.851L41.5972 38.0169C41.3157 37.7779 41.0343 37.4896 40.6652 37.4558L40.4431 37.2739C40.3967 37.5155 39.9113 37.8844 39.8184 37.9026L40.0094 38.1286C40.0352 38.5183 40.3166 38.7314 40.5929 39.0275L42.1496 40.6902C42.3872 40.9578 42.5885 41.1942 42.7512 41.2929C42.8725 41.3682 42.9784 41.415 43.0894 41.4488L43.0868 41.4462Z" fill="#0033FF"/>
<path fill-rule="evenodd" clip-rule="evenodd" d="M49.6983 63.9949C49.5563 63.9768 49.1355 63.4728 48.6502 63.6572C48.0667 63.878 47.3309 63.6338 46.7913 63.7092C46.6958 63.7222 46.5693 63.717 46.5177 63.7689C46.2827 64.0053 46.275 64.2132 46.528 64.4418C46.7139 64.6081 47.0366 64.8107 47.3102 64.9406C47.5994 65.0809 47.8292 65.2004 48.17 65.2887C48.4255 65.3563 48.5856 65.3173 48.8154 65.364L48.8515 65.5589C49.0452 65.6862 49.2517 65.7511 49.373 65.7433C49.6854 65.7252 50.0236 65.468 50.2508 65.1432C50.2431 64.8133 50.3179 64.473 50.1011 64.0209L49.6983 63.9949Z" fill="black"/>
<path fill-rule="evenodd" clip-rule="evenodd" d="M46.3438 50.9564C46.5141 52.2657 46.8549 57.1082 47.2835 58.1863C47.9289 59.8074 48.12 62.3118 48.515 64.1044C48.5743 64.3148 48.7551 64.5772 49.0442 64.7149C49.496 64.9305 50.1182 64.9279 50.2395 64.585C50.1259 62.9197 50.1543 60.8154 50.0976 59.888C50.033 58.8514 49.7826 57.846 49.3824 57.2563C49.3282 56.5133 49.2611 53.7647 49.3824 52.38C49.4263 51.8812 50.0253 50.125 49.0881 49.0625L46.3438 50.9564Z" fill="black"/>
<path fill-rule="evenodd" clip-rule="evenodd" d="M53.4072 64.5074C53.2652 64.5411 52.6946 64.2164 52.2944 64.5567C51.8142 64.9646 51.032 64.9906 50.544 65.2478C50.4563 65.2945 50.3375 65.3309 50.3039 65.3985C50.162 65.6998 50.2265 65.8947 50.5415 66.0194C50.7738 66.1103 51.1507 66.183 51.4554 66.2116C51.7781 66.2402 52.0363 66.2714 52.3925 66.2376C52.6585 66.2116 52.7979 66.1207 53.0328 66.0843L53.1335 66.2532C53.3607 66.3025 53.5801 66.2921 53.6937 66.2454C53.9829 66.1207 54.2178 65.7648 54.3237 65.3829C54.2049 65.0789 54.1584 64.7386 53.797 64.3931L53.4046 64.5074H53.4072Z" fill="black"/>
<path fill-rule="evenodd" clip-rule="evenodd" d="M48.6822 59.431C49.8517 60.9897 51.0419 63.424 52.0668 65.0529C52.4153 65.4919 53.8533 65.3074 54.0625 64.5722C53.4041 63.0629 52.4695 60.7897 51.9893 60.0259C51.5918 59.3894 51.3749 59.0101 50.8198 58.5581C50.5178 57.9112 48.9326 54.8795 48.4189 53.6273C48.3879 52.731 48.4111 51.1463 47.0144 50.1772C46.5626 50.6942 45.0239 50.8917 44.1797 50.6605C44.3707 51.6996 45.011 53.5363 45.7829 54.9652C46.7614 56.7733 48.0497 58.5841 48.6822 59.4284V59.431Z" fill="black"/>
<path fill-rule="evenodd" clip-rule="evenodd" d="M41.0084 47.4492C41.0833 47.7168 41.0627 48.1117 41.0084 48.4156C41.8681 48.6469 42.0979 48.2598 42.7563 47.7428C42.5213 47.7999 42.3458 47.4674 42.0876 47.5479C41.7416 47.6545 41.184 47.5427 41.0059 47.4492H41.0084Z" fill="#0033FF"/>
<path fill-rule="evenodd" clip-rule="evenodd" d="M43.0945 45.8311C43.4327 46.7871 43.0093 47.847 42.4955 48.2835C42.1418 48.5822 41.4731 48.7277 41.0059 48.4186C41.943 48.5303 42.2477 47.0806 42.1547 45.9635C42.3251 45.935 42.9266 45.8674 43.0945 45.8311Z" fill="#0033FF"/>
<path fill-rule="evenodd" clip-rule="evenodd" d="M47.659 45.3668C47.5531 46.515 48.591 48.7934 48.7562 50.0352C48.5832 51.077 45.5575 51.9914 44.2201 50.8172C44.1427 50.6821 44.0523 50.4742 43.9594 50.3392C43.6057 49.8118 43.079 48.6064 42.6143 47.2477C42.1367 45.8552 41.8217 43.9899 42.0386 43.143C42.1083 42.8702 42.3381 42.787 42.5446 42.6286C43.0764 42.2129 45.6969 40.7841 46.5049 40.6879C48.8517 40.384 47.7622 44.2315 47.6564 45.372L47.659 45.3668Z" fill="#CEE0F3"/>
<path fill-rule="evenodd" clip-rule="evenodd" d="M42.3452 45.9822C42.0999 45.169 41.7488 43.6389 42.087 43.0102C42.2084 42.7842 42.3943 42.6543 42.5776 42.5062C43.0526 42.1217 45.7195 40.737 46.4656 40.6487C47.9449 40.4564 48.1747 41.5372 48.2444 42.8881C48.389 45.7406 49.9561 48.8451 52.8579 50.183C53.0799 50.7 52.8631 51.2222 52.4113 51.669C51.7581 51.6482 50.9733 51.3391 50.395 50.8247C51.092 51.4975 51.4948 51.7729 52.0524 51.9704C51.6058 52.3003 51.0352 52.5653 50.4518 52.7212C47.284 53.5785 43.1068 48.4944 42.3452 45.977V45.9822Z" fill="#0033FF"/>
<path opacity="0.5" fill-rule="evenodd" clip-rule="evenodd" d="M42.3461 45.9822C42.1009 45.1691 41.7033 43.6103 42.088 43.0102C42.3074 42.6673 43.2239 42.9479 43.3762 43.1271C44.8556 44.3247 44.7291 48.3931 44.8891 49.9804C43.6473 48.7464 42.6792 47.0811 42.3487 45.9796L42.3461 45.9822Z" fill="#072C47"/>
<path fill-rule="evenodd" clip-rule="evenodd" d="M43.3106 40.6669C43.45 40.737 44.1626 40.6357 44.1419 40.7007C44.1316 40.9864 44.0567 41.1735 44.018 41.5242C44.0361 41.8411 45.833 41.9425 45.8794 41.1111C45.8484 40.7578 45.8097 40.3136 45.9104 40.1499C46.0756 39.8797 46.4164 39.581 46.5378 39.1705C46.7314 38.5158 46.6617 37.791 46.055 37.3078C44.95 36.4245 43.5352 37.0532 43.1764 38.3444C43.1067 38.5964 43.3055 38.734 43.2977 38.9497C43.2977 38.9912 43.2409 39.0354 43.1945 39.1289C43.1325 39.2588 43.1377 40.5838 43.308 40.6695L43.3106 40.6669Z" fill="#E7A376"/>
<path fill-rule="evenodd" clip-rule="evenodd" d="M43.3396 40.6667C43.4145 40.7057 43.7217 40.6797 43.9515 40.5914C44.096 40.5368 44.1993 40.4121 44.2226 40.4017C44.3181 40.3628 44.5272 40.0614 44.2019 39.5834C43.8843 39.1158 45.8103 40.3108 45.911 40.1445C46.0762 39.8744 46.3602 39.5756 46.4815 39.1651C46.6752 38.5105 46.6235 37.8038 46.0168 37.3206C44.9119 36.4373 43.5358 37.0452 43.177 38.339C43.1073 38.591 43.306 38.7287 43.2983 38.9443C43.2983 38.9859 43.2415 39.03 43.195 39.1236C43.1331 39.2535 43.1692 40.5732 43.3396 40.6641V40.6667Z" fill="#F0B186"/>
<path fill-rule="evenodd" clip-rule="evenodd" d="M44.1328 39.5991C44.5278 39.2276 44.9125 40.4097 44.2748 40.3967C44.5226 40.1317 44.3342 39.7108 44.1328 39.5991Z" fill="#DA9569"/>
<path fill-rule="evenodd" clip-rule="evenodd" d="M44.1359 39.773C44.0765 39.6067 44.1256 39.547 44.1978 39.5652C44.2779 39.5859 44.3889 39.7002 44.4483 39.8717C44.5438 40.1471 44.407 40.4978 44.141 40.3601C44.3682 40.3731 44.3476 40.0977 44.2804 39.9263C44.234 39.8094 44.1617 39.7288 44.1333 39.773H44.1359Z" fill="#F0B186"/>
<path fill-rule="evenodd" clip-rule="evenodd" d="M44.2363 39.8457C44.1718 39.9652 44.1511 40.0353 44.1718 40.0769C44.1873 40.1055 44.2311 40.1393 44.3009 40.0691C44.3009 39.986 44.275 39.9107 44.2363 39.8457Z" fill="#DA9569"/>
<path fill-rule="evenodd" clip-rule="evenodd" d="M45.8782 40.3108C46.0615 39.9237 46.3894 39.6821 46.5391 39.1703C46.7327 38.5156 46.663 37.7908 46.0563 37.3076C45.1863 36.614 44.1278 36.853 43.5392 37.6142C43.5082 37.6635 43.8412 37.822 43.7302 38.0662C43.5727 38.4819 43.5753 38.6689 43.6398 38.7599C43.8851 39.1132 43.8903 39.1651 43.8774 39.7029L44.0168 39.8172C44.0736 39.3937 44.262 39.4275 44.4428 39.5678C44.7603 39.8146 44.8816 40.3731 45.4083 40.4849C45.6071 40.5264 45.7749 40.4433 45.8756 40.3134L45.8782 40.3108Z" fill="url(#paint2_linear_180_2861)"/>
<path fill-rule="evenodd" clip-rule="evenodd" d="M43.8822 39.5811C43.8409 39.846 43.8228 40.0123 43.7092 40.1448C43.6653 40.1942 43.5517 40.2123 43.4381 40.2331C43.4226 40.111 43.4071 40.0383 43.3787 39.9422C43.3374 39.8019 43.2651 39.6928 43.1541 39.6226C43.1464 39.6564 43.1438 39.7733 43.1645 39.7941C43.2161 39.846 43.2264 39.9084 43.2522 39.9941C43.2781 40.0824 43.2832 40.1422 43.2832 40.2591C43.2548 40.2617 43.2316 40.2669 43.2135 40.2695C43.2032 40.2695 43.2032 40.1942 43.1825 40.1968C43.1722 40.415 43.1696 40.7085 43.2187 40.7267C43.2806 40.7527 43.6498 40.6748 43.8409 40.5994C44.0397 40.5189 43.9803 40.4747 43.9983 40.2409C44.0138 40.0487 44.0138 39.8279 44.0397 39.6226L43.8847 39.5837L43.8822 39.5811Z" fill="#29121A"/>
<path fill-rule="evenodd" clip-rule="evenodd" d="M46.553 38.7467C46.3568 38.6039 45.9101 38.4584 45.0685 38.3986C44.4876 38.3571 44.0823 38.222 43.7286 38.0323C43.1968 37.7465 43.2794 37.1568 43.504 36.9542C43.9377 36.5671 45.0608 36.6061 45.8069 36.9932C46.3516 37.2763 46.6537 37.8375 46.553 38.7441V38.7467Z" fill="url(#paint3_linear_180_2861)"/>
<path fill-rule="evenodd" clip-rule="evenodd" d="M43.4451 37.7831C43.6103 37.9909 44.3151 37.5129 45.3013 37.6948C45.0896 37.0401 44.9683 36.8998 44.6714 36.7076C44.2842 36.4582 43.6361 36.5595 43.4322 36.905C43.236 37.2349 43.316 37.6168 43.4477 37.7831H43.4451Z" fill="#452F24"/>
<path fill-rule="evenodd" clip-rule="evenodd" d="M45.8568 40.8232C45.8284 41.2311 44.8034 41.5377 44.0599 41.2623L44.0728 41.1818C43.9902 41.2441 43.6881 41.6909 43.6855 41.8728C44.491 42.065 45.7251 42.0339 46.0349 41.4C46.102 41.2623 46.0142 40.9947 45.8593 40.8232H45.8568Z" fill="#ECF5FF"/>
<path fill-rule="evenodd" clip-rule="evenodd" d="M45.3152 54.2703C45.3023 54.1508 45.2662 54.1845 45.199 54.1404C45.1887 54.1352 45.1784 54.13 45.1681 54.1248L44.1999 53.7247C43.5906 53.5273 43.4822 54.6677 43.4951 55.5173L44.3238 55.8732L45.3385 55.1562L45.3126 54.2703H45.3152Z" fill="black"/>
<path fill-rule="evenodd" clip-rule="evenodd" d="M44.7643 57.733L44.5526 55.8054L44.4674 55.1871L40.4219 53.3867L40.693 55.9353C40.7007 56.0002 40.7136 56.0574 40.7368 56.1067C40.7523 56.1379 40.7678 56.1665 40.7885 56.1925C40.7988 56.2054 40.8091 56.2158 40.8195 56.2262C40.8427 56.247 40.8659 56.2626 40.8917 56.273L44.9373 58.0733C44.8314 58.0266 44.7824 57.9071 44.7643 57.733Z" fill="black"/>
<path fill-rule="evenodd" clip-rule="evenodd" d="M45.2913 54.5821L44.4652 55.1848L44.7363 57.7334C44.775 58.0841 45.0357 58.1984 45.3223 57.988L45.3326 57.9802C45.6192 57.7698 45.8206 57.3177 45.7844 56.967L45.614 55.3719H45.6192L45.5211 54.4392C45.485 54.1093 45.2862 53.9508 45.0357 54.0158C44.7776 54.0807 44.5401 54.2704 44.4058 54.499C44.2509 54.764 44.1993 55.0887 44.2251 55.3745L44.3051 56.1331L44.5297 55.9694L44.4497 55.2108C44.4368 55.0861 44.4626 54.9406 44.5168 54.8082C44.5891 54.6263 44.8808 54.2288 45.1416 54.3405C45.2191 54.3743 45.2758 54.4574 45.2939 54.5795L45.2913 54.5821Z" fill="black"/>
<path fill-rule="evenodd" clip-rule="evenodd" d="M42.6172 56.1201L42.7824 55.998L42.847 56.6423L42.6843 56.7644L42.6353 56.3955L42.6172 56.1201Z" fill="black"/>
<path fill-rule="evenodd" clip-rule="evenodd" d="M41.2352 52.2309C41.1887 52.2101 41.1113 52.1945 41.0596 52.1997C40.8789 52.2101 40.6956 52.353 40.582 52.4725C40.4788 52.579 40.3961 52.7089 40.3316 52.8414C40.2335 53.0441 40.169 53.2805 40.1741 53.5039C40.1741 53.5299 40.1741 53.5532 40.1793 53.5792L40.2593 54.3404L42.1904 56.0498L42.5493 56.2109L44.3048 56.1408L44.3229 56.1226L44.2945 55.7693C44.2713 55.5614 44.2945 54.9327 44.3771 54.7301C44.4959 54.4469 44.9399 53.9014 45.2781 54.0391L41.2326 52.2387L41.2352 52.2309Z" fill="black"/>
<path fill-rule="evenodd" clip-rule="evenodd" d="M42.6172 56.12L42.6766 56.0732L42.7437 56.7175L42.6843 56.7643L42.6353 56.3954L42.6172 56.12Z" fill="black"/>
<path fill-rule="evenodd" clip-rule="evenodd" d="M42.0996 55.8835L42.412 56.0446L42.616 56.1199L42.6753 56.0732L42.159 55.8394L42.0996 55.8835Z" fill="black"/>
<path fill-rule="evenodd" clip-rule="evenodd" d="M42.0996 55.8838L42.616 56.1202L42.6831 56.7645L42.1667 56.5281L42.0996 55.8838Z" fill="black"/>
<path fill-rule="evenodd" clip-rule="evenodd" d="M42.0546 52.6182C42.0546 52.6182 42.0546 52.5948 42.0546 52.5844C42.0546 52.5844 42.0546 52.5818 42.0546 52.5792C42.0546 52.5688 42.0546 52.5584 42.0571 52.548C42.0571 52.548 42.0571 52.5454 42.0571 52.5428C42.0571 52.5325 42.0623 52.5247 42.0649 52.5169C42.0675 52.5065 42.0726 52.4987 42.0752 52.4909C42.0804 52.4779 42.0881 52.4675 42.0959 52.4571C42.0959 52.4571 42.0985 52.4519 42.101 52.4493C42.1088 52.4389 42.1165 52.4311 42.1269 52.4233C42.0055 52.5169 41.8145 52.5662 41.7473 52.6909C41.7189 52.7455 41.7654 53.0053 41.7757 53.0754L42.0804 52.839L42.0571 52.6623C42.0571 52.6494 42.0546 52.6364 42.0546 52.6234C42.0546 52.6234 42.0546 52.6234 42.0546 52.6208V52.6182Z" fill="black"/>
<path fill-rule="evenodd" clip-rule="evenodd" d="M41.9648 52.2071L41.6602 52.4435C41.7892 52.3941 41.9338 52.4149 42.0603 52.4669L42.0732 52.4539L42.7806 52.7474C43.0801 52.8695 43.3021 53.1735 43.3976 53.4904L43.4235 53.4697V53.4749C43.4286 53.4956 43.4312 53.5164 43.4338 53.5372L43.457 53.7139L43.7617 53.4775C43.7307 53.2462 43.7255 53.1293 43.5939 52.9111C43.5603 52.8592 43.4235 52.6643 43.3641 52.6279C43.3305 52.576 43.1472 52.4669 43.0853 52.4409C43.0853 52.4409 43.0827 52.4409 43.0801 52.4409L42.334 52.1317C42.2126 52.0798 42.0577 52.059 41.9467 52.1473L41.9648 52.2071Z" fill="black"/>
<path fill-rule="evenodd" clip-rule="evenodd" d="M42.7929 52.7402L42.0468 52.431C41.7266 52.2985 41.5046 52.47 41.5485 52.8129L41.5717 52.9896L41.7757 53.0727L41.7525 52.8961C41.7241 52.6752 41.8686 52.5635 42.0752 52.6493L42.8213 52.9584C43.0278 53.0441 43.2189 53.2935 43.2473 53.5144L43.2705 53.691L43.4745 53.7767L43.4512 53.6001C43.4073 53.2572 43.1104 52.8701 42.7903 52.7402H42.7929Z" fill="black"/>
<path fill-rule="evenodd" clip-rule="evenodd" d="M43.0699 53.1377C43.1809 53.3092 43.2223 53.3585 43.2532 53.5482C43.2403 53.556 43.1371 53.5949 43.1035 53.6001C43.057 53.6105 42.9563 53.5222 42.9512 53.478C42.9512 53.4676 42.9744 53.3273 42.9744 53.3273L43.0725 53.1403L43.0699 53.1377Z" fill="black"/>
<path fill-rule="evenodd" clip-rule="evenodd" d="M42.0427 51.6154C41.973 51.8492 41.8465 51.9583 41.7768 52.0804C41.6942 52.2259 41.6374 52.3038 41.6477 52.4259C41.6813 52.7663 41.7355 53.0261 41.8413 53.1222C42.0298 53.3014 42.7785 53.5326 43.1064 53.6054C43.0702 53.4417 43.0263 53.2625 43.0857 53.0806C43.1348 52.9299 43.2484 52.8078 43.2819 52.652C43.3206 52.4727 43.2096 52.2623 43.2045 51.9583L42.0427 51.6128V51.6154Z" fill="black"/>
<path fill-rule="evenodd" clip-rule="evenodd" d="M42.8102 53.5302C42.9238 53.564 43.0245 53.59 43.1045 53.6082C43.0684 53.4445 43.0245 53.2652 43.0839 53.0834C43.1329 52.9327 43.2465 52.8106 43.2801 52.6547C43.3188 52.4755 43.2078 52.265 43.2026 51.9611L42.9522 51.8857L42.9574 51.9325C42.9574 52.2365 42.9806 52.3352 42.9393 52.4599C42.8438 52.7482 42.756 52.7846 42.7353 52.9587C42.7198 53.1016 42.7405 53.3328 42.8102 53.5328V53.5302Z" fill="black"/>
<path fill-rule="evenodd" clip-rule="evenodd" d="M42.1403 42.9378C41.5646 43.4911 42.3159 46.3566 42.5431 48.079L42.0422 51.4771C42.1145 52.059 43.0594 52.2149 43.284 51.9759L44.2392 48.292C44.1954 47.4321 43.9243 45.0083 43.8313 44.1874C43.7281 43.2703 42.9794 42.1272 42.1403 42.9378Z" fill="#0033FF"/>
<path fill-rule="evenodd" clip-rule="evenodd" d="M57.5591 53.4726L63.2879 50.2149C63.9127 49.9291 64.806 49.7031 65.4437 50.033C66.0246 50.3344 66.9772 50.9501 67.4006 51.1917C67.7207 51.3735 68.836 52.0412 68.1416 52.4179C66.102 53.5246 64.0831 54.7716 62.01 55.8965C61.6176 56.1095 61.0444 56.1875 60.4429 56.1355C59.8439 56.0861 59.2295 55.9121 58.7467 55.6315C58.4034 55.4315 58.0652 55.234 57.7295 55.0418C57.2803 54.7794 57.0428 54.4702 57.0196 54.1845C56.9963 53.9065 57.177 53.6467 57.5591 53.4726Z" fill="#C5DAF1"/>
<path fill-rule="evenodd" clip-rule="evenodd" d="M57.1401 27.9249C56.678 27.8521 56.3114 28.1743 56.1255 28.6003C55.9086 29.1017 55.919 29.7486 56.0119 30.0889C56.314 31.1956 55.7821 31.6763 55.5859 32.1906C55.5007 32.4167 55.462 32.7154 55.4723 33.0427C55.4852 33.4376 55.7124 33.6429 55.9035 33.9962C55.9525 34.3573 56.0403 34.6924 56.1797 34.9756C56.7012 36.0251 58.4542 36.5317 60.1349 36.4538C61.48 36.3914 62.7837 35.9134 63.3724 35.3601C64.0178 34.7548 64.103 33.2194 63.0161 33.0635C62.7631 33.0272 62.4688 32.9726 62.2519 32.7076C62.1022 32.5258 62.2467 32.0504 62.2829 31.4139C62.3164 30.7982 62.177 30.1513 61.2889 29.9357C60.9481 29.8525 60.6151 29.8187 60.3311 29.6317C59.7115 29.2212 59.9387 28.46 59.2649 28.0106C58.857 27.7404 58.2038 27.6807 57.4886 27.8807C57.3725 27.8937 57.2563 27.9093 57.1375 27.9223L57.1401 27.9249Z" fill="black"/>
<path fill-rule="evenodd" clip-rule="evenodd" d="M48.4546 29.7769C48.2945 29.8211 48.1525 29.8496 47.9899 29.8834C47.8634 29.9042 47.7704 29.9146 47.7111 29.899C47.6568 29.8834 47.6491 29.8314 47.6517 29.8029C47.662 29.7379 47.7653 29.7042 47.866 29.6886C48.0467 29.6522 48.1835 29.6028 48.3616 29.5431C48.2042 29.5639 47.9744 29.6262 47.8221 29.647C47.7033 29.6652 47.6491 29.6054 47.6465 29.5613C47.6439 29.4418 47.8582 29.4158 47.9408 29.408C48.088 29.382 48.1938 29.356 48.3229 29.3404C48.3616 29.3352 48.6198 29.3145 48.4262 29.2963C48.2455 29.2807 47.9718 29.2625 47.8763 29.2261C47.8169 29.2054 47.8014 29.156 47.8117 29.1274C47.8298 29.0781 47.9098 29.0391 48.0286 29.0365C48.2274 29.0339 48.5088 29.0495 48.5837 29.0521C48.6405 29.0521 48.7102 29.0599 48.7825 29.0625C48.9813 29.0677 49.211 29.0547 49.3091 28.9118C49.3453 28.8572 49.3401 28.7871 49.3582 28.6832C49.3866 28.5221 49.4356 28.3948 49.6189 28.374C49.6293 28.5637 49.5699 28.7403 49.6706 28.9897C49.7971 29.156 49.7997 29.3898 49.8616 29.4522C49.8952 29.4859 49.9468 29.5067 50.0527 29.5665L49.983 30.099L49.81 30.2523C49.7635 30.2185 49.6731 30.1614 49.5828 30.1224C49.4021 30.1354 49.1646 30.0523 48.9477 29.9899C48.8393 29.9587 48.7696 29.951 48.6998 29.9561C48.5114 29.9717 48.1706 30.1718 48.0157 30.1328C47.9615 30.1172 47.9279 30.0912 47.9305 30.0549C47.9382 29.9821 48.1009 29.9354 48.2377 29.8886C48.3152 29.8626 48.3952 29.8237 48.4597 29.7743L48.4546 29.7769Z" fill="#F0B186"/>
<path fill-rule="evenodd" clip-rule="evenodd" d="M55.9551 33.268L52.666 32.5588C51.8993 31.9924 50.9905 31.3247 50.2238 30.761C49.963 30.5688 50.0327 30.5999 49.8442 30.3349L49.6016 30.1453C49.8701 29.9297 49.9578 29.5712 49.8752 29.4517L50.1334 29.6023C50.5077 29.6413 50.4793 29.6595 50.7995 29.8621L53.0688 31.3118L55.6918 31.6001L56.4482 31.5586C57.8398 31.7638 57.0446 33.4213 55.9526 33.268H55.9551Z" fill="#0033FF"/>
<path fill-rule="evenodd" clip-rule="evenodd" d="M61.6933 50.7139C62.3284 51.0724 61.8172 51.1815 62.1322 51.8621C62.1606 51.9219 62.3413 53.0806 62.3413 53.0806C62.3413 53.0806 61.7759 53.5092 61.7269 53.5222C61.6752 53.5352 61.2286 53.5534 61.2286 53.5534C61.2363 53.4832 61.2208 53.3274 61.2234 53.2624C61.2518 52.826 61.1227 52.3713 61.0066 51.9063C60.9291 51.5998 60.893 51.275 60.7871 51.0022L61.6959 50.7165L61.6933 50.7139Z" fill="black"/>
<path fill-rule="evenodd" clip-rule="evenodd" d="M61.2018 53.5536C61.1889 53.7614 61.1915 53.8965 61.2044 54.0524C61.2122 54.1303 61.2432 54.1927 61.287 54.2186C61.522 54.3641 62.1416 53.6835 62.3094 53.3535C62.4178 53.1405 62.3533 52.9638 62.3094 52.7352C62.2423 52.3923 62.2397 52.3507 62.1855 51.9922L62.6218 52.8521L62.7121 52.8677C62.5856 52.4988 62.4359 52.0026 62.3688 51.6675C62.343 51.535 62.3249 51.3791 62.3042 51.3064C62.1777 50.8881 61.9015 50.7686 61.6743 50.7271C61.8369 50.9453 61.7905 51.4285 61.9067 51.9637C62.0486 52.6131 61.7311 53.3276 61.2044 53.551L61.2018 53.5536Z" fill="black"/>
<path fill-rule="evenodd" clip-rule="evenodd" d="M55.8047 38.2051C55.8099 38.4233 55.8099 38.7142 55.8099 39.0831C55.8099 39.5456 55.8202 39.982 55.9751 40.5639C56.2281 41.5122 56.8503 43.6269 57.2917 44.6894C57.3382 44.8453 57.4157 44.9726 57.5138 45.0765C57.5396 45.1363 57.5706 45.1934 57.6119 45.2454C58.5826 47.2588 59.6488 49.2098 60.7512 51.153C61.012 51.3037 61.5232 51.1712 61.8665 50.7477C61.4664 49.6488 61.1901 47.8459 60.697 46.7781C60.3691 46.0689 60.0154 45.5961 59.5714 45.0064C59.4165 44.7648 59.2745 44.5284 59.1093 44.3413C59.1428 43.8113 58.9854 43.1904 58.9724 42.6916C58.9311 41.0186 58.9105 39.2078 58.4897 37.8569L55.8073 38.1999L55.8047 38.2051Z" fill="black"/>
<path fill-rule="evenodd" clip-rule="evenodd" d="M61.8774 47.6924C62.5977 47.5911 62.2569 47.986 62.9178 48.3367C62.9772 48.3679 63.8188 49.1784 63.8188 49.1784C63.8188 49.1784 63.6278 49.8643 63.5968 49.9058C63.5633 49.9474 63.2199 50.2332 63.2199 50.2332C63.1837 50.1734 63.0753 50.0591 63.0417 50.0046C62.8016 49.6408 62.4221 49.3577 62.0504 49.0589C61.8051 48.8615 61.5805 48.6277 61.3301 48.4744L61.88 47.6898L61.8774 47.6924Z" fill="black"/>
<path fill-rule="evenodd" clip-rule="evenodd" d="M62.9096 49.8202C62.987 49.9527 63.1109 50.1216 63.2013 50.2567C63.3175 50.4281 63.4001 50.5294 63.5034 50.6438C63.555 50.7009 63.617 50.7321 63.6686 50.7269C63.9423 50.7009 64.0249 49.7786 63.9577 49.4149C63.9139 49.1785 63.7564 49.0798 63.5834 48.9239C63.3226 48.6927 63.2968 48.6616 63.0361 48.4096L63.9009 48.8252L63.9836 48.7811C63.6608 48.5654 63.24 48.2615 62.987 48.0381C62.8863 47.9497 62.7779 47.8354 62.7185 47.7913C62.3674 47.5367 62.0731 47.612 61.8691 47.7159C62.1325 47.7913 62.3984 48.1757 62.814 48.5317C63.2504 48.9032 63.6144 49.4903 63.5318 49.7293C63.4982 49.8306 63.2684 49.9605 63.1445 50.0306C63.098 50.0566 62.987 49.9267 62.907 49.8228L62.9096 49.8202Z" fill="black"/>
<path fill-rule="evenodd" clip-rule="evenodd" d="M59.4315 38.431C60.1466 39.5923 61.0373 40.7873 60.1363 42.1928C59.7645 42.7721 58.6002 43.6866 57.9212 44.6919L57.9083 44.7101C58.3601 44.7959 58.5176 44.7907 59.0778 45.1128C59.9969 45.6428 60.7172 46.7443 61.8377 47.586C62.1191 47.9159 61.8712 48.6823 61.5692 48.7473C60.4848 48.1602 59.1604 47.4405 57.898 46.8222C57.3016 46.5313 56.7181 46.2611 56.1811 46.0403C56.0753 46.0091 55.9694 45.9571 55.8662 45.8818C55.4428 45.5285 55.4479 45.0063 55.577 44.6452C55.6519 44.3516 55.7422 44.0659 55.8636 43.7905C56.2663 42.8734 57.0512 41.8628 57.5107 40.9458C57.2809 40.5561 55.83 38.6908 55.8197 38.5583C55.9669 38.1764 56.5219 37.1528 56.5219 37.1528L59.4341 38.431H59.4315Z" fill="black"/>
<path fill-rule="evenodd" clip-rule="evenodd" d="M59.5958 36.3996C59.1492 37.2907 59.743 37.7895 59.5003 38.4207L59.619 38.6961C58.9013 39.2157 56.4384 39.5586 55.7955 38.5299L55.7826 38.0181C55.6716 37.7713 55.6458 36.9763 55.6768 36.8126C55.78 36.2931 55.731 36.0151 55.7878 35.4124C55.8033 35.2513 55.8188 35.0876 55.8342 34.9266C55.8368 34.8928 55.842 34.859 55.8446 34.8252C55.6587 34.685 55.5115 34.5083 55.4522 34.2485C55.3695 33.8874 55.4496 33.5471 55.6484 33.2509C55.8626 32.9366 55.9866 32.7106 56.0924 32.4612C56.126 32.2689 56.157 32.113 56.1905 32.0091C56.2112 31.9208 56.2602 31.8351 56.3093 31.7623C56.4719 31.5285 56.7662 31.409 57.2748 31.6246C57.7318 31.8169 58.3385 32.0767 58.8703 32.4092C59.1001 32.5521 59.8307 33.1002 59.9882 33.3237C60.0682 33.4354 60.1199 33.5705 60.1302 33.7419C60.1844 34.5499 59.9443 35.7007 59.5932 36.4022L59.5958 36.3996Z" fill="#0033FF"/>
<path opacity="0.5" fill-rule="evenodd" clip-rule="evenodd" d="M59.5964 36.3993C59.5267 36.537 59.4828 36.6669 59.457 36.789C59.0387 35.5836 58.951 34.4769 59.1807 33.8248C59.5189 32.8584 60.0249 35.077 60.0224 35.09C59.9243 35.5732 59.7745 36.0434 59.599 36.3993H59.5964Z" fill="#1F86B4"/>
<path fill-rule="evenodd" clip-rule="evenodd" d="M58.263 30.853C58.1804 31.331 58.2242 31.7805 58.3714 32.2429C57.9841 32.604 57.2948 32.4507 57.1348 32.1234C57.1683 31.9104 57.2071 31.7181 57.2303 31.4999L58.2656 30.853H58.263Z" fill="#E7A376"/>
<path fill-rule="evenodd" clip-rule="evenodd" d="M56.6632 28.8345C56.4696 29.1436 56.3663 29.4528 56.4128 29.8944C56.4231 30.0061 56.4076 30.0763 56.3767 30.1464C56.1959 30.5569 56.2114 30.6842 56.3018 31.0141C56.3896 31.3337 56.3818 31.5025 56.4903 31.6116C56.6013 31.7233 56.7691 31.7493 56.9085 31.7597C57.1976 31.7779 57.6959 31.5857 57.9851 31.4272C58.1993 31.3103 58.1916 31.2297 58.282 31.0245C58.584 30.7595 58.3878 30.5673 58.2871 30.5465C57.9954 30.4893 57.9489 30.8271 57.7785 30.8998C57.8069 30.3075 56.6865 29.3099 56.6658 28.8345H56.6632Z" fill="#F0B186"/>
<path fill-rule="evenodd" clip-rule="evenodd" d="M56.6629 28.8345C56.8256 29.5619 57.7679 30.11 57.7756 30.8998C57.5175 30.0789 56.6035 29.5177 56.6629 28.8345Z" fill="#E7A376"/>
<path fill-rule="evenodd" clip-rule="evenodd" d="M56.6254 30.1205C56.5893 30.0556 56.5635 30.0088 56.5222 29.9698C56.4602 29.9075 56.3828 29.8737 56.3027 29.749C56.3389 29.8503 56.3931 29.9309 56.4705 30.0036C56.5144 30.0426 56.548 30.0764 56.6229 30.1205H56.6254Z" fill="#401C28"/>
<path fill-rule="evenodd" clip-rule="evenodd" d="M56.9609 30.3311C57.0332 30.3363 57.1133 30.3648 57.1675 30.3986C57.2294 30.4376 57.2862 30.5129 57.3792 30.5493C57.2888 30.5337 57.2139 30.4895 57.1287 30.4454C57.0668 30.4142 57.0281 30.3544 56.9609 30.3311Z" fill="#401C28"/>
<path fill-rule="evenodd" clip-rule="evenodd" d="M56.516 31.0554C56.5857 31.0762 56.6064 31.1022 56.6528 31.1281C56.7974 31.2061 56.8232 31.2139 56.9807 31.2346C56.7716 31.2736 56.6167 31.2788 56.4954 31.1827C56.4773 31.1697 56.4463 31.0346 56.516 31.0554Z" fill="#EC8780"/>
<path fill-rule="evenodd" clip-rule="evenodd" d="M56.6828 30.2529C56.515 30.5725 56.2646 30.5803 56.5357 30.8089C56.1613 30.6166 56.484 30.5413 56.6828 30.2529Z" fill="#E7A376"/>
<path fill-rule="evenodd" clip-rule="evenodd" d="M56.5029 29.9673C56.4796 29.9673 56.459 29.9959 56.459 30.0296C56.459 30.0634 56.4796 30.092 56.5029 30.092C56.5261 30.092 56.5468 30.0634 56.5468 30.0296C56.5468 29.9959 56.5261 29.9673 56.5029 29.9673Z" fill="#401C28"/>
<path fill-rule="evenodd" clip-rule="evenodd" d="M57.1415 30.3906C57.1157 30.3906 57.0977 30.414 57.0977 30.4504C57.0977 30.4867 57.1183 30.5179 57.1441 30.5179C57.1699 30.5179 57.1906 30.4893 57.1906 30.4504C57.1906 30.4114 57.1674 30.3906 57.1415 30.3906Z" fill="#401C28"/>
<path fill-rule="evenodd" clip-rule="evenodd" d="M61.5239 43.3305C61.4723 43.2318 61.5162 43.2396 61.5446 43.1694C61.5497 43.159 61.5523 43.1512 61.56 43.1408L62.0996 42.3303C62.4662 41.8627 63.1349 42.681 63.5609 43.3409L63.1065 44.0449L61.9602 44.0215L61.5239 43.3279V43.3305Z" fill="black"/>
<path fill-rule="evenodd" clip-rule="evenodd" d="M63.7276 45.7049L62.8989 44.1124L62.6484 43.5928L64.8326 40.1064L65.9324 42.2056C65.9608 42.2601 65.9788 42.3121 65.9866 42.3588C65.9917 42.39 65.9943 42.4212 65.9918 42.4498C65.9918 42.4653 65.9892 42.4783 65.984 42.4913C65.9763 42.5173 65.9659 42.5433 65.953 42.5667L63.7689 46.053C63.8257 45.9621 63.8025 45.8452 63.7276 45.7023V45.7049Z" fill="black"/>
<path fill-rule="evenodd" clip-rule="evenodd" d="M61.7037 43.5593L62.6486 43.5931L63.7484 45.6922C63.9007 45.9806 63.7561 46.2066 63.4282 46.1936H63.4153C63.0875 46.1806 62.7002 45.939 62.5479 45.648L61.8611 44.3335H61.856L61.4558 43.5671C61.3138 43.2943 61.3861 43.0709 61.6107 42.9878C61.8431 42.902 62.1219 42.9254 62.3439 43.0319C62.5969 43.154 62.806 43.3775 62.9326 43.6113L63.2604 44.2348L63.0023 44.2244L62.6744 43.6009C62.6202 43.497 62.5272 43.4008 62.4162 43.3255C62.2665 43.2242 61.8379 43.0683 61.6985 43.2917C61.6572 43.3593 61.6546 43.4502 61.7037 43.5541V43.5593Z" fill="black"/>
<path fill-rule="evenodd" clip-rule="evenodd" d="M64.5478 43.3486L64.3594 43.3408L64.6382 43.8708L64.8267 43.8786L64.6743 43.572L64.5478 43.3486Z" fill="black"/>
<path fill-rule="evenodd" clip-rule="evenodd" d="M63.6119 39.644C63.6377 39.6024 63.6893 39.5531 63.728 39.5297C63.8726 39.444 64.0869 39.4569 64.2366 39.4907C64.3709 39.5193 64.5025 39.5739 64.6187 39.6414C64.7994 39.7453 64.9698 39.8934 65.0809 40.0675C65.0938 40.0882 65.1041 40.1064 65.1144 40.1272L65.4423 40.7533L64.8356 43.0706L64.642 43.3798L63.2582 44.2397L63.2349 44.2345L63.0749 43.9487C62.9845 43.7773 62.6463 43.307 62.4759 43.1927C62.241 43.0343 61.6162 42.8498 61.4277 43.1304L63.6119 39.644Z" fill="black"/>
<path fill-rule="evenodd" clip-rule="evenodd" d="M64.5482 43.3488L64.4785 43.3462L64.7573 43.8762L64.827 43.8788L64.6747 43.5722L64.5482 43.3488Z" fill="black"/>
<path fill-rule="evenodd" clip-rule="evenodd" d="M64.8245 42.8991L64.667 43.1849L64.5482 43.3485L64.4785 43.3459L64.7548 42.8965L64.8245 42.8991Z" fill="black"/>
<path fill-rule="evenodd" clip-rule="evenodd" d="M64.8251 42.8994L64.5488 43.3489L64.8276 43.8788L65.1039 43.4294L64.8251 42.8994Z" fill="black"/>
<path fill-rule="evenodd" clip-rule="evenodd" d="M63.1077 40.611C63.1077 40.611 63.0973 40.598 63.0948 40.5928C63.0896 40.5876 63.0844 40.5824 63.0793 40.5772C63.0793 40.5772 63.0793 40.5772 63.0767 40.5746C63.0715 40.5694 63.0664 40.5668 63.0612 40.5616C63.056 40.5564 63.0483 40.5538 63.0431 40.5512C63.0354 40.546 63.0251 40.5434 63.0173 40.5408H63.0121C63.0044 40.5408 62.9941 40.5356 62.9863 40.5356L63.2677 40.546C63.2677 40.546 63.2858 40.546 63.2936 40.5512H63.2987C63.3065 40.5538 63.3168 40.5564 63.3245 40.5616C63.3245 40.5616 63.3349 40.5694 63.34 40.572C63.3426 40.5746 63.3478 40.5772 63.3503 40.5798C63.3503 40.5798 63.3529 40.5824 63.3555 40.585C63.3555 40.585 63.3555 40.585 63.3581 40.5876C63.3581 40.5876 63.3581 40.5876 63.3607 40.5876C63.3633 40.5902 63.3658 40.5928 63.371 40.598C63.371 40.598 63.371 40.598 63.3736 40.6006C63.3736 40.6006 63.3736 40.6006 63.3762 40.6032C63.3762 40.6058 63.3813 40.611 63.3839 40.6136C63.3839 40.6136 63.3839 40.6162 63.3891 40.6188C63.3891 40.6214 63.3942 40.6266 63.3942 40.6292C63.3942 40.6318 63.3994 40.637 63.3994 40.6396L63.4614 40.7539L63.18 40.7435L63.118 40.6292C63.118 40.6292 63.1077 40.6136 63.1025 40.6058L63.1077 40.611Z" fill="#783C18"/>
<path fill-rule="evenodd" clip-rule="evenodd" d="M62.7618 40.473C62.7618 40.473 62.7695 40.4626 62.7721 40.4574C62.7721 40.4548 62.7772 40.4522 62.7798 40.447C62.7798 40.447 62.7798 40.447 62.7798 40.4444C62.7824 40.4392 62.7876 40.4366 62.7902 40.4314C62.7927 40.4262 62.7979 40.4236 62.8005 40.4184C62.8031 40.4158 62.8056 40.4132 62.8082 40.4107C62.8134 40.4055 62.816 40.4029 62.8211 40.4003C62.8211 40.4003 62.8263 40.3977 62.8263 40.3951C62.8263 40.3951 62.8263 40.3951 62.8289 40.3951C62.8289 40.3951 62.8289 40.3951 62.8315 40.3925C62.8366 40.3899 62.8418 40.3847 62.8444 40.3821C62.847 40.3821 62.8495 40.3769 62.8521 40.3769C62.8521 40.3769 62.8521 40.3769 62.8547 40.3769C62.8547 40.3769 62.8547 40.3769 62.8573 40.3769C62.8624 40.3743 62.8676 40.3717 62.8728 40.3665C62.8728 40.3665 62.8779 40.3665 62.8805 40.3639C62.8805 40.3639 62.8831 40.3639 62.8857 40.3613C62.8857 40.3613 62.8883 40.3613 62.8908 40.3587C62.8986 40.3561 62.9063 40.3535 62.9115 40.3509C62.9115 40.3509 62.9141 40.3509 62.9167 40.3509C62.9244 40.3509 62.9322 40.3483 62.9399 40.3457C62.9502 40.3457 62.9631 40.3457 62.9735 40.3457L63.2549 40.3561C63.1568 40.3821 63.0793 40.4548 63.0277 40.5379H63.0148L62.7179 41.0082C62.5914 41.2082 62.5862 41.481 62.6637 41.707H62.6404V41.7096L62.7024 41.8239L62.421 41.8135L62.359 41.6992V41.6914H62.3564C62.3564 41.6862 62.3539 41.6836 62.3513 41.6784C62.3513 41.6732 62.3461 41.6654 62.3435 41.6602C62.3358 41.6421 62.3306 41.6213 62.3255 41.6031C62.3255 41.6031 62.3255 41.5979 62.3255 41.5953C62.3255 41.5953 62.3255 41.5927 62.3255 41.5901C62.3255 41.5875 62.3255 41.5849 62.3255 41.5823C62.3151 41.5355 62.3074 41.4862 62.3022 41.4394C62.2996 41.3667 62.2996 41.2991 62.31 41.2264C62.31 41.2264 62.3151 41.2004 62.3151 41.1978C62.3151 41.1926 62.3177 41.177 62.3203 41.1744C62.3203 41.1303 62.3822 40.9874 62.4081 40.9458C62.4081 40.9458 62.4081 40.9458 62.4081 40.9432L62.723 40.4444C62.723 40.4444 62.7282 40.4366 62.7308 40.4314L62.7618 40.473Z" fill="#31ACCB"/>
<path fill-rule="evenodd" clip-rule="evenodd" d="M62.7208 40.9954L63.0332 40.4966C63.1675 40.2836 63.3714 40.2888 63.4902 40.5096L63.5521 40.6239L63.4669 40.759L63.405 40.6447C63.3301 40.5018 63.1959 40.4966 63.1107 40.6369L62.7983 41.1357C62.7105 41.2734 62.7027 41.502 62.7776 41.6449L62.8396 41.7592L62.7544 41.8969L62.6924 41.7826C62.5762 41.5617 62.5892 41.2084 62.7234 40.9954H62.7208Z" fill="#1989A5"/>
<path fill-rule="evenodd" clip-rule="evenodd" d="M63.0878 39.7633C63.2298 40.3583 63.4544 40.6025 63.4569 40.7376C63.4569 40.8519 63.1187 41.4858 62.9871 41.6494C62.9458 41.6988 62.8064 41.6754 62.7831 41.6572C62.6669 41.5637 62.7134 41.3637 62.6024 41.1272C62.5379 40.9922 62.432 41.0493 62.3907 41.0961C62.3236 41.1714 62.3365 41.3247 62.3262 41.4156C62.2461 41.0727 62.0525 40.8363 62.1867 40.5219C62.2461 40.3816 62.3391 40.2414 62.3184 40.0231L63.0903 39.7607L63.0878 39.7633Z" fill="#E7A376"/>
<path fill-rule="evenodd" clip-rule="evenodd" d="M60.5731 33.5988C61.1746 34.1834 61.6935 35.8434 62.1918 36.6566C62.5326 37.6724 62.9353 38.7375 63.1987 39.7767C63.1057 40.0468 62.4835 40.5794 62.215 40.2443C61.8923 39.3792 61.4508 38.4283 61.1694 37.4983C60.8132 37.1086 59.5559 35.6382 59.1764 34.5627C59.0576 34.2249 59.1015 33.8015 59.308 33.4897C59.4629 33.2585 59.7108 33.0533 60.049 33.1858C60.2555 33.2663 60.4285 33.456 60.5705 33.5962L60.5731 33.5988Z" fill="#0033FF"/>
<defs>
<linearGradient id="paint0_linear_180_2861" x1="24.4131" y1="23.4209" x2="26.5167" y2="27.2703" gradientUnits="userSpaceOnUse">
<stop stop-color="#D5E6F8"/>
<stop offset="1" stop-color="#B5CDE6"/>
</linearGradient>
<linearGradient id="paint1_linear_180_2861" x1="24.4511" y1="17.2322" x2="24.4616" y2="17.8193" gradientUnits="userSpaceOnUse">
<stop stop-color="#4D3529"/>
<stop offset="1" stop-color="#38251B"/>
</linearGradient>
<linearGradient id="paint2_linear_180_2861" x1="44.8997" y1="37.5232" x2="45.336" y2="39.4341" gradientUnits="userSpaceOnUse">
<stop stop-color="#38251B"/>
<stop offset="1" stop-color="#1C120D"/>
</linearGradient>
<linearGradient id="paint3_linear_180_2861" x1="44.4644" y1="36.8061" x2="44.9572" y2="37.7492" gradientUnits="userSpaceOnUse">
<stop stop-color="#4D3529"/>
<stop offset="1" stop-color="#38251B"/>
</linearGradient>
</defs>
</svg>
