<svg width="113" height="112" viewBox="0 0 113 112" fill="none" xmlns="http://www.w3.org/2000/svg">
<mask id="mask0_180_460" style="mask-type:luminance" maskUnits="userSpaceOnUse" x="0" y="0" width="113" height="112">
<path d="M0.693359 9.91821e-05H112.308V111.614H0.693359V9.91821e-05Z" fill="white"/>
</mask>
<g mask="url(#mask0_180_460)">
<path d="M67.8072 30.1816C67.6467 30.1916 67.4984 30.2914 67.4337 30.4504L66.6258 32.4418C66.5747 32.567 66.5857 32.7088 66.6549 32.8248C66.7238 32.9411 66.8437 33.0182 66.9779 33.0329C67.3303 33.072 67.6636 33.2706 67.8924 33.578C68.1027 33.8606 68.1916 34.1981 68.1355 34.504C68.0799 34.8089 67.8768 35.0957 67.579 35.2917C67.26 35.5011 66.8707 35.5804 66.5363 35.5025C65.8532 35.3442 65.3242 34.5892 65.3811 33.8537C65.3994 33.616 65.2217 33.4086 64.9842 33.3903C64.7425 33.3722 64.5389 33.5494 64.5203 33.7872C64.4311 34.9433 65.2478 36.09 66.3417 36.3436C66.9087 36.4749 67.533 36.3545 68.0529 36.013C68.5469 35.6882 68.8865 35.1949 68.9845 34.6591C69.0834 34.1187 68.9376 33.5367 68.5847 33.0626C68.3297 32.7199 67.9895 32.4599 67.6107 32.3096L68.2338 30.7747C68.3235 30.5537 68.217 30.3021 67.9962 30.2126C67.934 30.1874 67.8697 30.1776 67.8072 30.1816Z" fill="#E1E1E1"/>
<path d="M68.6983 29.5677C68.7762 29.3889 68.6942 29.1811 68.5157 29.1029C68.3368 29.025 68.1288 29.1069 68.0511 29.2855C67.973 29.4643 68.0547 29.6724 68.2335 29.7503C68.4123 29.8282 68.6201 29.7465 68.6983 29.5677Z" fill="#E1E1E1"/>
<path d="M55.3135 14.5268C55.3777 14.3808 55.3574 14.2044 55.2469 14.0747L53.8591 12.4527C53.7721 12.3507 53.6419 12.2954 53.508 12.3036C53.374 12.3114 53.2515 12.382 53.1769 12.4936C52.9816 12.7867 52.6544 12.9898 52.2789 13.0512C51.9333 13.1079 51.5951 13.032 51.3511 12.8429C51.1076 12.6548 50.9469 12.3449 50.9103 11.9924C50.8712 11.6154 50.979 11.2359 51.2002 10.9765C51.6518 10.4464 52.5593 10.3245 53.1821 10.7102C53.3834 10.835 53.6475 10.7729 53.7721 10.5718C53.8982 10.3667 53.8348 10.1064 53.6337 9.9816C52.6548 9.37509 51.2703 9.57198 50.5473 10.4209C50.1727 10.8611 49.9935 11.4667 50.0578 12.0811C50.1185 12.6655 50.3986 13.1901 50.8266 13.5211C51.2581 13.8551 51.8378 13.9921 52.4173 13.8972C52.8361 13.8289 53.2205 13.6477 53.5261 13.382L54.5955 14.6323C54.7496 14.812 55.0201 14.8332 55.1998 14.6792C55.2503 14.6359 55.2882 14.5837 55.3135 14.5268Z" fill="#E1E1E1"/>
<path d="M55.4495 15.5921C55.5717 15.7423 55.7924 15.7653 55.9427 15.6432C56.0931 15.5211 56.1159 15.3003 55.9938 15.1501C55.8719 14.9997 55.6509 14.9769 55.5007 15.099C55.3504 15.2209 55.3274 15.4419 55.4495 15.5921Z" fill="#E1E1E1"/>
<path d="M103.787 44.4487H83.957V15.7056H103.787V44.4487Z" fill="#E1E1E1"/>
<path d="M102.795 44.4487H82.9648V15.7056H102.795V44.4487Z" fill="#F5F5F5"/>
<path d="M100.332 41.3364H85.4297V18.8196H100.332V41.3364Z" fill="white"/>
<path d="M100.332 41.3358C100.332 41.3358 100.33 41.2979 100.329 41.2258C100.328 41.1514 100.327 41.0454 100.326 40.9066C100.325 40.6235 100.323 40.2092 100.32 39.6714C100.317 38.5921 100.312 37.0197 100.307 35.033C100.3 31.0626 100.292 25.4402 100.282 18.819L100.332 18.8686C95.7788 18.8697 90.7336 18.8712 85.4308 18.873H85.429L85.4828 18.819C85.4788 27.3133 85.475 35.145 85.4721 41.3358L85.429 41.293C89.9675 41.3023 93.6876 41.3102 96.2764 41.3155C97.5713 41.3202 98.5823 41.324 99.2732 41.3264C99.6165 41.3285 99.8795 41.3302 100.06 41.3311C100.238 41.3327 100.332 41.3358 100.332 41.3358C100.332 41.3358 100.244 41.3389 100.069 41.3405C99.8902 41.3416 99.6299 41.3432 99.2902 41.3452C98.6017 41.3479 97.5936 41.3514 96.3029 41.3561C93.7079 41.3617 89.9786 41.3693 85.429 41.3789H85.3862V41.3358C85.383 35.145 85.3795 27.3133 85.3752 18.819L85.375 18.765H85.429H85.4308C90.7336 18.7665 95.7788 18.7681 100.332 18.7694H100.381V18.819C100.371 25.4534 100.363 31.087 100.357 35.0656C100.351 37.0474 100.347 38.616 100.344 39.6926C100.341 40.2262 100.339 40.6371 100.338 40.9177C100.336 41.0543 100.336 41.1586 100.335 41.2316C100.334 41.3017 100.332 41.3358 100.332 41.3358Z" fill="#E1E1E1"/>
<path d="M102.849 15.7064C102.861 15.7156 102.726 15.9118 102.496 16.2201C102.266 16.5281 101.939 16.9471 101.566 17.4C101.192 17.8532 100.844 18.2546 100.585 18.5396C100.327 18.8247 100.16 18.9946 100.149 18.985C100.138 18.9749 100.285 18.7874 100.528 18.4898C100.793 18.1673 101.121 17.7706 101.482 17.3315C101.844 16.8924 102.171 16.4955 102.436 16.1727C102.682 15.8772 102.837 15.697 102.849 15.7064Z" fill="#E1E1E1"/>
<path d="M100.404 41.2633C101.145 42.4401 102.018 43.5331 103.004 44.5142L100.404 41.2633Z" fill="white"/>
<path d="M103.005 44.5142C102.995 44.524 102.818 44.3704 102.551 44.1019C102.285 43.8336 101.932 43.4469 101.571 42.996C101.21 42.5447 100.911 42.1152 100.708 41.7962C100.504 41.4772 100.394 41.2707 100.405 41.2633C100.419 41.2551 100.552 41.4466 100.771 41.7533C100.99 42.0603 101.297 42.4799 101.655 42.9286C102.014 43.3771 102.356 43.7691 102.607 44.0497C102.858 44.3305 103.016 44.503 103.005 44.5142Z" fill="#E1E1E1"/>
<path d="M82.9629 44.4268C83.8288 43.3586 84.6947 42.2902 85.5604 41.2221L82.9629 44.4268Z" fill="white"/>
<path d="M85.5591 41.2217C85.5823 41.2405 85.0196 41.9731 84.3023 42.858C83.5849 43.7431 82.9848 44.4451 82.9616 44.4264C82.9386 44.4076 83.5012 43.6752 84.2186 42.7899C84.9358 41.9052 85.5359 41.203 85.5591 41.2217Z" fill="#E1E1E1"/>
<path d="M82.9656 15.7065C82.9888 15.688 83.5536 16.3628 84.2262 17.2135C84.8994 18.0647 85.4258 18.7694 85.4026 18.7877C85.3794 18.8062 84.8148 18.1316 84.1418 17.2805C83.469 16.4298 82.9424 15.725 82.9656 15.7065Z" fill="#E1E1E1"/>
<path d="M95.6854 37.5591H90.6953V23.391H95.6854V37.5591Z" fill="#E1E1E1"/>
<path d="M27.3884 24.8631L25.8022 24.8716L25.7598 16.978L27.3462 16.9695L27.3884 24.8631Z" fill="#E1E1E1"/>
<path d="M16.1491 21.3485L12.041 21.3706L12.0176 17.0127L16.1259 16.9906L16.1491 21.3485Z" fill="#ECECEC"/>
<path d="M20.237 21.3265L16.1289 21.3486L16.1055 16.9908L20.2138 16.9687L20.237 21.3265Z" fill="#F5F5F5"/>
<path d="M12.0246 18.2164C14.7546 18.2389 17.4916 18.2231 20.2213 18.1789C20.2775 18.178 20.2771 18.0918 20.2208 18.0914C17.4907 18.0764 14.754 18.0898 12.0243 18.1416C11.9761 18.1425 11.9763 18.2161 12.0246 18.2164Z" fill="#E1E1E1"/>
<path d="M16.9379 24.8272L9.47405 24.8672L9.45508 21.3161L16.9189 21.2759L16.9379 24.8272Z" fill="#ECECEC"/>
<path d="M24.3676 24.7872L16.9037 24.8271L16.8848 21.276L24.3486 21.2359L24.3676 24.7872Z" fill="#F5F5F5"/>
<path d="M9.46208 22.3038C14.4204 22.3598 19.3962 22.3096 24.3543 22.2301C24.4103 22.2293 24.4101 22.1431 24.3539 22.1429C19.3953 22.1167 14.4191 22.1197 9.46164 22.229C9.41364 22.2299 9.41387 22.3034 9.46208 22.3038Z" fill="#E1E1E1"/>
<path d="M35.5869 26.1392H6.66992V24.8668H35.5869V26.1392Z" fill="#E1E1E1"/>
<path d="M12.5783 29.8203H11.4043V25.479H12.5783V29.8203Z" fill="#E1E1E1"/>
<path d="M30.1017 29.8203H28.9277V25.479H30.1017V29.8203Z" fill="#E1E1E1"/>
<path d="M28.9551 24.8836L27.3688 24.8921L27.3105 14.0356L28.897 14.0271L28.9551 24.8836Z" fill="#ECECEC"/>
<path d="M31.4221 24.8457L28.9573 24.8589L28.9102 16.0608L31.375 16.0476L31.4221 24.8457Z" fill="#F5F5F5"/>
<path d="M31.3577 17.7425C31.3577 17.7662 30.8059 17.7852 30.1252 17.7852C29.4444 17.7852 28.8926 17.7662 28.8926 17.7425C28.8926 17.7191 29.4444 17.6999 30.1252 17.6999C30.8059 17.6999 31.3577 17.7191 31.3577 17.7425Z" fill="#E1E1E1"/>
<path d="M31.3577 17.3724C31.3577 17.3961 30.8059 17.415 30.1252 17.415C29.4444 17.415 28.8926 17.3961 28.8926 17.3724C28.8926 17.349 29.4444 17.3298 30.1252 17.3298C30.8059 17.3298 31.3577 17.349 31.3577 17.3724Z" fill="#E1E1E1"/>
<path d="M31.3577 23.5223C31.3577 23.5457 30.8059 23.5649 30.1252 23.5649C29.4444 23.5649 28.8926 23.5457 28.8926 23.5223C28.8926 23.4986 29.4444 23.4797 30.1252 23.4797C30.8059 23.4797 31.3577 23.4986 31.3577 23.5223Z" fill="#E1E1E1"/>
<path d="M31.3577 23.1522C31.3577 23.1756 30.8059 23.1948 30.1252 23.1948C29.4444 23.1948 28.8926 23.1756 28.8926 23.1522C28.8926 23.1285 29.4444 23.1096 30.1252 23.1096C30.8059 23.1096 31.3577 23.1285 31.3577 23.1522Z" fill="#E1E1E1"/>
<path d="M30.1637 22.3457C30.1403 22.3457 30.1211 21.4581 30.1211 20.3634C30.1211 19.2683 30.1403 18.3809 30.1637 18.3809C30.1874 18.3809 30.2064 19.2683 30.2064 20.3634C30.2064 21.4581 30.1874 22.3457 30.1637 22.3457Z" fill="#E1E1E1"/>
<path d="M34.068 24.8491H31.3848V18.2083H34.068V24.8491Z" fill="#ECECEC"/>
<path d="M28.533 15.8796C28.533 16.1314 28.3287 16.3354 28.0771 16.3354C27.8251 16.3354 27.6211 16.1314 27.6211 15.8796C27.6211 15.6278 27.8251 15.4238 28.0771 15.4238C28.3287 15.4238 28.533 15.6278 28.533 15.8796Z" fill="#E1E1E1"/>
<path d="M28.2194 23.5923H27.9375V17.1338H28.2194V23.5923Z" fill="#E1E1E1"/>
</g>
<mask id="mask1_180_460" style="mask-type:luminance" maskUnits="userSpaceOnUse" x="0" y="0" width="113" height="112">
<path d="M0.693359 9.91821e-05H112.308V111.614H0.693359V9.91821e-05Z" fill="white"/>
</mask>
<g mask="url(#mask1_180_460)">
<path d="M90.4186 42.7934C86.6007 39.3412 80.9262 38.9097 75.815 39.5198C70.7042 40.1303 66.8126 41.9045 61.6764 41.5657C57.9529 41.3201 53.8127 39.512 51.1056 36.4238C49.6975 34.8175 48.8349 32.81 48.5104 30.6985C47.7092 25.4872 46.4042 22.0955 42.2702 19.3529C37.7092 16.3268 31.6276 16.0549 26.5233 18.0311C21.4191 20.0074 17.2698 24.0322 14.4781 28.7403C8.99025 37.9958 8.66277 49.9124 12.8927 59.8061C17.1227 69.7002 25.6163 77.5155 35.5261 81.7081C45.4358 85.9008 56.649 86.6008 67.2082 84.5306C74.8261 83.0375 82.4328 79.9513 87.5961 74.1548C91.449 69.8293 93.7034 64.2242 94.5394 58.4924C95.353 52.9139 94.6001 46.5742 90.4186 42.7934Z" fill="#F5F5F5"/>
</g>
<mask id="mask2_180_460" style="mask-type:luminance" maskUnits="userSpaceOnUse" x="0" y="0" width="113" height="112">
<path d="M0.693359 9.91821e-05H112.308V111.614H0.693359V9.91821e-05Z" fill="white"/>
</mask>
<g mask="url(#mask2_180_460)">
<path d="M104.274 106.885C104.274 106.917 82.8848 106.943 56.5057 106.943C30.1172 106.943 8.73242 106.917 8.73242 106.885C8.73242 106.853 30.1172 106.827 56.5057 106.827C82.8848 106.827 104.274 106.853 104.274 106.885Z" fill="#1A2E35"/>
</g>
<path d="M19.5078 55.4932H84.29V53.4187H19.5078V55.4932Z" fill="#E1E1E1"/>
<path d="M25.3901 106.99L23.2871 106.983V55.2184H25.3901V106.99Z" fill="#E1E1E1"/>
<path d="M81.2106 106.986H79.0859L79.1074 55.2195H81.2106V106.986Z" fill="#E1E1E1"/>
<mask id="mask3_180_460" style="mask-type:luminance" maskUnits="userSpaceOnUse" x="0" y="0" width="113" height="112">
<path d="M0.693359 9.91821e-05H112.308V111.614H0.693359V9.91821e-05Z" fill="white"/>
</mask>
<g mask="url(#mask3_180_460)">
<path d="M44.6074 34.3458C44.6074 34.3458 56.1715 46.4604 55.9675 49.1489C55.7633 51.8375 53.1758 52.4206 52.3307 52.3163C51.4855 52.2121 45.1289 45.1315 45.1289 45.1315L44.6074 34.3458Z" fill="#0000FF"/>
<path d="M50.7695 94.1964L53.9041 104.688L57.4282 102.774L55.4261 93.1694L50.7695 94.1964Z" fill="#FFBF9D"/>
<path d="M56.9964 98.1574L58.0761 103.123C58.0761 103.123 63.4856 103.693 63.7745 104.591L54.2223 107.03L52.2227 99.3626L56.9964 98.1574Z" fill="#333333"/>
<path d="M55.017 103.463C54.8451 103.561 54.7705 103.802 54.8609 103.977C54.9516 104.153 55.1953 104.231 55.3692 104.137C55.5427 104.042 55.6411 103.756 55.5315 103.591C55.4217 103.427 55.1304 103.351 54.9846 103.485" fill="#E1E1E1"/>
<mask id="mask4_180_460" style="mask-type:luminance" maskUnits="userSpaceOnUse" x="54" y="104" width="10" height="4">
<path d="M54.0469 104.202H63.7705V107.029H54.0469V104.202Z" fill="white"/>
</mask>
<g mask="url(#mask4_180_460)">
<g opacity="0.399994">
<path d="M54.2183 107.029L54.0469 106.248L63.2696 104.202C63.2696 104.202 63.7424 104.278 63.7705 104.59L54.2183 107.029Z" fill="black"/>
</g>
</g>
<path d="M58.2161 103.035C58.2266 103.082 57.9987 103.163 57.8076 103.371C57.6108 103.575 57.544 103.807 57.4965 103.8C57.4511 103.802 57.4494 103.505 57.6855 103.257C57.9193 103.006 58.2153 102.99 58.2161 103.035Z" fill="#CCCCCC"/>
<path d="M59.3265 103.193C59.3488 103.236 59.1669 103.366 59.0588 103.604C58.9436 103.839 58.9584 104.063 58.9113 104.072C58.8693 104.091 58.7673 103.826 58.9072 103.533C59.0445 103.239 59.314 103.149 59.3265 103.193Z" fill="#CCCCCC"/>
<path d="M60.1994 104.248C60.1596 104.269 60.0353 104.052 60.0898 103.766C60.1422 103.479 60.3364 103.322 60.3661 103.356C60.4023 103.388 60.2958 103.561 60.2545 103.797C60.2078 104.031 60.2447 104.231 60.1994 104.248Z" fill="#CCCCCC"/>
<path d="M57.8464 101.93C57.8377 101.978 57.6073 101.968 57.3481 102.053C57.0874 102.133 56.9046 102.274 56.8702 102.24C56.8347 102.214 56.9907 101.99 57.2975 101.894C57.6031 101.795 57.86 101.888 57.8464 101.93Z" fill="#CCCCCC"/>
<path d="M57.6095 100.933C57.6149 100.952 57.4378 101.028 57.1305 101.053C56.9773 101.065 56.7923 101.061 56.5907 101.027C56.4898 101.01 56.3851 100.985 56.2788 100.951C56.2275 100.934 56.1679 100.919 56.1056 100.876C56.0415 100.84 55.9804 100.724 56.0208 100.633C56.0509 100.547 56.1293 100.493 56.198 100.474C56.2677 100.454 56.3284 100.454 56.3835 100.453C56.4967 100.452 56.6052 100.462 56.7072 100.479C56.9108 100.516 57.0858 100.583 57.2222 100.656C57.4961 100.805 57.6162 100.96 57.6028 100.973C57.5856 100.994 57.4403 100.875 57.1715 100.763C57.0376 100.708 56.8715 100.657 56.6835 100.632C56.5893 100.62 56.49 100.614 56.3873 100.617C56.2793 100.617 56.1931 100.638 56.1786 100.689C56.1735 100.709 56.1739 100.716 56.2027 100.74C56.2317 100.762 56.2795 100.778 56.33 100.795C56.4284 100.829 56.5257 100.855 56.6195 100.875C56.8072 100.915 56.9811 100.931 57.1273 100.934C57.4204 100.941 57.6039 100.908 57.6095 100.933Z" fill="#CCCCCC"/>
<path d="M57.5698 101.015C57.5553 101.027 57.42 100.883 57.3256 100.586C57.2794 100.438 57.2488 100.252 57.2573 100.045C57.2622 99.9417 57.2769 99.8335 57.3048 99.7236C57.3367 99.6152 57.3727 99.4712 57.5484 99.4042C57.6419 99.3765 57.7394 99.4301 57.7823 99.4866C57.8303 99.543 57.8508 99.5971 57.8761 99.6495C57.9223 99.7565 57.9479 99.8665 57.9587 99.9714C57.9808 100.183 57.9406 100.373 57.8807 100.518C57.7571 100.813 57.5767 100.919 57.5687 100.904C57.5472 100.884 57.6868 100.753 57.7689 100.478C57.8093 100.343 57.8325 100.173 57.8055 99.9902C57.7924 99.8993 57.7669 99.806 57.7261 99.7161C57.6854 99.6183 57.6263 99.5462 57.591 99.5663C57.5432 99.5776 57.4818 99.6748 57.4635 99.7656C57.4363 99.8638 57.4198 99.9614 57.4113 100.055C57.3957 100.243 57.4115 100.415 57.4405 100.556C57.499 100.84 57.5932 101.002 57.5698 101.015Z" fill="#CCCCCC"/>
<path d="M42.2578 64.2821C42.3739 64.7464 50.563 98.1572 50.563 98.1572L57.9994 95.9122L50.9787 62.0706L42.2578 64.2821Z" fill="black"/>
<path d="M41.163 21.5966L39.8633 31.5791C39.6423 33.2768 40.8868 34.8137 42.5932 34.9507C44.1857 35.0784 45.5983 33.9322 45.803 32.3477C45.9001 31.5961 45.9825 30.9695 45.9976 30.8931C45.9976 30.8931 48.5699 30.9849 49.0809 28.4934C49.3278 27.2895 49.6345 24.7684 49.8854 22.4843C50.1551 20.0315 48.4927 17.7834 46.0693 17.3177L45.8282 17.2713C43.201 16.9235 41.4378 18.9607 41.163 21.5966Z" fill="#FFBF9D"/>
<path d="M46.0056 30.8573C46.0056 30.8573 44.4026 30.6823 42.9277 29.3061C42.9277 29.3061 43.3519 31.2513 45.8871 31.5054L46.0056 30.8573Z" fill="#FF9A6C"/>
<path d="M49.1681 23.8953C49.1387 24.0848 48.9536 24.216 48.7549 24.1888C48.5569 24.1616 48.4197 23.9863 48.4493 23.7968C48.4788 23.6071 48.6636 23.4756 48.8619 23.5026C49.0605 23.5298 49.1976 23.7055 49.1681 23.8953Z" fill="#1A2E35"/>
<path d="M49.1932 23.4654C49.1401 23.5033 48.9083 23.2515 48.5242 23.1787C48.142 23.1004 47.8221 23.2437 47.7897 23.1888C47.7732 23.164 47.8344 23.0888 47.9741 23.0232C48.1119 22.9573 48.3344 22.9104 48.5733 22.9575C48.8121 23.0048 48.9963 23.1314 49.0945 23.2437C49.1952 23.3569 49.2191 23.4486 49.1932 23.4654Z" fill="#1A2E35"/>
<path d="M45.3088 23.3474C45.2793 23.5369 45.0942 23.6682 44.8958 23.641C44.6976 23.6139 44.5603 23.4385 44.59 23.2487C44.6194 23.0592 44.8045 22.9277 45.0027 22.9548C45.2014 22.982 45.3382 23.1577 45.3088 23.3474Z" fill="#1A2E35"/>
<path d="M45.3555 22.8628C45.3023 22.9008 45.0702 22.649 44.6864 22.5762C44.3041 22.4981 43.9844 22.6414 43.9518 22.5862C43.9355 22.5615 43.9962 22.4862 44.1364 22.4206C44.2741 22.355 44.4967 22.3081 44.7356 22.355C44.9742 22.4023 45.1586 22.5289 45.2568 22.6412C45.357 22.7543 45.3811 22.8461 45.3555 22.8628Z" fill="#1A2E35"/>
<path d="M46.1719 26.0673C46.1744 26.045 46.4208 26.0497 46.8168 26.0747C46.9168 26.0834 47.0132 26.0818 47.0425 26.018C47.0793 25.9517 47.0586 25.8383 47.0331 25.7151C46.9865 25.4601 46.9378 25.1929 46.8867 24.9132C46.6884 23.7734 46.5652 22.8437 46.611 22.8361C46.657 22.8285 46.8552 23.7462 47.0532 24.886C47.0996 25.1666 47.1443 25.4342 47.1865 25.6901C47.2021 25.8086 47.2416 25.9472 47.1633 26.0845C47.1228 26.1526 47.0409 26.1919 46.9748 26.1968C46.9081 26.2037 46.853 26.1943 46.8039 26.1879C46.4108 26.1341 46.1692 26.0894 46.1719 26.0673Z" fill="#1A2E35"/>
<path d="M45.617 22.0816C45.5589 22.1787 45.1852 22.0554 44.7247 22.0233C44.2647 21.9816 43.8762 22.0436 43.8345 21.9387C43.8164 21.8887 43.8986 21.8027 44.0649 21.73C44.2298 21.657 44.4803 21.6059 44.7564 21.6277C45.0323 21.6501 45.2716 21.7407 45.4228 21.8389C45.5752 21.9371 45.6426 22.0351 45.617 22.0816Z" fill="#1A2E35"/>
<path d="M49.3687 22.0693C49.2845 22.1436 49.0376 22.0021 48.7204 21.9369C48.4057 21.8604 48.1222 21.8827 48.0775 21.7795C48.059 21.73 48.1182 21.6507 48.2517 21.5909C48.3834 21.5309 48.5901 21.5012 48.8073 21.5496C49.0245 21.5985 49.1986 21.7139 49.2919 21.8244C49.387 21.9356 49.4066 22.0325 49.3687 22.0693Z" fill="#1A2E35"/>
<path d="M41.0086 23.4851C40.9695 23.4586 39.3902 22.6478 39.1165 24.3655C38.8428 26.0833 40.6239 26.0038 40.6347 25.9549C40.6456 25.9063 41.0086 23.4851 41.0086 23.4851Z" fill="#FFBF9D"/>
<path d="M40.2166 25.2206C40.2099 25.2139 40.1834 25.2367 40.1291 25.2519C40.0762 25.2666 39.9889 25.2686 39.9048 25.2209C39.7338 25.1253 39.6268 24.8128 39.6679 24.5021C39.6885 24.3449 39.7449 24.2014 39.8199 24.0869C39.8925 23.9697 39.9878 23.8947 40.0818 23.8931C40.176 23.8864 40.2318 23.9514 40.2452 24.0031C40.2606 24.0549 40.2443 24.0875 40.2528 24.0918C40.257 24.0969 40.2943 24.069 40.2916 23.9958C40.2901 23.9605 40.2764 23.9168 40.2414 23.8772C40.2055 23.8373 40.1474 23.8105 40.0827 23.8072C39.949 23.7953 39.8103 23.8982 39.7277 24.0239C39.638 24.1489 39.5708 24.3096 39.5478 24.486C39.5036 24.834 39.6293 25.186 39.8661 25.2974C39.9818 25.3481 40.0885 25.3278 40.147 25.2956C40.207 25.2617 40.2222 25.2247 40.2166 25.2206Z" fill="#FF9A6C"/>
<path d="M40.0727 23.2445C40.3453 23.2316 40.7496 23.5584 40.8136 23.8236C40.8777 24.0888 40.8491 24.3698 40.913 24.635C40.9766 24.9002 41.1844 25.169 41.4572 25.1574C41.6449 25.1493 41.8061 25.0056 41.8878 24.8361C41.9695 24.6669 41.9867 24.4743 41.9988 24.2865C42.0514 23.47 42.0358 22.6469 42.1581 21.8377C42.2805 21.0287 42.5553 20.2164 43.1084 19.6133C43.6616 19.0103 44.5326 18.656 45.3213 18.8746C45.8439 19.0195 46.2772 19.3896 46.7901 19.5648C47.3982 19.7726 48.1014 19.6789 48.6342 19.3195C48.6523 19.3074 48.6865 19.2898 48.7273 19.2704C48.9162 19.1802 49.0325 18.9753 48.9941 18.7694C48.9809 18.6994 48.9595 18.6337 48.9246 18.5866C48.0648 17.4185 46.2323 16.7861 44.784 16.8682C43.3359 16.9504 41.8537 17.6767 41.0103 18.857C40.167 20.0372 39.9973 21.8717 40.0727 23.2445Z" fill="#1A2E35"/>
<path d="M46.9439 27.2307C46.9329 27.2608 46.689 27.1985 46.3994 27.0918C46.1097 26.9851 45.8838 26.8742 45.8949 26.8443C45.9061 26.8139 46.1499 26.8762 46.4396 26.9829C46.7291 27.0896 46.955 27.2006 46.9439 27.2307Z" fill="#1A2E35"/>
<path d="M48.8103 29.1567C48.8217 29.1596 48.7773 29.3561 48.5978 29.6211C48.4224 29.8862 48.096 30.2001 47.6654 30.4256C47.2348 30.651 46.808 30.7597 46.5017 30.8229C46.1939 30.885 46.001 30.9035 45.9981 30.8888C45.9947 30.872 46.1827 30.8247 46.4825 30.743C46.7814 30.66 47.1953 30.5405 47.6109 30.3229C48.0263 30.1052 48.3456 29.8157 48.5315 29.5726C48.7206 29.3304 48.7918 29.1487 48.8103 29.1567Z" fill="#FF9A6C"/>
<path d="M47.6013 30.4317C46.9968 30.7342 46.5514 31.5566 46.1673 32.0894C46.0498 32.2524 45.9288 32.4232 45.896 32.6214C45.8612 32.8317 45.93 33.0442 46.0041 33.244C46.1144 33.5415 46.2387 33.8333 46.363 34.1253C46.3983 34.2081 46.4454 34.3014 46.5333 34.3215C46.645 34.3469 46.7405 34.2369 46.7863 34.132C46.8999 33.8708 46.889 33.575 46.9276 33.2926C46.9666 33.0105 47.0832 32.7055 47.3423 32.5872" fill="#FF9A6C"/>
<path d="M48.5561 32.6605L47.9676 32.2212C47.8935 32.1607 47.7846 32.1701 47.7219 32.2422L47.4093 32.6034C47.4087 32.6043 47.4084 32.6054 47.4091 32.6065L47.5734 33.52C47.7656 34.6915 46.8975 34.5086 46.8975 34.5086L46.8285 34.2845L46.4468 32.8559C46.37 32.1741 46.4242 32.0933 46.7559 31.5995L47.4839 30.5591C47.635 30.3341 47.9194 30.2419 48.1737 30.3356C49.2179 30.7211 51.4712 31.4196 51.725 32.3045C52.1875 33.9173 52.5603 38.0307 52.5668 38.104L52.567 38.1055L49.3871 38.3908L49.4021 35.646C49.4021 35.646 48.9405 35.3772 48.8045 34.8928C48.6683 34.4084 48.5561 32.6605 48.5561 32.6605Z" fill="#FFBF9D"/>
<path d="M50.7619 33.1987C50.7668 33.204 50.728 33.2538 50.6409 33.3275C50.5534 33.3985 50.4146 33.5003 50.2079 33.5469C50.1047 33.569 49.986 33.5737 49.863 33.5445C49.7413 33.5159 49.6119 33.4462 49.5217 33.3331C49.3353 33.108 49.3087 32.7913 49.1426 32.5611C49.0583 32.4562 48.9312 32.3692 48.8149 32.2926C48.6964 32.2158 48.5761 32.1491 48.4591 32.0937C48.3453 32.0437 48.2187 31.9814 48.133 32.0015C48.035 32.0252 47.9468 32.0924 47.8736 32.1551C47.5852 32.4221 47.4273 32.6216 47.4108 32.6051C47.4048 32.5997 47.4394 32.5482 47.5066 32.458C47.5747 32.3687 47.6711 32.2374 47.8184 32.0941C47.8932 32.0247 47.9801 31.9455 48.1115 31.9075C48.1455 31.8997 48.1814 31.8968 48.2196 31.9015C48.2533 31.9073 48.2857 31.9149 48.3169 31.9247C48.3801 31.9441 48.4417 31.9685 48.5035 31.9961C48.6272 32.0515 48.752 32.118 48.8763 32.1966C48.9998 32.2779 49.127 32.3582 49.2362 32.4919C49.4255 32.7654 49.4464 33.0743 49.6049 33.2654C49.7554 33.4612 50.0099 33.4971 50.1925 33.4663C50.3816 33.4342 50.5215 33.3491 50.6139 33.2909C50.7068 33.2306 50.7561 33.1922 50.7619 33.1987Z" fill="#FF9A6C"/>
<path d="M50.4065 34.1661C50.4016 34.1967 49.9936 34.1525 49.5094 34.0121C49.0248 33.8728 48.6562 33.6928 48.6683 33.6643C48.6808 33.6335 49.0638 33.7632 49.5417 33.9004C50.019 34.0388 50.4123 34.1335 50.4065 34.1661Z" fill="#FF9A6C"/>
<path d="M49.2765 32.6739C48.4427 32.6757 48.3454 32.6355 47.4005 32.6871C47.2598 32.6947 47.1165 32.7029 46.9853 32.7541C46.854 32.8052 46.7346 32.9072 46.6998 33.0436C46.6339 33.3021 46.8949 33.538 47.1552 33.597C47.4152 33.6559 47.6907 33.6101 47.9503 33.6704C48.3465 33.7624 48.7624 33.9517 48.9968 34.2843C49.5403 35.0562 50.1116 34.685 50.483 34.9604L51.457 34.3452L51.113 32.907L49.2765 32.6739Z" fill="#FFBF9D"/>
<path d="M50.5667 34.9607C50.5598 34.9721 50.4803 34.9004 50.3002 34.8783C50.1267 34.8442 49.8452 34.8877 49.5289 34.7428C49.374 34.6703 49.2269 34.5473 49.1032 34.3928C48.9865 34.2327 48.8581 34.0926 48.674 33.9827C48.4954 33.8725 48.2855 33.791 48.0614 33.7363C47.8431 33.6753 47.6009 33.7053 47.3415 33.674C47.0819 33.6474 46.8142 33.4956 46.7314 33.2307C46.6917 33.0976 46.7363 32.949 46.8241 32.8561C46.9093 32.7603 47.0247 32.7041 47.1361 32.6766C47.3629 32.626 47.5667 32.6378 47.7601 32.6257C47.9534 32.6195 48.134 32.617 48.2985 32.6199C48.628 32.6264 48.8923 32.6431 49.0755 32.6505C49.2588 32.6592 49.3602 32.6659 49.3602 32.6742C49.3602 32.682 49.2588 32.6905 49.0751 32.6958C48.8916 32.7023 48.6251 32.6983 48.2985 32.7021C48.1351 32.7045 47.9563 32.7117 47.7643 32.7219C47.5739 32.7373 47.3605 32.7322 47.1634 32.7802C46.9721 32.8219 46.7792 32.999 46.8413 33.2005C46.9015 33.3963 47.1254 33.5383 47.3565 33.5588C47.5933 33.5887 47.8482 33.5586 48.0889 33.6258C48.3224 33.6845 48.5416 33.7716 48.7307 33.8919C48.9215 34.0062 49.0731 34.179 49.1789 34.333C49.2927 34.4816 49.4249 34.5977 49.5653 34.6689C49.8488 34.8125 50.1278 34.7861 50.3084 34.8339C50.4004 34.8531 50.468 34.8852 50.5096 34.9116C50.5497 34.9411 50.5692 34.9576 50.5667 34.9607Z" fill="#FF9A6C"/>
<path d="M49.1818 32.0222C49.1829 32.0081 49.2429 31.9961 49.3289 32.0358C49.4124 32.0731 49.5186 32.1738 49.5414 32.3253C49.5617 32.4771 49.4878 32.6035 49.4182 32.6626C49.3467 32.7247 49.2858 32.73 49.2807 32.7166C49.2731 32.7012 49.3148 32.67 49.3572 32.6077C49.3996 32.547 49.4409 32.4472 49.4262 32.3416C49.4108 32.2363 49.3434 32.1521 49.2856 32.1057C49.2277 32.0575 49.1789 32.0394 49.1818 32.0222Z" fill="#FF9A6C"/>
<path d="M51.0495 69.4413L46.9785 79.6055L50.9281 80.2993L55.3346 71.5336L51.0495 69.4413Z" fill="#FFBF9D"/>
<path d="M53.4628 76.4157L51.2198 80.9752C51.2198 80.9752 55.1006 84.7863 54.7683 85.6694L45.7715 81.6377L48.9753 74.3899L53.4628 76.4157Z" fill="#333333"/>
<path d="M48.6104 79.3387C48.4151 79.3081 48.2068 79.45 48.1684 79.644C48.13 79.838 48.2724 80.0508 48.4673 80.0849C48.6622 80.1186 48.9173 79.9561 48.9336 79.759C48.9501 79.5617 48.7691 79.321 48.572 79.3349" fill="#CCCCCC"/>
<mask id="mask5_180_460" style="mask-type:luminance" maskUnits="userSpaceOnUse" x="45" y="80" width="10" height="6">
<path d="M45.7656 80.905H54.8126V85.6685H45.7656V80.905Z" fill="white"/>
</mask>
<g mask="url(#mask5_180_460)">
<g opacity="0.399994">
<path d="M45.7656 81.6365L46.0891 80.905L54.6115 85.0528C54.6115 85.0528 54.9341 85.4066 54.7624 85.6685L45.7656 81.6365Z" fill="black"/>
</g>
</g>
<path d="M51.3836 80.995C51.3624 81.0381 51.1338 80.9598 50.8544 81.0042C50.5738 81.0412 50.3771 81.1816 50.3445 81.1462C50.3077 81.1194 50.4909 80.8861 50.8302 80.8383C51.1691 80.7874 51.4113 80.9589 51.3836 80.995Z" fill="#CCCCCC"/>
<path d="M52.1523 81.8079C52.1432 81.855 51.9195 81.8445 51.6871 81.9632C51.4512 82.0753 51.3235 82.2595 51.2806 82.238C51.2362 82.2264 51.321 81.9554 51.6128 81.813C51.9034 81.6681 52.1702 81.7657 52.1523 81.8079Z" fill="#CCCCCC"/>
<path d="M52.1824 83.1768C52.1382 83.1684 52.1754 82.9215 52.3962 82.7315C52.6154 82.5397 52.865 82.538 52.8672 82.5828C52.8759 82.6299 52.6846 82.6991 52.5058 82.8581C52.3234 83.0125 52.2279 83.192 52.1824 83.1768Z" fill="#CCCCCC"/>
<path d="M51.7798 79.8985C51.7434 79.9304 51.5691 79.7795 51.3133 79.6848C51.0592 79.5853 50.8286 79.5822 50.8226 79.5342C50.8114 79.4911 51.0728 79.413 51.3729 79.5284C51.6733 79.6415 51.8169 79.8737 51.7798 79.8985Z" fill="#CCCCCC"/>
<path d="M52.2193 78.9701C52.2117 78.9887 52.026 78.9378 51.7697 78.7659C51.6425 78.6802 51.5 78.5621 51.3632 78.4098C51.2951 78.3337 51.2284 78.2493 51.1661 78.1565C51.1366 78.1114 51.0993 78.0627 51.0775 77.9897C51.0493 77.9221 51.0739 77.7933 51.1621 77.7471C51.2391 77.6986 51.334 77.7051 51.3996 77.7328C51.4668 77.7603 51.5146 77.7978 51.5581 77.8317C51.6474 77.9011 51.7264 77.9763 51.7951 78.0536C51.932 78.2087 52.0273 78.3701 52.0885 78.5123C52.2106 78.7992 52.2081 78.9952 52.1894 78.9969C52.163 79.0027 52.1231 78.8195 51.9822 78.565C51.9119 78.438 51.8132 78.2953 51.6817 78.1583C51.6157 78.0904 51.5413 78.0239 51.4587 77.9625C51.3748 77.8951 51.294 77.858 51.2505 77.8893C51.2344 77.9016 51.2304 77.9074 51.238 77.9442C51.2469 77.9792 51.2744 78.0217 51.3032 78.0663C51.3594 78.154 51.4195 78.2351 51.4802 78.3092C51.6023 78.4574 51.7286 78.5777 51.8409 78.6712C52.0664 78.8588 52.2307 78.9469 52.2193 78.9701Z" fill="#CCCCCC"/>
<path d="M52.1306 79.0077C52.112 79.0075 52.0955 78.8109 52.2069 78.5193C52.2625 78.3747 52.3538 78.2104 52.4893 78.0534C52.5574 77.9755 52.6366 77.8999 52.7266 77.8311C52.8192 77.7662 52.9369 77.6757 53.1161 77.7327C53.2065 77.7693 53.2494 77.8717 53.2478 77.9427C53.2505 78.0168 53.2329 78.0718 53.2201 78.1287C53.1895 78.241 53.1413 78.3432 53.0844 78.4323C52.9703 78.6111 52.8206 78.735 52.6835 78.8113C52.4031 78.9658 52.1962 78.9361 52.1993 78.9194C52.1946 78.891 52.3857 78.8747 52.6205 78.7109C52.7364 78.6303 52.8607 78.5108 52.9529 78.3515C52.9991 78.272 53.0373 78.1831 53.0612 78.0874C53.09 77.9854 53.0886 77.8923 53.0485 77.886C53.0043 77.8653 52.8958 77.9032 52.8248 77.9628C52.7424 78.0229 52.6688 78.0889 52.6038 78.157C52.4745 78.2945 52.3801 78.439 52.3149 78.5675C52.1843 78.8263 52.1576 79.0118 52.1306 79.0077Z" fill="#CCCCCC"/>
<path d="M43.2579 57.2519L55.795 51.1131C58.0012 50.0329 60.6552 50.5294 62.3211 52.3346C63.873 54.0155 64.2358 56.476 63.235 58.5332L54.9169 75.6372L47.9593 73.444L54.0777 60.4063L47.1947 65.6518C45.3357 67.0686 43.0677 67.845 40.7307 67.8651L38.9281 67.8805C35.9085 67.7546 33.1729 66.0632 31.7109 63.4177L43.2579 57.2519Z" fill="black"/>
<path d="M54.9162 75.6377C54.9162 75.6377 54.872 75.6288 54.7885 75.6051C54.6997 75.5785 54.5771 75.5424 54.4197 75.4957C54.0909 75.3953 53.6181 75.2508 53.0156 75.0665C51.7977 74.6876 50.0578 74.1465 47.9445 73.4891L47.8932 73.4733L47.916 73.4244C49.1448 70.7988 50.6751 67.5287 52.3308 63.9908C52.9158 62.7454 53.4853 61.533 54.0257 60.3827L54.111 60.4521C50.9539 62.8041 48.1287 64.7575 46.0435 66.0438C45.0004 66.6849 44.1398 67.1561 43.5206 67.4224C43.211 67.5546 42.963 67.6374 42.7895 67.6713C42.7047 67.6963 42.6353 67.691 42.5913 67.6975C42.5462 67.7004 42.5234 67.701 42.5234 67.6995C42.523 67.6917 42.6159 67.6923 42.7851 67.6517C42.9552 67.6117 43.1992 67.5236 43.5048 67.3865C44.1159 67.1104 44.9687 66.6304 46.0054 65.982C48.0762 64.6808 50.892 62.7161 54.0429 60.3615L54.2242 60.226L54.1282 60.4307C53.5886 61.5817 53.0201 62.7943 52.4361 64.0403C50.7728 67.5745 49.2352 70.8414 48.001 73.4643L47.9727 73.3996C50.0811 74.0731 51.8167 74.6276 53.0317 75.0156C53.6308 75.2102 54.1012 75.3631 54.428 75.4692C54.5838 75.5214 54.705 75.5618 54.7927 75.5915C54.8749 75.6198 54.9162 75.6377 54.9162 75.6377Z" fill="#375A64"/>
<path d="M56.4336 57.5753C56.4564 57.6078 55.6666 58.001 54.9904 58.8189C54.3036 59.6285 54.0555 60.475 54.0196 60.4583C54.0071 60.4547 54.0511 60.2406 54.1855 59.9151C54.3187 59.5899 54.5554 59.1584 54.9011 58.7441C55.248 58.3313 55.6313 58.0226 55.928 57.8342C56.2249 57.6447 56.428 57.5636 56.4336 57.5753Z" fill="#375A64"/>
<path d="M29.8575 81.7769H47.8906C48.1412 81.7769 48.3464 81.9765 48.3533 82.2269C48.3607 82.4877 48.1513 82.7026 47.8906 82.7026H29.8575C29.6017 82.7026 29.3945 82.4957 29.3945 82.2399C29.3945 81.9843 29.6017 81.7769 29.8575 81.7769Z" fill="#E1E1E1"/>
<path d="M45.5199 70.2964H31.4141C31.4141 68.7869 32.6376 67.5634 34.147 67.5634H42.7869C44.2963 67.5634 45.5199 68.7869 45.5199 70.2964Z" fill="#4D4D4D"/>
<path d="M45.9614 71.126H31.0801V70.2969H45.9614V71.126Z" fill="#E1E1E1"/>
<path d="M32.4042 71.1257L28.7656 106.99H29.6215L34.0622 71.1257H32.4042Z" fill="#E1E1E1"/>
<path d="M44.5253 71.1257L48.1621 106.973L47.3065 106.977L42.8691 71.1393L44.5253 71.1257Z" fill="#E1E1E1"/>
<path d="M39.4595 70.8109L38.8472 106.989H37.969L37.5859 70.7115L39.4595 70.8109Z" fill="#E1E1E1"/>
<path d="M39.1719 31.4897L40.0552 28.8063L45.8886 31.5058L45.6218 34.3454L42.7145 35.1714L39.8608 33.4228L39.1719 31.4897Z" fill="#0000FF"/>
<path d="M31.7118 63.418C31.7118 63.418 30.8974 62.9224 30.8945 61.7902C30.8919 60.7149 31.854 60.6261 31.885 60.0309C32.2058 53.8805 32.902 41.1409 33.3612 37.1206C33.9403 32.0535 39.8766 30.9829 39.8766 30.9829L44.7782 32.187V32.5573C46.4748 34.738 47.2085 38.0257 47.2101 40.7886L46.9817 55.4293L31.7118 63.418Z" fill="#0000FF"/>
<path d="M37.219 55.2186C37.2251 55.2237 37.1601 55.3124 37.0373 55.4686C36.9148 55.6253 36.7311 55.8465 36.4987 56.1155C36.0346 56.6535 35.3662 57.3745 34.5818 58.1241C33.7963 58.8733 33.0451 59.5075 32.4859 59.9464C32.2067 60.1658 31.9772 60.339 31.8151 60.454C31.6533 60.5696 31.5618 60.6303 31.5568 60.6241C31.5519 60.6178 31.6343 60.5446 31.7872 60.4183C31.9573 60.2774 32.1745 60.0975 32.4341 59.8825C32.9786 59.4282 33.7188 58.7865 34.5015 58.0402C35.2832 57.2931 35.9587 56.5834 36.4375 56.0606C36.6645 55.8113 36.8541 55.6028 37.0027 55.4394C37.136 55.2925 37.2128 55.2135 37.219 55.2186Z" fill="#1A2E35"/>
<mask id="mask6_180_460" style="mask-type:luminance" maskUnits="userSpaceOnUse" x="32" y="55" width="5" height="6">
<path d="M32.3926 55.6918H36.3538V60.0278H32.3926V55.6918Z" fill="white"/>
</mask>
<g mask="url(#mask6_180_460)">
<g opacity="0.199997">
<path d="M32.3926 60.0102C32.4102 59.0831 33.1031 58.3208 33.79 57.6982C34.5941 56.9696 35.4501 56.2986 36.3497 55.6918C36.3933 56.1446 36.0859 56.5484 35.7868 56.8906C34.7825 58.0386 33.6688 59.0907 32.4656 60.0278" fill="black"/>
</g>
</g>
<path d="M40.9694 31.0462C40.9386 31.0368 41.0194 30.6881 41.1498 30.268C41.2802 29.8475 41.4105 29.5144 41.4413 29.524C41.4719 29.5336 41.3911 29.8818 41.2608 30.3022C41.1306 30.7225 41 31.0556 40.9694 31.0462Z" fill="#1A2E35"/>
<path d="M43.2454 30.2851C43.2766 30.2922 43.2237 30.6389 43.1273 31.0592C43.0306 31.4798 42.9271 31.8146 42.8958 31.8075C42.8643 31.8004 42.9172 31.4537 43.0139 31.0333C43.1106 30.613 43.2141 30.2779 43.2454 30.2851Z" fill="#1A2E35"/>
<path d="M44.9384 31.1308C44.9706 31.1384 44.9221 31.4502 44.8781 31.8351C44.8328 32.2197 44.8087 32.5344 44.7757 32.5347C44.7444 32.5351 44.7165 32.2143 44.7627 31.8217C44.8076 31.429 44.9083 31.1232 44.9384 31.1308Z" fill="#1A2E35"/>
<path d="M39.0484 45.458C39.0484 45.4661 38.9605 45.4721 38.8013 45.4761C38.6419 45.4801 38.4116 45.4819 38.127 45.4819C37.5573 45.4817 36.7706 45.4735 35.9018 45.4574C35.0326 45.4409 34.2459 45.4197 33.6767 45.3984C33.3921 45.388 33.1617 45.3775 33.0027 45.3674C32.8436 45.3576 32.7559 45.3482 32.7559 45.3402C32.7561 45.3321 32.8443 45.3261 33.0034 45.3223C33.1628 45.3183 33.3934 45.3163 33.678 45.3163C34.2475 45.3165 35.0341 45.3248 35.9029 45.3411C36.7715 45.3571 37.5577 45.3786 38.1272 45.3998C38.3919 45.4118 38.6167 45.4223 38.8013 45.4308C38.9603 45.4406 39.0484 45.45 39.0484 45.458Z" fill="black"/>
<path d="M37.8053 43.5847C37.8046 43.6169 36.6858 43.6191 35.3069 43.5896C33.9271 43.5602 32.8099 43.5104 32.8105 43.478C32.8112 43.4461 33.9298 43.4439 35.3094 43.4733C36.6885 43.5028 37.806 43.5526 37.8053 43.5847Z" fill="black"/>
<mask id="mask7_180_460" style="mask-type:luminance" maskUnits="userSpaceOnUse" x="35" y="40" width="13" height="15">
<path d="M35.6816 40.6994H47.002V54.2168H35.6816V40.6994Z" fill="white"/>
</mask>
<g mask="url(#mask7_180_460)">
<g opacity="0.199997">
<path d="M35.6816 40.6994C37.465 44.5874 39.6491 48.0784 42.1881 51.5211C42.8421 52.4077 43.5424 53.298 44.4878 53.8636C45.4334 54.4293 46.0589 54.2715 47.002 53.7018C45.9472 53.3658 45.6698 53.2589 44.7735 52.6093C43.8897 51.9686 43.1629 51.0878 42.5205 50.2054C40.2853 47.1344 38.1088 43.971 35.8734 40.9001" fill="black"/>
</g>
</g>
<path d="M54.25 46.2275C54.2891 45.9715 54.3301 45.7094 54.4565 45.4833C54.5826 45.2572 54.8139 45.0712 55.0728 45.0741C55.3318 45.077 55.5822 45.327 55.5237 45.5793C55.4891 45.728 55.3673 45.8373 55.2769 45.9603C54.9918 46.3481 55.0186 46.8727 55.0224 47.3537C55.0264 47.8348 54.9623 48.3808 54.5775 48.6694" fill="#FFBF9D"/>
<path d="M36.541 35.021C34.6539 36.3396 34.2422 38.963 35.6343 40.7966L43.7913 51.5386C45.5633 53.8434 48.7137 54.5812 51.3248 53.3025C53.5274 52.2241 54.8721 49.9336 54.7402 47.4845L52.9441 36.1883L48.5547 36.4613L48.9695 45.6608L42.1793 36.0113C40.8938 34.1841 38.3724 33.7413 36.541 35.021Z" fill="#0000FF"/>
<path d="M54.1207 50.687C53.0412 50.435 52.8579 50.2495 51.7784 49.9975C51.4569 49.9225 51.0444 49.7137 51.1884 49.374C51.2641 49.1958 51.4538 49.0905 51.6467 49.1059C52.0675 49.14 52.7441 49.3907 53.1497 49.4296C53.251 49.4392 53.2481 49.3372 53.2035 49.2679C52.5438 49.0702 51.8683 48.9253 51.1859 48.8347C50.7602 48.7782 50.5937 48.2181 50.9375 47.9609C50.981 47.9284 51.1736 47.8708 51.2265 47.8784C51.6587 47.9409 51.6587 47.9409 52.1201 48.0205C53.4142 48.2447 53.2425 47.9884 53.2425 47.9884C53.2508 47.8913 51.7699 47.748 51.0129 47.6574C50.8524 47.6382 50.6756 47.6105 50.5723 47.4859C50.4468 47.3346 50.4915 47.093 50.6236 46.9477C50.756 46.8022 50.9466 46.691 51.1433 46.6877C51.9846 46.6731 54.7478 46.9803 54.7478 46.9803C54.7478 46.9803 55.1096 47.4721 54.9991 48.4773C54.8777 49.5811 54.1207 50.687 54.1207 50.687Z" fill="#FFBF9D"/>
<path d="M50.212 53.7022C50.212 53.7022 50.1727 53.7098 50.0952 53.7188C50.0133 53.7272 49.899 53.7391 49.7517 53.7543C49.4492 53.7819 49.0027 53.8246 48.4248 53.831C47.8498 53.8317 47.1301 53.8022 46.3439 53.5431C45.5574 53.2832 44.7636 52.7337 44.0471 51.9887C43.3265 51.2449 42.6318 50.3509 41.8927 49.3897C41.1583 48.4242 40.3904 47.3804 39.5916 46.2754C38.7932 45.1705 37.965 44.0032 37.1152 42.7873C36.6926 42.1774 36.2626 41.5568 35.8265 40.9271C35.7182 40.7691 35.6095 40.6106 35.5005 40.4514L35.3463 40.2016C35.292 40.1195 35.2461 40.0329 35.2057 39.9427C35.0233 39.5929 34.9074 39.2085 34.8396 38.8163C34.7672 38.4236 34.7657 38.0218 34.8157 37.6316C34.8335 37.4349 34.8842 37.2447 34.9273 37.0539C34.9894 36.8684 35.0414 36.6797 35.1269 36.5045C35.1978 36.323 35.301 36.1583 35.3936 35.9893C35.505 35.8321 35.6048 35.6667 35.7352 35.5261C35.9765 35.2283 36.2689 34.9801 36.5783 34.7678C36.8877 34.5524 37.2303 34.3983 37.5775 34.274C37.9308 34.1707 38.2902 34.0852 38.653 34.0785C39.3765 34.0369 40.0879 34.2117 40.7042 34.5189C41.3165 34.8392 41.8315 35.3018 42.2028 35.84C42.5706 36.3708 42.9276 36.886 43.2729 37.3845C43.9627 38.381 44.6051 39.3096 45.1922 40.1576C46.3608 41.8522 47.3073 43.2246 47.9647 44.1778C48.2877 44.6508 48.5395 45.0196 48.7137 45.2743C48.796 45.397 48.8601 45.4926 48.9059 45.5609C48.9487 45.6261 48.9681 45.6611 48.9681 45.6611C48.9681 45.6611 48.9422 45.6305 48.8963 45.5678C48.848 45.5008 48.7808 45.4077 48.6945 45.2877C48.5161 45.0356 48.2583 44.6711 47.9274 44.2037C47.2629 43.2554 46.3059 41.8899 45.1246 40.2043C44.5339 39.3587 43.8875 38.433 43.1934 37.4392C42.8465 36.9418 42.4878 36.4277 42.1186 35.898C41.7547 35.3739 41.2522 34.9249 40.6553 34.6142C40.0548 34.3169 39.3619 34.1477 38.6583 34.1894C38.3054 34.1961 37.9563 34.2805 37.613 34.3809C37.2757 34.5026 36.9426 34.6524 36.6419 34.8622C36.3414 35.0689 36.0571 35.3102 35.8231 35.6C35.6963 35.7366 35.5999 35.8976 35.4916 36.0502C35.4019 36.2148 35.3016 36.3746 35.2329 36.5509C35.1496 36.721 35.0994 36.9045 35.0389 37.0847C34.9976 37.2704 34.9481 37.455 34.9306 37.6463C34.8824 38.0251 34.8838 38.4156 34.9541 38.7971C35.0202 39.1779 35.1324 39.5514 35.3097 39.8911C35.4764 40.234 35.7059 40.5443 35.9218 40.8617C36.3575 41.4917 36.7866 42.1122 37.2085 42.7221C38.057 43.9385 38.8829 45.1066 39.6785 46.2129C40.4745 47.319 41.2391 48.3644 41.9695 49.3312C42.7041 50.2935 43.3946 51.1898 44.106 51.9314C44.8136 52.6745 45.5922 53.2196 46.3648 53.4817C47.1381 53.7431 47.8522 53.7797 48.4248 53.786C49.0003 53.7864 49.447 53.7511 49.7497 53.7308C49.8974 53.7205 50.0119 53.7125 50.0941 53.7069C50.1718 53.7018 50.212 53.7022 50.212 53.7022Z" fill="#1A2E35"/>
<path d="M49.435 49.0322C49.3955 49.027 49.6667 48.2172 49.4993 47.2115C49.3464 46.203 48.837 45.5174 48.8729 45.5002C48.8829 45.4929 49.0229 45.6498 49.1883 45.9454C49.3542 46.2398 49.5317 46.6804 49.614 47.1932C49.6948 47.706 49.6629 48.1799 49.5966 48.5111C49.531 48.8435 49.4468 49.0364 49.435 49.0322Z" fill="#1A2E35"/>
<path d="M49.543 37.6609C49.5134 37.6696 49.4136 37.4038 49.3854 37.0575C49.356 36.7115 49.4102 36.4329 49.4408 36.4365C49.4741 36.4396 49.4725 36.7138 49.5013 37.0479C49.5283 37.3821 49.5752 37.6524 49.543 37.6609Z" fill="#1A2E35"/>
<path d="M50.7518 37.5486C50.7225 37.5582 50.6147 37.3012 50.5712 36.9628C50.5265 36.6248 50.5647 36.3487 50.5955 36.3505C50.6288 36.3516 50.643 36.6211 50.6866 36.9479C50.7283 37.2749 50.7837 37.539 50.7518 37.5486Z" fill="#1A2E35"/>
<path d="M51.953 37.2881C51.9208 37.2896 51.8833 37.0695 51.8688 36.7963C51.8545 36.5229 51.8688 36.3001 51.901 36.2983C51.9329 36.2967 51.9706 36.5168 51.9849 36.7903C51.9994 37.0635 51.9851 37.2863 51.953 37.2881Z" fill="#1A2E35"/>
<path d="M44.5617 39.7756C44.58 39.802 43.1958 40.7933 41.4705 41.9892C39.7445 43.1857 38.3308 44.1337 38.3127 44.1074C38.2944 44.081 39.6782 43.0901 41.4042 41.8936C43.1295 40.6976 44.5434 39.7493 44.5617 39.7756Z" fill="black"/>
<path d="M43.479 38.1561C43.4835 38.1628 43.3966 38.2291 43.2363 38.3429C43.0566 38.4688 42.8278 38.6295 42.5544 38.8213C41.978 39.2242 41.1853 39.7852 40.3234 40.4232C39.4613 41.062 38.6937 41.6567 38.1403 42.0907C37.8771 42.2965 37.6568 42.4686 37.4842 42.6037C37.3284 42.7238 37.2398 42.7874 37.2346 42.7813C37.2293 42.7751 37.3081 42.6996 37.4552 42.5688C37.6018 42.4374 37.8184 42.2521 38.0887 42.0268C38.6294 41.5759 39.3908 40.9696 40.2542 40.3299C41.1177 39.6905 41.9193 39.1392 42.5082 38.7532C42.8026 38.5603 43.0428 38.4072 43.2113 38.3052C43.3797 38.2027 43.4745 38.1494 43.479 38.1561Z" fill="black"/>
</g>
<path d="M81.8984 96.2104H97.0876V94.1235H81.8984V96.2104Z" fill="#333333"/>
<path d="M81.9248 96.1843H97.062V94.1491H81.9248V96.1843ZM97.1137 96.2363H81.873V94.0974H97.1137V96.2363Z" fill="#333333"/>
<path d="M83.3047 95.5155L85.491 106.301H93.5806L95.6941 96.21L83.3047 95.5155Z" fill="#333333"/>
<path d="M83.3047 105.282L84.4708 106.885H94.3034L95.6941 105.282H83.3047Z" fill="#666666"/>
<mask id="mask8_180_460" style="mask-type:luminance" maskUnits="userSpaceOnUse" x="0" y="0" width="113" height="112">
<path d="M0.693359 9.91821e-05H112.308V111.614H0.693359V9.91821e-05Z" fill="white"/>
</mask>
<g mask="url(#mask8_180_460)">
<path d="M88.9221 95.8306C88.8922 95.8306 88.854 90.8338 88.8366 84.6712C88.8192 78.5065 88.8295 73.5106 88.8594 73.5104C88.8893 73.5104 88.9275 78.5063 88.9449 84.6709C88.9623 90.8334 88.952 95.8306 88.9221 95.8306Z" fill="#1A2E35"/>
<path d="M92.3049 83.3266C92.3082 83.3283 92.2939 83.3683 92.264 83.4429C92.2285 83.5277 92.1837 83.6348 92.1285 83.7663C92.0982 83.8375 92.0651 83.9152 92.0296 83.9991C91.9982 84.0871 91.9645 84.1817 91.9283 84.2826C91.8915 84.3849 91.8526 84.4936 91.8111 84.6081C91.7705 84.7235 91.7388 84.8492 91.6988 84.9791C91.533 85.497 91.401 86.1321 91.274 86.8388C91.1635 87.5491 91.0807 88.3354 91.039 89.1644C90.9651 90.8239 91.0588 92.3287 91.1588 93.4127C91.2077 93.9549 91.257 94.3931 91.2932 94.6958C91.3086 94.8373 91.3213 94.953 91.3314 95.0445C91.339 95.1246 91.3412 95.1668 91.3374 95.1675C91.3336 95.1679 91.3242 95.1266 91.3097 95.0478C91.2946 94.957 91.2751 94.8422 91.2512 94.7014C91.2026 94.4 91.1414 93.9627 91.0827 93.4203C90.9628 92.336 90.8566 90.8268 90.9309 89.1593C90.9727 88.3264 91.059 87.5357 91.1756 86.8223C91.3088 86.1122 91.4495 85.4749 91.6258 84.9568C91.668 84.8269 91.7028 84.701 91.7461 84.5858C91.7903 84.4715 91.8323 84.3635 91.8718 84.2612C91.9109 84.161 91.9475 84.067 91.9819 83.9795C92.0194 83.8944 92.0575 83.8186 92.0899 83.7493C92.1526 83.6208 92.204 83.5163 92.2444 83.4335C92.281 83.3616 92.3015 83.325 92.3049 83.3266Z" fill="#1A2E35"/>
<path d="M91.9175 79.2855C91.9211 79.2869 91.9041 79.3436 91.8691 79.45C91.8296 79.5659 91.7771 79.7204 91.711 79.9148C91.6758 80.0164 91.6369 80.128 91.595 80.2494C91.5572 80.3742 91.5164 80.5088 91.4726 80.6532C91.3838 80.9423 91.2807 81.2709 91.1894 81.6406C91.1409 81.8247 91.0898 82.0176 91.0371 82.2183C90.9914 82.4212 90.9438 82.6319 90.8947 82.85C90.7884 83.2849 90.7121 83.7574 90.6139 84.251C90.4467 85.2433 90.2991 86.3404 90.1976 87.4979C90.1016 88.6562 90.0598 89.7627 90.0449 90.7695C90.0422 91.7763 90.0547 92.6837 90.0962 93.4442C90.1094 93.8248 90.1339 94.1686 90.1536 94.4704C90.171 94.7729 90.19 95.0327 90.2094 95.2448C90.2248 95.4495 90.2373 95.6127 90.2464 95.7345C90.2538 95.8464 90.2558 95.9053 90.252 95.9058C90.2482 95.9062 90.2391 95.8479 90.2248 95.7366C90.2105 95.6151 90.1915 95.4528 90.1672 95.2488C90.1415 95.0372 90.1165 94.7771 90.0931 94.4751C90.0679 94.1731 90.038 93.8293 90.0196 93.448C89.9685 92.6868 89.9478 91.778 89.9453 90.7686C89.9545 89.7596 89.9935 88.6499 90.0897 87.4887C90.1918 86.3281 90.3424 85.2279 90.5159 84.2334C90.6168 83.7389 90.6967 83.2657 90.807 82.8304C90.8585 82.6118 90.9083 82.4009 90.9559 82.198C91.0112 81.9973 91.0646 81.8046 91.1155 81.6203C91.2121 81.251 91.3204 80.9229 91.415 80.6347C91.4619 80.4912 91.5055 80.3572 91.5461 80.2331C91.5914 80.1124 91.6334 80.0014 91.6713 79.9007C91.7454 79.709 91.8046 79.5565 91.8488 79.4424C91.8905 79.338 91.914 79.284 91.9175 79.2855Z" fill="#1A2E35"/>
<path d="M87.9606 96.7153C87.9588 96.7153 87.9559 96.6955 87.9521 96.6568C87.9483 96.612 87.9436 96.5553 87.9376 96.485C87.9271 96.3258 87.9119 96.1044 87.8929 95.8233C87.8566 95.2405 87.8048 94.4109 87.7407 93.3895C87.609 91.3346 87.4181 88.4958 87.0724 85.3742C86.8958 83.8134 86.6911 82.3309 86.4779 80.9871C86.3647 80.3163 86.262 79.6779 86.1455 79.0841C86.0388 78.4885 85.9234 77.9367 85.8174 77.4331C85.7176 76.9282 85.6064 76.4763 85.5169 76.0774C85.429 75.6781 85.3437 75.3365 85.2727 75.0575C85.2055 74.784 85.1528 74.5684 85.1149 74.4137C85.0992 74.3445 85.0865 74.2891 85.0765 74.2454C85.0684 74.2072 85.0651 74.1876 85.0669 74.1871C85.0689 74.1865 85.0756 74.2052 85.0872 74.2423C85.0999 74.2856 85.116 74.34 85.1361 74.4079C85.1787 74.5617 85.2381 74.7756 85.3135 75.047C85.3908 75.3245 85.4819 75.6649 85.5756 76.0631C85.6709 76.4614 85.7877 76.9125 85.8921 77.417C86.0031 77.9202 86.123 78.4716 86.2337 79.0671C86.3542 79.6611 86.4603 80.2998 86.5763 80.971C86.7949 82.3158 87.0032 83.7998 87.18 85.3622C87.5262 88.4871 87.7048 91.3284 87.817 93.3848C87.8729 94.4132 87.9117 95.2456 87.9351 95.8211C87.9456 96.1026 87.9537 96.3242 87.9595 96.4838C87.961 96.5544 87.9621 96.6113 87.9633 96.6562C87.9633 96.6952 87.9626 96.7151 87.9606 96.7153Z" fill="#1A2E35"/>
<path d="M88.797 75.9135C88.731 75.2054 88.0155 74.6714 87.3045 74.664C86.5938 74.6567 85.931 75.083 85.4964 75.6456C85.0615 76.2081 84.8216 76.8948 84.6256 77.5783C84.1467 79.246 83.8851 80.9982 84.0898 82.7213C84.2945 84.4444 84.9934 86.1407 86.2299 87.3582C86.4308 87.5559 86.6913 87.7539 86.9672 87.695C87.1181 87.6629 87.2416 87.5582 87.3563 87.4546C89.785 85.2607 91.1876 81.9743 91.0914 78.7027C91.0722 78.0475 90.9862 77.3656 90.6235 76.8198C90.2605 76.2737 89.4149 75.6942 88.797 75.9135Z" fill="#CCCCCC"/>
<path d="M83.4871 70.2426C83.1534 70.8471 82.8197 71.4516 82.4857 72.0559C82.4623 72.0983 82.4315 72.1456 82.3835 72.1496C82.3308 72.1541 82.2915 72.1043 82.2627 72.0601C81.3803 70.7056 80.4977 69.3515 79.6152 67.9971L80.2255 67.6516L83.4871 70.2426Z" fill="#CCCCCC"/>
<path d="M88.8592 73.5103L79.829 68.1816C79.7368 68.1271 79.637 68.063 79.6091 67.9597C79.5729 67.826 79.6734 67.6972 79.7696 67.5978C81.0119 66.3165 82.8158 65.5738 84.5956 65.702C86.3754 65.8301 88.0871 66.8581 88.9584 68.4153C89.8301 69.9725 89.8589 72.032 88.8592 73.5103Z" fill="#CCCCCC"/>
<path d="M81.1289 66.4807C81.1287 66.4769 81.1693 66.472 81.2472 66.466C81.3251 66.4619 81.4401 66.4481 81.5885 66.4494C81.8852 66.4423 82.3165 66.4617 82.8415 66.5492C83.3659 66.6352 83.982 66.8039 84.6258 67.091C85.2693 67.377 85.9348 67.7904 86.5413 68.3339C87.1427 68.8833 87.6208 69.5045 87.9693 70.1162C88.3191 70.7283 88.5483 71.3245 88.6863 71.838C88.8256 72.3516 88.8879 72.7789 88.9102 73.0746C88.9267 73.2222 88.92 73.2601 88.924 73.338C88.9258 73.416 88.8582 73.5349 88.8542 73.5352C88.8446 73.5356 88.9042 73.372 88.8685 73.0793C88.8334 72.7864 88.76 72.3643 88.6126 71.8589C88.3274 70.8533 87.6644 69.4974 86.4688 68.4141C85.2722 67.3328 83.8572 66.8084 82.8279 66.6245C82.3102 66.5285 81.883 66.4972 81.5883 66.4916C81.2932 66.4854 81.1294 66.4903 81.1289 66.4807Z" fill="#1A2E35"/>
<path d="M87.6377 69.8325C87.6428 69.8463 87.4689 69.9267 87.1811 70.0401C86.8934 70.1533 86.4914 70.2984 86.0418 70.4415C85.5918 70.5841 85.1797 70.6977 84.8794 70.7712C84.579 70.8446 84.3906 70.879 84.3868 70.8652C84.383 70.8504 84.5642 70.7895 84.8589 70.6975C85.1917 70.5935 85.5799 70.4721 86.009 70.3381C86.4365 70.1999 86.8238 70.0752 87.1555 69.9678C87.449 69.8734 87.6325 69.8182 87.6377 69.8325Z" fill="#1A2E35"/>
<path d="M86.2169 66.0124C86.2461 66.0097 86.31 66.4599 86.3238 67.0198C86.3383 67.5797 86.297 68.0326 86.268 68.0312C86.2374 68.0301 86.2303 67.5785 86.2155 67.0225C86.2019 66.4664 86.1863 66.015 86.2169 66.0124Z" fill="#1A2E35"/>
<path d="M79.7481 68.0804C79.7439 68.0666 79.9939 67.976 80.4039 67.8496C80.8142 67.723 81.3857 67.5632 82.0226 67.4094C82.6599 67.2563 83.2414 67.1384 83.6642 67.0641C84.087 66.9897 84.3508 66.9569 84.3535 66.971C84.3562 66.9864 84.0975 67.0458 83.6792 67.1393C83.261 67.2324 82.6833 67.3616 82.048 67.5148C81.4127 67.6679 80.8399 67.8157 80.4249 67.9233C80.0102 68.0307 79.7526 68.0952 79.7481 68.0804Z" fill="#1A2E35"/>
<path d="M85.0495 74.3774C84.2729 73.7883 83.4514 73.6724 82.4777 73.711C81.5035 73.7494 80.5555 74.0463 79.6628 74.4374C78.1401 75.1042 76.7088 76.0873 75.7989 77.4787C74.889 78.8698 74.5723 80.7117 75.2536 82.2281C75.3214 82.3792 75.4096 82.5372 75.5621 82.6024C75.7223 82.671 75.9058 82.6174 76.0717 82.5634C77.8035 81.9984 79.5478 81.428 81.1401 80.5431C82.7326 79.6585 84.182 78.4285 85.0365 76.8197C85.2415 76.4337 85.4131 76.0199 85.4466 75.5841C85.4803 75.1482 85.3598 74.685 85.0495 74.3774Z" fill="#CCCCCC"/>
<path d="M85.064 74.195C85.0651 74.1985 85.0223 74.216 84.9392 74.2456C84.8457 74.2778 84.7254 74.3191 84.5765 74.3702C84.4964 74.397 84.4086 74.4262 84.3138 74.4579C84.2184 74.4921 84.1171 74.5347 84.0068 74.5776C83.7876 74.666 83.5334 74.7548 83.2653 74.8848C83.1298 74.9464 82.988 75.0109 82.8407 75.0781C82.6936 75.1462 82.5465 75.2299 82.3906 75.3089C82.0768 75.4634 81.7591 75.6602 81.4212 75.86C80.7571 76.2797 80.0546 76.7851 79.3704 77.3807C78.6922 77.9834 78.1015 78.6162 77.6004 79.2214C77.3591 79.5312 77.1234 79.8212 76.9303 80.1132C76.8318 80.2574 76.7302 80.3927 76.6441 80.53C76.5586 80.6675 76.4767 80.7999 76.3983 80.9264C76.2351 81.1755 76.1148 81.4169 75.9992 81.6227C75.9427 81.7265 75.8876 81.8218 75.8414 81.912C75.7978 82.0022 75.7579 82.0854 75.721 82.1615C75.6512 82.3024 75.5949 82.4165 75.5509 82.5055C75.511 82.5835 75.4884 82.6241 75.4849 82.6225C75.4813 82.621 75.4976 82.5779 75.5311 82.4966C75.5704 82.4053 75.6206 82.2883 75.6829 82.1435C75.717 82.066 75.7545 81.981 75.7951 81.8892C75.8387 81.7975 75.8914 81.7004 75.9454 81.5945C76.0565 81.3852 76.1728 81.1401 76.3325 80.8871C76.4095 80.7588 76.4901 80.6246 76.5738 80.4849C76.6588 80.3456 76.759 80.2083 76.8566 80.0619C77.0477 79.7663 77.2823 79.4725 77.5229 79.1585C78.023 78.5459 78.6159 77.9064 79.2989 77.2994C79.9878 76.6996 80.6972 76.1929 81.3687 75.775C81.7107 75.5763 82.0319 75.381 82.3496 75.2294C82.5072 75.1513 82.6558 75.0691 82.805 75.0026C82.9541 74.9374 83.0974 74.8747 83.2349 74.8144C83.5061 74.6885 83.7637 74.6044 83.9858 74.5207C84.0975 74.4807 84.2004 74.4408 84.2968 74.4093C84.3932 74.3807 84.4823 74.3544 84.5636 74.33C84.7153 74.2869 84.8379 74.2519 84.9332 74.2247C85.018 74.2014 85.0631 74.1912 85.064 74.195Z" fill="#1A2E35"/>
<path d="M78.9963 77.4796C79.0048 77.5084 78.1587 77.7809 77.1071 78.0885C76.055 78.3959 75.1958 78.6218 75.1876 78.5933C75.1789 78.5645 76.0247 78.2921 77.0767 77.9845C78.1284 77.6771 78.988 77.451 78.9963 77.4796Z" fill="#1A2E35"/>
<path d="M78.9183 81.6479C78.9038 81.6482 78.8866 81.4232 78.8765 81.0593C78.8669 80.6952 78.8651 80.1923 78.8805 79.6369C78.8962 79.0815 78.9259 78.5792 78.9562 78.2165C78.9866 77.8535 79.0158 77.6301 79.0306 77.6312C79.0457 77.6323 79.0433 77.8575 79.0326 78.2207C79.0203 78.6196 79.0053 79.104 78.9886 79.64C78.9754 80.1758 78.9631 80.6604 78.9531 81.0593C78.9435 81.4227 78.9334 81.6477 78.9183 81.6479Z" fill="#1A2E35"/>
<path d="M82.4912 79.8286C82.4615 79.8306 82.3664 78.8085 82.2791 77.5454C82.1918 76.2824 82.1452 75.2571 82.1751 75.2549C82.2048 75.2529 82.2999 76.2748 82.3871 77.5381C82.4744 78.8009 82.5211 79.8264 82.4912 79.8286Z" fill="#1A2E35"/>
<path d="M78.0449 75.1563C78.0456 75.1415 78.2771 75.1355 78.6505 75.1382C79.024 75.1407 79.5392 75.1516 80.1082 75.1703C80.6775 75.1891 81.1927 75.2123 81.5655 75.2346C81.938 75.2565 82.1686 75.2777 82.1684 75.2927C82.1682 75.3076 81.9371 75.3134 81.5637 75.311C81.1902 75.3085 80.6743 75.2976 80.1049 75.2786C79.5352 75.2599 79.0198 75.2366 78.647 75.2145C78.2742 75.1924 78.0443 75.1712 78.0449 75.1563Z" fill="#1A2E35"/>
<path d="M86.6192 87.5947C86.6154 87.5949 86.6112 87.5532 86.6063 87.474C86.602 87.3831 86.5967 87.2679 86.5904 87.1266C86.5768 86.825 86.5737 86.3877 86.5853 85.8477C86.5951 85.3078 86.6317 84.6651 86.6967 83.9534C86.767 83.2424 86.8688 82.4629 87.0145 81.6506C87.1641 80.8387 87.3436 80.0726 87.5284 79.3815C87.7184 78.6915 87.9106 78.076 88.0921 77.566C88.2713 77.0552 88.4285 76.646 88.5479 76.3675C88.6037 76.2369 88.6492 76.1311 88.6852 76.0471C88.7175 75.9741 88.7363 75.9364 88.7399 75.938C88.7434 75.9393 88.7314 75.9795 88.7055 76.0549C88.6745 76.1404 88.6352 76.2489 88.587 76.3822C88.4803 76.6648 88.3345 77.0773 88.1646 77.5896C87.9929 78.1015 87.809 78.7172 87.6248 79.406C87.446 80.0963 87.2701 80.8604 87.121 81.6694C86.9759 82.4786 86.8714 83.2549 86.7958 83.9628C86.7259 84.6716 86.6813 85.3115 86.6616 85.8502C86.6404 86.3884 86.6319 86.8246 86.6326 87.1259C86.6306 87.2675 86.6292 87.3824 86.6281 87.4735C86.6257 87.553 86.623 87.5947 86.6192 87.5947Z" fill="#1A2E35"/>
<path d="M87.0949 81.6825C87.1049 81.693 86.9683 81.845 86.7346 82.0778C86.5011 82.3106 86.1693 82.6236 85.7908 82.9555C85.4122 83.2873 85.0586 83.5752 84.7969 83.7766C84.5355 83.9777 84.367 84.0933 84.3579 84.0817C84.3483 84.0697 84.5 83.9333 84.7485 83.7172C85.026 83.4763 85.3555 83.1904 85.7195 82.8743C86.0803 82.5546 86.4071 82.2655 86.6821 82.022C86.9288 81.8039 87.0841 81.6715 87.0949 81.6825Z" fill="#1A2E35"/>
<path d="M89.9511 83.9851C89.9379 83.9934 89.7948 83.788 89.5674 83.4538C89.3205 83.0935 89.014 82.6462 88.6751 82.1515C88.3289 81.6615 88.0159 81.2184 87.7639 80.8619C87.5297 80.5324 87.3871 80.3268 87.3991 80.3175C87.4105 80.3085 87.5748 80.4978 87.8255 80.8162C88.0758 81.1343 88.4108 81.5823 88.764 82.0897C89.1167 82.5969 89.4205 83.067 89.6317 83.4123C89.843 83.7576 89.9634 83.9775 89.9511 83.9851Z" fill="#1A2E35"/>
<path d="M88.4563 76.7438C88.4723 76.769 87.523 77.4083 86.3358 78.1716C85.1483 78.9348 84.173 79.5332 84.1565 79.508C84.1404 79.483 85.0898 78.8437 86.2771 78.0803C87.4645 77.317 88.4402 76.7188 88.4563 76.7438Z" fill="#1A2E35"/>
<path d="M91.1331 79.6337C91.1123 79.6551 90.4692 79.0609 89.697 78.3066C88.9244 77.5521 88.3155 76.9233 88.3365 76.9021C88.3572 76.8806 89.0001 77.4747 89.7727 78.2292C90.5449 78.9835 91.1541 79.6123 91.1331 79.6337Z" fill="#1A2E35"/>
<path d="M91.8066 79.5747L92.6216 79.5071C93.2003 79.4593 93.7619 79.2881 94.2677 79.0032C94.5177 78.8626 94.7691 78.7247 95.035 78.618C96.0428 78.2135 97.167 78.286 98.2515 78.2313C100.022 78.1425 101.773 77.6949 103.369 76.923C103.461 76.8783 103.542 76.8102 103.592 76.7207C103.759 76.4158 103.448 76.1441 103.18 75.9792C101.807 75.1331 100.409 74.2762 98.8522 73.856C97.2947 73.4359 95.527 73.5069 94.1983 74.4215C92.6386 75.495 92.0703 77.6998 91.8066 79.5747Z" fill="#CCCCCC"/>
<path d="M103.61 76.6211C103.608 76.6245 103.561 76.6021 103.472 76.5568C103.374 76.5055 103.246 76.4385 103.085 76.3546C102.75 76.1785 102.268 75.9184 101.659 75.626C101.049 75.3367 100.31 75.0103 99.4497 74.7748C98.5934 74.5366 97.6058 74.4121 96.587 74.5426C95.5724 74.6764 94.6384 75.0712 93.9772 75.6635C93.3116 76.2537 92.9053 76.9665 92.6182 77.5723C92.3318 78.1831 92.1555 78.7027 92.0269 79.0583C91.9668 79.2289 91.9186 79.3655 91.8818 79.4695C91.8481 79.5633 91.8284 79.6119 91.8249 79.6108C91.8211 79.6097 91.8338 79.5586 91.861 79.4626C91.893 79.3572 91.9347 79.2184 91.9872 79.0449C92.1032 78.6846 92.2689 78.1603 92.5488 77.5399C92.8292 76.9256 93.2337 76.1977 93.9112 75.5887C94.5846 74.9777 95.5407 74.571 96.5729 74.4355C97.6089 74.3025 98.6128 74.4328 99.4763 74.6786C100.344 74.9224 101.084 75.2583 101.692 75.557C102.3 75.8592 102.777 76.13 103.106 76.3178C103.262 76.4088 103.387 76.4821 103.483 76.5379C103.568 76.5892 103.612 76.6178 103.61 76.6211Z" fill="#1A2E35"/>
<path d="M101.653 77.6732C101.636 77.698 100.57 77.0084 99.2721 76.1334C97.9735 75.2576 96.9346 74.5279 96.9514 74.5033C96.9681 74.4783 98.034 75.1679 99.3323 76.0434C100.631 76.9187 101.67 77.6486 101.653 77.6732Z" fill="#1A2E35"/>
<path d="M100.515 74.4472C100.52 74.4709 100.175 74.5513 99.7386 74.5868C99.3022 74.6234 98.9468 74.6006 98.9473 74.5765C98.9473 74.5508 99.2986 74.5327 99.7292 74.4968C100.16 74.4615 100.509 74.422 100.515 74.4472Z" fill="#1A2E35"/>
<path d="M95.8482 73.8381C95.8738 73.8502 95.7174 74.0946 95.4986 74.3843C95.2794 74.6743 95.0812 74.8998 95.0555 74.8877C95.0298 74.8759 95.1863 74.6315 95.4053 74.3415C95.6241 74.0517 95.8225 73.8263 95.8482 73.8381Z" fill="#1A2E35"/>
<path d="M96.8018 78.3008C96.7944 78.3131 96.5968 78.2095 96.2888 78.0226C95.9807 77.8358 95.5646 77.5617 95.12 77.2391C94.6755 76.9159 94.2833 76.6107 94.0014 76.3873C93.7199 76.1634 93.55 76.0196 93.5589 76.0078C93.5676 75.9959 93.7543 76.1178 94.0474 76.3259C94.3672 76.5583 94.7548 76.84 95.1836 77.1516C95.6267 77.4733 96.0341 77.7557 96.3303 77.9583C96.6268 78.161 96.81 78.2874 96.8018 78.3008Z" fill="#1A2E35"/>
<path d="M93.0048 83.0379C92.2275 82.8325 91.3007 83.5888 91.1404 84.3768C90.9803 85.1648 91.2757 85.9706 91.6217 86.6966C92.3876 88.3034 93.4446 89.7939 94.8366 90.9031C96.2287 92.0123 97.9725 92.722 99.7525 92.7128C99.424 91.1861 99.8396 89.5912 99.6563 88.0404C99.4963 86.687 98.8652 85.3936 97.8966 84.4346C96.928 83.4756 95.6286 82.8575 94.2736 82.7111C93.7772 82.6575 93.2028 82.5796 93.0048 83.0379Z" fill="#CCCCCC"/>
<path d="M99.7543 92.713C99.7525 92.7163 99.7146 92.6987 99.6438 92.6616C99.5735 92.6232 99.4722 92.5614 99.353 92.4663C99.1087 92.281 98.8293 91.9239 98.5855 91.4397C98.4614 91.199 98.323 90.9376 98.1873 90.6483C98.0562 90.3579 97.9163 90.0485 97.7691 89.7237C97.6207 89.3998 97.4577 89.0634 97.2553 88.7355C97.0535 88.4069 96.8137 88.0857 96.5479 87.7734C96.0157 87.1481 95.4444 86.6072 94.9496 86.0907C94.4518 85.5759 94.0332 85.0801 93.7307 84.6283C93.4251 84.1785 93.2401 83.7751 93.1352 83.4907C93.0851 83.3477 93.049 83.2354 93.0314 83.1575C93.0117 83.0802 93.0032 83.0392 93.0066 83.038C93.0168 83.0351 93.061 83.1968 93.1742 83.4756C93.2905 83.7526 93.4836 84.1455 93.7939 84.585C94.1011 85.0263 94.5216 85.5123 95.021 86.021C95.5181 86.5325 96.0927 87.0718 96.6305 87.7035C96.899 88.0189 97.1419 88.3453 97.3457 88.6801C97.5506 89.0148 97.7133 89.3561 97.86 89.6827C98.0038 90.0088 98.1406 90.3191 98.269 90.6106C98.3995 90.8986 98.5342 91.1627 98.6534 91.4046C98.8875 91.8899 99.1489 92.2417 99.38 92.4339C99.6072 92.6299 99.7608 92.7025 99.7543 92.713Z" fill="#1A2E35"/>
<path d="M95.7342 91.4448C95.7204 91.4421 95.7447 91.2419 95.8057 90.9215C95.8666 90.6014 95.9664 90.1619 96.1012 89.6828C96.2363 89.204 96.3805 88.7772 96.4957 88.4723C96.6109 88.1671 96.6946 87.9836 96.7077 87.9888C96.7225 87.9939 96.6642 88.1868 96.568 88.4971C96.4718 88.8073 96.3396 89.2357 96.2053 89.7123C96.0713 90.1889 95.9601 90.6231 95.8802 90.9381C95.8005 91.253 95.7494 91.4479 95.7342 91.4448Z" fill="#1A2E35"/>
<path d="M99.6061 87.6968C99.6014 87.7115 99.3934 87.6584 99.0583 87.5709C98.7235 87.4834 98.2609 87.3637 97.7462 87.2474C97.2312 87.1318 96.762 87.0414 96.4218 86.9771C96.0816 86.9126 95.8711 86.8715 95.8731 86.8561C95.8751 86.842 96.0896 86.8563 96.434 86.9014C96.7783 86.947 97.2524 87.0255 97.7698 87.1421C98.2873 87.2586 98.7491 87.3907 99.0797 87.4972C99.4103 87.6041 99.6103 87.6829 99.6061 87.6968Z" fill="#1A2E35"/>
<path d="M92.8491 88.7856C92.835 88.7829 92.8649 88.5512 92.9333 88.18C93.0018 87.809 93.1105 87.2987 93.2558 86.7413C93.4016 86.1837 93.5561 85.6852 93.6777 85.3283C93.7996 84.9709 93.8864 84.7541 93.9003 84.7588C93.9148 84.7635 93.8536 84.9887 93.7507 85.3508C93.648 85.7131 93.5056 86.2131 93.3605 86.7685C93.2159 87.3239 93.0955 87.8297 93.008 88.1958C92.9208 88.5622 92.8643 88.7887 92.8491 88.7856Z" fill="#1A2E35"/>
<path d="M97.8239 84.4317C97.8206 84.4614 96.8502 84.3828 95.6564 84.2563C94.4621 84.1295 93.4969 84.0029 93.5 83.9732C93.5034 83.9435 94.4735 84.0221 95.6678 84.1487C96.8616 84.2752 97.8271 84.402 97.8239 84.4317Z" fill="#1A2E35"/>
<path d="M97.1107 96.2018C97.1107 96.2318 93.6991 96.2559 89.4912 96.2559C85.2825 96.2559 81.8711 96.2318 81.8711 96.2018C81.8711 96.1719 85.2825 96.1478 89.4912 96.1478C93.6991 96.1478 97.1107 96.1719 97.1107 96.2018Z" fill="#999999"/>
<path d="M94.7385 100.592C94.7385 100.622 92.4397 100.646 89.6047 100.646C86.7688 100.646 84.4707 100.622 84.4707 100.592C84.4707 100.563 86.7688 100.538 89.6047 100.538C92.4397 100.538 94.7385 100.563 94.7385 100.592Z" fill="#999999"/>
<path d="M94.6476 101.22C94.6476 101.25 92.3888 101.274 89.6031 101.274C86.8168 101.274 84.5586 101.25 84.5586 101.22C84.5586 101.19 86.8168 101.166 89.6031 101.166C92.3888 101.166 94.6476 101.19 94.6476 101.22Z" fill="#999999"/>
<path d="M94.8278 100.075C94.8278 100.105 92.4502 100.129 89.5176 100.129C86.5842 100.129 84.207 100.105 84.207 100.075C84.207 100.045 86.5842 100.021 89.5176 100.021C92.4502 100.021 94.8278 100.045 94.8278 100.075Z" fill="#999999"/>
</g>
<mask id="mask9_180_460" style="mask-type:luminance" maskUnits="userSpaceOnUse" x="0" y="0" width="113" height="112">
<path d="M0.693359 9.91821e-05H112.308V111.614H0.693359V9.91821e-05Z" fill="white"/>
</mask>
<g mask="url(#mask9_180_460)">
<path d="M64.3163 10.5356C62.324 10.0919 59.769 11.4741 59.0803 13.3356C58.3916 15.1973 59.139 17.501 60.638 18.802C59.4683 20.3066 59.4194 22.5447 60.4081 24.1738C61.3967 25.8031 63.3138 26.7815 65.2195 26.7699C67.1252 26.7583 68.974 25.8105 70.2136 24.3628C71.8278 25.1584 73.8839 24.9624 75.3188 23.876C76.7537 22.7895 77.5 20.8637 77.1718 19.094C79.43 18.2698 80.6712 15.3837 79.7153 13.1778C78.7599 10.972 75.8057 9.90323 73.6598 10.987C73.7062 8.58239 71.6092 6.33894 69.2073 6.22287C66.8051 6.10679 64.5016 8.13794 64.3163 10.5356C64.4644 10.5118 64.1681 10.5595 64.3163 10.5356Z" fill="#FAFAFA"/>
<path d="M64.3161 10.5356C64.3161 10.5356 64.3068 10.5387 64.2806 10.5438L64.2755 10.5447L64.2744 10.5449C64.2717 10.5349 64.2737 10.542 64.2739 10.5398L64.2764 10.5394L64.2887 10.5369C64.2976 10.5353 64.3074 10.5336 64.3184 10.5315C64.3295 10.5295 64.3418 10.5273 64.3554 10.5251C64.3552 10.5423 64.3302 10.5342 64.3168 10.5403L64.3101 10.5434L64.3114 10.5353C64.3407 10.3438 64.3487 9.83753 64.6543 9.14575C64.8003 8.79952 65.0258 8.41668 65.3365 8.02269C65.6486 7.62913 66.0691 7.24138 66.5939 6.90878C67.1176 6.57683 67.7614 6.31186 68.4907 6.2219C68.5818 6.21163 68.6738 6.20136 68.7666 6.19087C68.8599 6.1902 68.9541 6.18931 69.0492 6.18842C69.2401 6.17681 69.4314 6.21498 69.6274 6.22949C70.0131 6.29981 70.4125 6.39513 70.79 6.5775C70.8873 6.61679 70.9822 6.66211 71.0735 6.71658C71.1661 6.76859 71.261 6.8177 71.353 6.87328C71.5302 6.99561 71.7166 7.11035 71.8827 7.25723C72.0597 7.39117 72.2135 7.55502 72.3771 7.71262C72.5242 7.8854 72.6825 8.05349 72.8113 8.24814C73.3616 8.99797 73.7114 9.96343 73.7067 10.9878L73.6384 10.9447C74.5717 10.4777 75.7258 10.3882 76.8127 10.6958C77.8947 10.9976 78.9463 11.6952 79.5613 12.754C80.1845 13.809 80.2473 15.1756 79.8129 16.3766C79.5979 16.9795 79.2639 17.5496 78.8211 18.034C78.3788 18.5175 77.8228 18.914 77.1913 19.1477L77.2281 19.0834C77.3991 20.0071 77.281 20.9969 76.9046 21.893C76.5292 22.7872 75.8914 23.6011 75.0438 24.136C73.5772 25.0664 71.6713 25.1409 70.1879 24.4143L70.2569 24.4003C69.1852 25.6403 67.7163 26.4884 66.1787 26.7399C64.6403 27.0076 63.0692 26.6145 61.878 25.7881C61.2811 25.3749 60.7753 24.8541 60.4049 24.2623C60.0368 23.6699 59.8049 23.012 59.7161 22.3533C59.6178 21.6947 59.6616 21.0358 59.8109 20.4228C59.9643 19.81 60.2413 19.2479 60.6027 18.7747L60.6088 18.8354C59.883 18.1988 59.3901 17.3925 59.0966 16.5795C58.9473 16.1723 58.8595 15.7567 58.816 15.3506C58.7738 14.9445 58.7754 14.5445 58.837 14.1659C58.9446 13.407 59.2642 12.7321 59.7009 12.2415C60.1286 11.7414 60.6177 11.378 61.0867 11.114C61.5577 10.8494 62.0122 10.6851 62.4142 10.5811C62.818 10.4798 63.171 10.4478 63.4554 10.4431C63.7393 10.4445 63.957 10.4621 64.0996 10.4936C64.2434 10.5193 64.3161 10.5356 64.3161 10.5356C64.3161 10.5356 64.2413 10.5278 64.0976 10.5065C63.9549 10.4798 63.738 10.4661 63.4558 10.4693C63.1734 10.478 62.8234 10.5137 62.4236 10.6182C62.0256 10.7253 61.5762 10.8918 61.1115 11.1573C60.6483 11.4222 60.1665 11.7852 59.7473 12.2805C59.3192 12.7676 59.0102 13.4282 58.9075 14.1762C58.8481 14.549 58.8484 14.9428 58.8917 15.3426C58.9359 15.7421 59.0238 16.1515 59.1725 16.5525C59.4645 17.3527 59.9529 18.1454 60.667 18.7682L60.6985 18.7957L60.673 18.8292C60.321 19.2935 60.0509 19.8444 59.9022 20.4456C59.7571 21.0469 59.7156 21.6936 59.8134 22.3392C59.902 22.9852 60.1308 23.6292 60.4916 24.2079C60.8552 24.7865 61.3521 25.2963 61.9383 25.7008C63.1091 26.5102 64.6507 26.8942 66.1604 26.6301C67.6699 26.3819 69.116 25.5459 70.1696 24.3253L70.1989 24.2916L70.2388 24.3112C71.6842 25.0193 73.5518 24.9461 74.9813 24.0378C75.8073 23.517 76.4305 22.7225 76.7977 21.8481C77.166 20.9722 77.2817 20.0045 77.1154 19.1044L77.1064 19.0569L77.152 19.0401C78.3858 18.5827 79.2918 17.5121 79.7077 16.3393C80.1334 15.1649 80.0727 13.8331 79.4684 12.8076C78.8722 11.7769 77.8447 11.0907 76.785 10.7934C75.7206 10.4902 74.592 10.5762 73.6808 11.0289L73.612 11.0633L73.6125 10.986C73.6189 9.98575 73.2794 9.03726 72.7408 8.2986C72.6149 8.10662 72.4593 7.94121 72.3155 7.77044C72.1548 7.61507 72.0041 7.453 71.8304 7.32108C71.6677 7.17576 71.4844 7.06258 71.3108 6.94137C71.2204 6.88645 71.127 6.83801 71.0362 6.78622C70.9467 6.7322 70.8534 6.68733 70.7578 6.64849C70.387 6.46745 69.9951 6.3728 69.6165 6.30204C69.424 6.28708 69.2359 6.24824 69.0486 6.25918C68.955 6.25963 68.8624 6.26007 68.7706 6.26052C68.6793 6.27034 68.5889 6.28016 68.499 6.28976C67.7809 6.37481 67.1442 6.63264 66.6245 6.95789C66.1037 7.28358 65.6847 7.66463 65.3727 8.05215C65.0619 8.44034 64.8347 8.81782 64.6862 9.15981C64.3755 9.84266 64.3588 10.3454 64.3208 10.536L64.3152 10.5309C64.33 10.5324 64.351 10.517 64.3568 10.5333C64.3431 10.5353 64.3306 10.5371 64.3195 10.5387C64.3085 10.5403 64.2987 10.5416 64.2898 10.5429L64.2773 10.5447L64.2744 10.5449C64.2739 10.5427 64.2744 10.5503 64.2735 10.54L64.2746 10.5398L64.28 10.5391C64.3061 10.5356 64.3161 10.5356 64.3161 10.5356Z" fill="#1A2E35"/>
<path d="M68.0641 20.3856C68.5327 20.6452 69.0702 20.7657 69.595 20.6929C70.214 20.6074 70.7933 20.2469 71.1846 19.7038C71.5556 19.1891 71.707 18.566 71.6005 17.9946C71.4929 17.4177 71.1246 16.8925 70.5897 16.5527C70.1636 16.2808 69.6702 16.1502 69.1889 16.1726L69.2302 14.1573C69.2343 13.9604 69.0778 13.7972 68.8807 13.7932C68.6836 13.7894 68.5206 13.9456 68.5166 14.1428L68.467 16.5793C68.4646 16.6911 68.515 16.7974 68.6025 16.8668C68.6896 16.936 68.8052 16.9601 68.9137 16.9318C69.3381 16.8213 69.8088 16.9019 70.2073 17.1552C70.5754 17.3889 70.8277 17.7425 70.8989 18.1251C70.9701 18.5062 70.8629 18.9292 70.6055 19.2868C70.3279 19.6721 69.9238 19.927 69.4974 19.986C68.6487 20.1036 67.7161 19.4748 67.4607 18.6138C67.4049 18.4247 67.2065 18.3171 67.0174 18.3729C66.8285 18.429 66.7205 18.6276 66.7765 18.8165C66.9765 19.4913 67.4634 20.0527 68.0641 20.3856Z" fill="#0000FF"/>
<path d="M69.3686 12.6937C69.3787 12.473 69.2079 12.2857 68.9871 12.2754C68.7663 12.2654 68.579 12.4361 68.5688 12.6569C68.5587 12.8779 68.7295 13.0652 68.9503 13.0752C69.1711 13.0855 69.3583 12.9145 69.3686 12.6937Z" fill="#0000FF"/>
<path d="M56.1065 21.7031C55.0921 21.5903 54.0664 22.4094 53.9521 23.4237C53.8378 24.4376 54.6555 25.4647 55.6696 25.5803C56.6835 25.6962 57.7115 24.8798 57.8289 23.8659C57.9459 22.852 57.1313 21.8229 56.1176 21.7042" fill="#FAFAFA"/>
<path d="M56.1201 21.7041C56.1201 21.7041 56.2958 21.6967 56.5884 21.8054C56.8771 21.9117 57.2818 22.165 57.5822 22.6425C57.7289 22.8798 57.849 23.1718 57.8823 23.5028C57.9126 23.8323 57.8544 24.1991 57.6742 24.5277C57.5885 24.6935 57.4755 24.8502 57.3394 24.99C57.2059 25.1322 57.0492 25.2585 56.8735 25.3603C56.5275 25.571 56.0984 25.6818 55.6658 25.638C55.2343 25.5833 54.8412 25.3788 54.5512 25.0956C54.403 24.9567 54.2787 24.7982 54.1807 24.6295C54.0796 24.4627 54.0048 24.2846 53.9588 24.1038C53.8572 23.743 53.8831 23.3725 53.9869 23.0582C54.0939 22.7432 54.2769 22.4856 54.4731 22.2876C54.8734 21.8902 55.325 21.7344 55.6299 21.696C55.9395 21.6561 56.1089 21.7029 56.1089 21.7029C56.1085 21.7172 55.9368 21.688 55.637 21.7407C55.3419 21.7916 54.9095 21.9554 54.5318 22.3452C54.3465 22.5394 54.176 22.7885 54.0785 23.0885C53.9845 23.3876 53.9633 23.735 54.0622 24.0759C54.107 24.2464 54.1791 24.4149 54.276 24.5728C54.37 24.7321 54.4887 24.8822 54.6298 25.013C54.9057 25.2808 55.2765 25.471 55.679 25.5224C56.0826 25.563 56.4866 25.4612 56.8157 25.2623C56.9824 25.1665 57.132 25.0473 57.2595 24.913C57.3894 24.7813 57.4974 24.6333 57.5796 24.4772C57.7526 24.1676 57.8104 23.8243 57.786 23.5118C57.7588 23.1977 57.6488 22.9164 57.5119 22.6854C57.2318 22.2204 56.8476 21.9634 56.5712 21.8474C56.2913 21.7284 56.1174 21.7181 56.1201 21.7041Z" fill="#1A2E35"/>
<path d="M52.3067 25.949C51.8694 25.9004 51.427 26.2537 51.3777 26.691C51.3283 27.1286 51.681 27.5715 52.1183 27.6212C52.5556 27.6712 52.9992 27.3192 53.0496 26.8819C53.1001 26.4446 52.7487 26.0008 52.3114 25.9497" fill="#FAFAFA"/>
<path d="M52.3114 25.95C52.3114 25.9449 52.3884 25.9377 52.5183 25.9817C52.6462 26.0246 52.8266 26.133 52.9619 26.3424C53.028 26.4467 53.0827 26.5757 53.0985 26.7233C53.1135 26.8701 53.0882 27.0351 53.0085 27.182C52.8574 27.4742 52.5085 27.7191 52.1116 27.6793C51.7161 27.6289 51.4312 27.3115 51.3497 26.9927C51.3053 26.8315 51.3178 26.6652 51.3654 26.5255C51.4143 26.3851 51.4966 26.2717 51.5844 26.1853C51.7634 26.0116 51.9636 25.9469 52.0978 25.9337C52.2344 25.9203 52.3078 25.9444 52.3067 25.9496C52.3058 25.96 52.2317 25.952 52.1051 25.9783C51.9806 26.0038 51.7995 26.0768 51.6431 26.2429C51.4875 26.4029 51.3672 26.6777 51.4533 26.9648C51.529 27.2447 51.7886 27.5226 52.125 27.5639C52.4616 27.5994 52.7771 27.3871 52.9141 27.1315C53.0626 26.8713 53.0074 26.5766 52.8918 26.3853C52.7766 26.1884 52.6168 26.0766 52.5011 26.0237C52.384 25.9694 52.3098 25.9605 52.3114 25.95Z" fill="#1A2E35"/>
</g>
</svg>
